<?xml version="1.0" encoding="UTF-8"?>
<svg id="Layer_2" data-name="Layer 2" xmlns="http://www.w3.org/2000/svg" xmlns:xlink="http://www.w3.org/1999/xlink" viewBox="0 0 1920 1060">
  <defs>
    <style>
      .cls-1 {
        fill: none;
      }

      .cls-2 {
        fill: #f9b566;
      }

      .cls-3 {
        fill: #835a29;
      }

      .cls-4 {
        fill: #ffb419;
      }

      .cls-5 {
        fill: #825f35;
      }

      .cls-6 {
        fill: #f6921e;
      }

      .cls-7 {
        fill: #815929;
      }

      .cls-8 {
        fill: #f8aa4f;
      }

      .cls-9 {
        fill: #855c2d;
      }

      .cls-10 {
        fill: #faba6f;
      }

      .cls-11 {
        fill: #805829;
      }

      .cls-12 {
        fill: #ffe7b3;
      }

      .cls-13 {
        fill: #7d582b;
      }

      .cls-14 {
        fill: #7b490f;
      }

      .cls-15 {
        fill: #875e2e;
      }

      .cls-16 {
        fill: #835a2a;
      }

      .cls-17 {
        isolation: isolate;
      }

      .cls-18 {
        clip-path: url(#clippath-10);
      }

      .cls-19 {
        clip-path: url(#clippath-1);
      }

      .cls-20 {
        clip-path: url(#clippath-3);
      }

      .cls-21 {
        clip-path: url(#clippath-4);
      }

      .cls-22 {
        clip-path: url(#clippath-2);
      }

      .cls-23 {
        clip-path: url(#clippath-7);
      }

      .cls-24 {
        clip-path: url(#clippath-6);
      }

      .cls-25 {
        clip-path: url(#clippath-9);
      }

      .cls-26 {
        clip-path: url(#clippath-8);
      }

      .cls-27 {
        clip-path: url(#clippath-5);
      }

      .cls-28 {
        fill: #845d2e;
      }

      .cls-29 {
        fill: #f9ab4f;
      }

      .cls-30 {
        fill: #865d2d;
      }

      .cls-31 {
        fill: #825929;
      }

      .cls-32 {
        fill: #7e5728;
      }

      .cls-33 {
        fill: #85633b;
      }

      .cls-34 {
        fill: #815829;
      }

      .cls-35 {
        fill: #855b2a;
      }

      .cls-36 {
        fill: #4b6496;
      }

      .cls-37 {
        fill: #896438;
      }

      .cls-38 {
        fill: #805a2c;
      }

      .cls-39 {
        fill: #815a2c;
      }

      .cls-40 {
        fill: #846036;
      }

      .cls-41 {
        fill: #834e10;
      }

      .cls-42 {
        fill: #8a6538;
      }

      .cls-43 {
        fill: #f9af56;
      }

      .cls-44 {
        fill: #855d2e;
      }

      .cls-45 {
        fill: #7e582b;
      }

      .cls-46 {
        fill: #825b2d;
      }

      .cls-47 {
        fill: #7d572a;
      }

      .cls-48 {
        fill: #80592b;
      }

      .cls-49 {
        fill: #fbc07a;
      }

      .cls-50 {
        clip-path: url(#clippath);
      }

      .cls-51 {
        fill: #f9ad54;
      }

      .cls-52 {
        fill: #815b2d;
      }

      .cls-53 {
        fill: #7f5728;
      }
    </style>
    <clipPath id="clippath">
      <rect class="cls-1" x="0" y="49.66" width="1920" height="960.68"/>
    </clipPath>
    <clipPath id="clippath-1">
      <path class="cls-1" d="M600.43,223.75v7.61c-.55.05-11.02.94-11.37,2.19-.34,1.25-.99,19.92-1.03,20.91v-7.61c.03-.98.68-19.66,1.03-20.91.35-1.25,10.82-2.14,11.37-2.19Z"/>
    </clipPath>
    <clipPath id="clippath-2">
      <path class="cls-1" d="M1854.02,543.07v3.38c-.4.53-7.94,10.62-7.94,11.65v-3.38c0-1.03,7.54-11.12,7.94-11.65Z"/>
    </clipPath>
    <clipPath id="clippath-3">
      <path class="cls-1" d="M755.55,683.53v8.45c-1.4-.17-28.08-3.34-28.75-4.55-.67-1.22-6.39-11.3-6.7-11.84v-8.45c.3.53,6.03,10.62,6.7,11.84.67,1.22,27.34,4.38,28.75,4.55Z"/>
    </clipPath>
    <clipPath id="clippath-4">
      <rect class="cls-1" x="978.03" y="328.25" width="350.52" height="196.72"/>
    </clipPath>
    <clipPath id="clippath-5">
      <rect class="cls-1" x="1119.39" y="407.53" width="209.16" height="261.95"/>
    </clipPath>
    <clipPath id="clippath-6">
      <rect class="cls-1" x="1341.5" y="307.43" width="162.32" height="179.49"/>
    </clipPath>
    <clipPath id="clippath-7">
      <rect class="cls-1" x="22.36" y="329.66" width="402.11" height="244.39"/>
    </clipPath>
    <clipPath id="clippath-8">
      <rect class="cls-1" x="577.57" y="43.63" width="221.61" height="99.96"/>
    </clipPath>
    <clipPath id="clippath-9">
      <rect class="cls-1" x="755.95" y="612.03" width="169.05" height="323.15"/>
    </clipPath>
    <clipPath id="clippath-10">
      <rect class="cls-1" x="294.65" y="185.62" width="1401.64" height="610.07"/>
    </clipPath>
  </defs>
  <g id="data6">
    <g>
      <g class="cls-17">
        <g class="cls-50">
          <path class="cls-36" d="M780.79,49.66c-.65,0-1.3.04-1.94.09l-120.18,8.34c-4.03.27-7.91,1.44-11.35,3.38l-63.99,36.53c-3.03,1.71-5.62,4.06-7.61,6.81l-15.48,21.65-7.31,7.44-100.52,63.14c-3.69,2.3-6.62,5.51-8.46,9.16l-14.34,28.36-2.93,2.35h-29.65c-14.04,0-20.16,6.94-40.46,32.15l-42.89,25.8-110.07,9.52c-5.33.45-10.35,2.48-14.34,5.73l-23.44,19.17-11.69,9.74c-.5.41-.9.82-1.35,1.22l-33.43,32.34-103.86,38.38c-6.12,2.26-11.04,6.67-13.58,12.27-2.54,5.55-2.54,11.82.04,17.37l3.74,7.98c3.88,8.43,12.99,13.85,22.89,13.85.85,0,1.69-.05,2.49-.14l3.28-.27c3.13,3.03,7.26,5.28,11.99,6.36l2,.45c3.98,3.65,9.15,5.99,14.78,6.63l5.77,11.27,12.24,27.87,1.1,8.88c1.14,9.11,8.21,16.69,17.96,19.17l291.11,74.82.3.09,22.64,10.06,10.79,6.86c.35.22.65.41,1,.59l48.17,27.6c3.99,2.29,8.61,3.52,13.29,3.52h.79c3.09,1.22,6.47,1.84,9.9,1.84,2.04,0,4.09-.22,6.12-.68l.21-.04c2.93,1.31,6.16,2.12,9.5,2.3l3.23.18,8.51,6.49c4.53,3.43,10.2,5.28,16.02,5.28,1.24,0,2.48-.09,3.73-.27,5.52-.77,10.59-3.21,14.38-6.81,1.84-.41,3.68-.95,5.37-1.71,4.63,4.1,10.9,6.36,17.32,6.36,1.54,0,3.03-.14,4.58-.41l6.52,2.84c3.38,1.44,7.02,2.17,10.7,2.17,2.29,0,4.53-.28,6.77-.82l8.36,5.55c4.33,2.89,9.5,4.33,14.68,4.33,2.54,0,5.02-.32,7.46-.99l.69.5c4.54,3.47,10.21,5.28,15.97,5.28.8,0,1.59,0,2.39-.09,1.74,1.53,3.63,2.84,5.72,3.88l-2,2.43c-8.01,9.83-5.92,23.63,4.68,31.17l16.43,11.68c4.37,3.11,9.8,4.78,15.33,4.78,1.59,0,3.13-.14,4.73-.41l3.38-.59c5.67,7.63,15.27,10.24,35.08,12.68l1.14,1.44c1.25,1.57,2.74,3.02,4.38,4.28l1.49,1.09c-.5,1.04-.9,2.07-1.24,3.11-1.8,5.95-.8,12.32,2.68,17.59l2.89,4.37c-2.99,2.03-5.47,4.69-7.22,7.81-4.23,7.58-3.43,16.69,2.14,23.54l2.74,3.38c.3,2.25.59,4.19.85,5.91-2.84,3.25-6.37,7.44-10.95,12.86-3.53,4.19-5.32,9.42-5.02,14.7l.45,9.11-2.39,4.15c-4.13,7.08-3.78,15.64.95,22.46l6.43,9.25c3.58,5.14,9.31,8.79,15.87,10.06,1.75.32,3.44.5,5.18.5,3.33,0,6.61-.64,9.7-1.8l7.91,1.53c-.7,2.11-1.1,4.32-1.1,6.53v2.57l-1.74,4.11c-.7,1.71-1.2,3.52-1.45,5.32l-1.04,8.03-3.03,10.02c-2.59,8.79.89,18.17,8.86,23.77l38.47,26.88c4.43,3.07,9.8,4.69,15.18,4.69,3.38,0,6.77-.63,10-1.89,8.31-3.3,13.99-10.47,14.78-18.67l1.55-15.2,69.17-95.21c1.1-1.48,1.99-3.11,2.64-4.78l15.68-39.69,3.93-7.08,30.9-43.61,56.19-6c6.57-.68,12.59-3.74,16.67-8.47l27.47-31.75.85.05-11.3,17.63c-2.54,3.96-3.68,8.52-3.28,13.12l1.2,13.98c.59,6.94,4.68,13.21,11.04,17.05l15.43,9.24c4.09,2.44,8.91,3.74,13.73,3.74,2.39,0,4.83-.32,7.22-.99,7.07-1.94,12.84-6.68,15.72-12.86l10.4-22.46,8.01-3.43c6.32-2.71,11-7.63,13.09-13.48l.7-.18c.99-.28,1.94-.59,2.88-1l12.89-5.28c3.24-1.31,6.13-3.25,8.46-5.69l20.85-21.51c2.64-2.71,4.48-5.95,5.47-9.47l6.47-23.82c1.75-1.62,3.48-3.2,5.03-4.55,7.16-.82,19.56-2.26,41.4-4.87l34.79,14.34c3.29,1.35,6.81,2.03,10.3,2.03,4.73,0,9.41-1.22,13.49-3.56,6.12-3.61,10.15-9.38,11.14-15.83l3.99-.27,47.22-.32c7.56-.04,14.68-3.2,19.36-8.56l34.98-40.05,23.59-.18,81.31,27.37,52.6,45.33c2.09,1.8,4.53,3.3,7.21,4.33l35.98,14.16c3.13,1.26,6.52,1.89,9.9,1.89,4.13,0,8.22-.95,11.9-2.75,6.77-3.34,11.39-9.29,12.64-16.19l8.31-46,19.36,13.98c4.48,3.21,9.95,4.87,15.48,4.87,1.99,0,3.93-.18,5.92-.63l36.42-8.03,23.24,1.17,10.5.73c.59.04,1.2.04,1.84.04h15.82c3.83,3.74,9.05,6.27,15.03,6.95l58.27,6.72c1.05.13,2.1.18,3.14.18,6.02,0,11.89-1.98,16.42-5.64,5.38-4.24,8.46-10.42,8.46-16.92v-15.91c0-9.2-6.17-17.5-15.57-20.93l-19.36-7.08c-2.44-3.12-4.88-6.27-7.07-9.06,6.36-9.79,3.68-22.41-6.37-29.36l-23.09-15.96c-3.18-2.21-6.87-3.65-10.75-4.29,2.49-5.14,2.79-11.13.49-16.73l-37.07-91.33c-3.63-8.92-12.99-14.75-23.34-14.75-.75,0-1.44,0-2.19.1l-26.48,2.07c-4.08.36-8.06,1.62-11.55,3.65l-24.93,14.97-4.63-7.48c-4.53-7.31-12.94-11.55-21.74-11.55-2.83,0-5.72.45-8.56,1.39l-37.97,12.63-25.48-13.21c-3.78-1.99-8.06-2.98-12.34-2.98-1.1,0-2.14.04-3.19.18.1-.99.15-1.99.1-2.94l-1.39-52.59,12.89-20.74c4.58-7.31,4.28-16.33-.79-23.36-4.58-6.45-12.49-10.24-20.85-10.24-.79,0-1.54,0-2.34.09l-70.71,6c-.94.05-1.84.18-2.74.36l-13.34,2.48c-1.99.41-3.93,1-5.77,1.81l-58.82,25.79-88.97-6.76c-.69-.05-1.4-.09-2.09-.09h-12.99c-1.99,0-3.98.23-5.92.68l-56.03,12.45-5.72-2.94c-3.78-1.93-8.01-2.88-12.19-2.88s-8.41.95-12.19,2.88l-90.52,45.96c-2.54,1.31-4.82,3.02-6.71,5l-34.49,36.49-15.17-10.73c-4.48-3.21-9.91-4.78-15.33-4.78-4.19,0-8.36.95-12.2,2.88l-15.23,7.76-27.92-24.17c-4.73-4.1-10.94-6.22-17.22-6.22-3.23,0-6.47.54-9.6,1.71l-19.26,7.31-7.11.09-55.24.27-77.38-117.58c-2.48-3.83-6.22-6.9-10.7-8.79l-66.23-28.5c-3.33-1.44-6.97-2.21-10.65-2.21h-42.44c-.6,0-1.25.04-1.84.09l-13.73.9c-2.09-4.28-5.62-7.98-10.25-10.42-3.88-2.07-8.26-3.11-12.59-3.11-5.62,0-11.25,1.75-15.82,5.14l-36.93,27.6.85-6c.1-.68.15-1.39.2-2.12.05-1.66.1-3.43.15-5.18,3.78-2.03,6.91-4.92,9.11-8.48l43.49-71.12,6.07-7.04,79.57-56.78,46.48-12.86c3.93-1.08,7.46-3.02,10.35-5.64l8.66-7.85c9.46-8.61,9.7-22.46.55-31.35l-20.95-20.25c-4.73-4.55-11.29-7.12-18.11-7.12"/>
        </g>
      </g>
      <g class="cls-17">
        <polygon class="cls-33" points="188.27 317.67 188.27 319.36 180.05 319.26 180.05 317.57 188.27 317.67"/>
        <rect class="cls-33" x="424.47" y="348.86" width="43.65" height="1.69"/>
        <rect class="cls-33" x="188.27" y="381.63" width="34.11" height="1.69"/>
        <rect class="cls-33" x="222.38" y="415.52" width="108.49" height="1.69"/>
        <path class="cls-10" d="M447.57,222.97v109.13h20.55v16.75h-43.65v130.35h-93.6v-63.68h-108.49v-33.89h-34.11v-63.96l-8.22-.11,23.43-18.62,116.29-9.68,51.78-30.16c1.05-1.27,20.96-25.33,23.01-25.33h39.04l13.97-10.8Z"/>
        <rect class="cls-33" x="330.87" y="479.2" width="93.6" height="1.69"/>
      </g>
      <g class="cls-17">
        <polygon class="cls-53" points="644.87 153.35 644.87 160.96 600.43 231.35 600.43 223.75 644.87 153.35"/>
        <g class="cls-17">
          <g class="cls-19">
            <g class="cls-17">
              <path class="cls-7" d="M600.43,223.75v7.61c-.55.05-11.02.94-11.37,2.19-.34,1.25-.99,19.92-1.03,20.91v-7.61c.03-.98.68-19.66,1.03-20.91.35-1.25,10.82-2.14,11.37-2.19"/>
            </g>
          </g>
        </g>
        <rect class="cls-35" x="556.34" y="246.84" width="31.69" height="7.61"/>
        <rect class="cls-35" x="520.53" y="274.3" width="35.81" height="7.61"/>
        <rect class="cls-35" x="458.46" y="302.06" width="21.19" height="7.61"/>
        <path class="cls-29" d="M624.55,119.33v34.02h20.31l-44.44,70.39c-.55.05-11.02.94-11.37,2.19-.34,1.25-.99,19.92-1.03,20.91h-31.69v27.46h-35.81v166.35h-83.67v-89.69h42.79v-48.9h-21.19v-96.1l5.6-24.03,102.99-62.59h57.51Z"/>
        <rect class="cls-35" x="436.86" y="440.65" width="83.67" height="7.61"/>
      </g>
      <polygon class="cls-12" points="703.07 325.06 717.6 325.06 717.6 352.64 681.92 352.64 681.92 450.62 532.32 450.97 532.32 294.22 568.37 294.22 568.37 267.94 586.49 267.94 579.14 286.79 587.31 311.71 664.61 255.8 661.64 270.62 703.07 267.94 703.07 325.06"/>
      <g class="cls-17">
        <rect class="cls-41" x="714.43" y="286.33" width="14.86" height="18.6"/>
        <polygon class="cls-14" points="714.43 286.33 714.43 304.92 713.49 257.5 713.49 238.9 714.43 286.33"/>
        <rect class="cls-41" x="694.41" y="486.11" width="137.66" height="18.6"/>
        <polygon class="cls-41" points="966.03 518.23 966.03 536.83 933.63 537.15 933.63 518.55 966.03 518.23"/>
        <polygon class="cls-6" points="745.51 238.9 811.76 266.52 896.4 391 966.03 390.69 966.03 518.23 933.63 518.55 933.63 577.52 832.08 577.52 832.08 486.11 694.41 486.11 694.41 333.83 728.97 333.83 729.29 286.33 714.43 286.33 713.49 238.9 745.51 238.9"/>
        <rect class="cls-41" x="832.08" y="577.52" width="101.56" height="18.6"/>
      </g>
      <g class="cls-17">
        <polygon class="cls-40" points="1586.29 302.48 1586.29 305.86 1570.04 331.22 1570.04 327.84 1586.29 302.48"/>
        <polygon class="cls-40" points="1571.55 384.74 1571.55 388.12 1562.09 403.19 1562.09 399.81 1571.55 384.74"/>
        <rect class="cls-42" x="1515.59" y="490.2" width="32.9" height="3.38"/>
        <polygon class="cls-37" points="1812.42 497.49 1812.42 500.87 1785.95 516.63 1785.95 513.25 1812.42 497.49"/>
        <rect class="cls-42" x="1548.49" y="523.5" width="215.91" height="3.38"/>
        <rect class="cls-42" x="1764.4" y="554.34" width="35.93" height="3.38"/>
        <g class="cls-17">
          <g class="cls-22">
            <g class="cls-17">
              <path class="cls-5" d="M1854.02,543.07v3.38c-.4.53-7.94,10.62-7.94,11.65v-3.38c0-1.03,7.54-11.12,7.94-11.65"/>
            </g>
          </g>
        </g>
        <rect class="cls-42" x="1800.32" y="592.07" width="34.03" height="3.38"/>
        <polygon class="cls-37" points="1892.59 605.43 1892.59 608.82 1834.35 602.31 1834.35 598.93 1892.59 605.43"/>
        <path class="cls-2" d="M1586.29,302.48l-16.25,25.36,1.51,56.89-9.46,15.07,12.1,14.05,25.33-5.14,35.54,17.82,48.78-15.77,17.78,27.76,47.27-27.41,26.47-2.06,37.05,88.42-26.47,15.76,7.95,14.4h37.05l23.07,15.42c-.4.53-7.94,10.62-7.94,11.65s19.4,24.79,20.42,26.04l26.09,9.26v15.42l-58.24-6.51v-6.85h-34.03v-37.73h-35.93v-30.84h-215.91v-33.3h-32.9v-181.89l70.7-5.82Z"/>
      </g>
      <g class="cls-17">
        <polygon class="cls-44" points="1472.1 559.92 1472.1 566.68 1432.02 567.02 1432.02 560.26 1472.1 559.92"/>
        <polygon class="cls-44" points="1689.52 582.54 1689.52 589.3 1667.22 589.99 1667.22 583.23 1689.52 582.54"/>
        <polygon class="cls-28" points="1562.47 589.4 1562.47 596.16 1472.1 566.68 1472.1 559.92 1562.47 589.4"/>
        <polygon class="cls-44" points="1789.63 598.25 1789.63 605.02 1762.51 603.69 1762.51 596.93 1789.63 598.25"/>
        <polygon class="cls-46" points="1722.43 605.5 1722.43 612.26 1689.52 589.3 1689.52 582.54 1722.43 605.5"/>
        <polygon class="cls-44" points="1762.51 596.93 1762.51 603.69 1722.43 612.26 1722.43 605.5 1762.51 596.93"/>
        <polygon class="cls-38" points="1432.02 560.26 1432.02 567.02 1389.67 613.98 1389.67 607.22 1432.02 560.26"/>
        <polygon class="cls-44" points="1389.67 607.22 1389.67 613.98 1341.5 614.27 1341.5 607.5 1389.67 607.22"/>
        <polygon class="cls-52" points="1618.82 636.35 1618.82 643.11 1562.47 596.16 1562.47 589.4 1618.82 636.35"/>
        <polygon class="cls-28" points="1654.74 650.05 1654.74 656.81 1618.82 643.11 1618.82 636.35 1654.74 650.05"/>
        <polygon class="cls-13" points="1667.22 583.23 1667.22 589.99 1654.74 656.81 1654.74 650.05 1667.22 583.23"/>
        <polygon class="cls-43" points="1537.04 508.51 1537.04 540.73 1752.96 540.73 1752.96 571.57 1789.63 571.57 1789.63 598.25 1762.51 596.93 1722.43 605.5 1689.52 582.54 1667.22 583.23 1654.74 650.05 1618.82 636.35 1562.47 589.4 1472.1 559.92 1432.02 560.26 1389.67 607.22 1341.5 607.5 1341.5 508.51 1537.04 508.51"/>
      </g>
      <g class="cls-17">
        <rect class="cls-35" x="798.27" y="621.93" width="22.03" height="8.45"/>
        <polygon class="cls-34" points="700.34 637.69 700.34 646.15 694.41 640.07 694.41 631.62 700.34 637.69"/>
        <polygon class="cls-35" points="720.11 667.14 720.11 675.59 698.34 679.23 698.34 670.78 720.11 667.14"/>
        <polygon class="cls-31" points="698.34 670.78 698.34 679.23 681.92 668 681.92 659.55 698.34 670.78"/>
        <g class="cls-17">
          <g class="cls-20">
            <g class="cls-17">
              <path class="cls-7" d="M755.55,683.53v8.45c-1.4-.17-28.08-3.34-28.75-4.55-.67-1.22-6.39-11.3-6.7-11.84v-8.45c.3.53,6.03,10.62,6.7,11.84.67,1.22,27.34,4.38,28.75,4.55"/>
            </g>
          </g>
        </g>
        <path class="cls-29" d="M820.3,507.57v114.36h-22.03v70.71h-35.3l-7.42-9.11c-1.4-.17-28.08-3.34-28.75-4.55-.67-1.22-6.39-11.3-6.7-11.84l-21.77,3.64-16.42-11.23,18.42-21.85-5.93-6.08v-124.05h125.89Z"/>
        <polygon class="cls-11" points="762.97 692.64 762.97 701.09 755.55 691.98 755.55 683.53 762.97 692.64"/>
        <rect class="cls-35" x="762.97" y="692.64" width="35.3" height="8.45"/>
      </g>
      <g class="cls-17">
        <polygon class="cls-34" points="484.97 610.74 484.97 619.19 436.86 592.48 436.86 584.03 484.97 610.74"/>
        <polygon class="cls-16" points="492.68 608.92 492.68 617.37 484.97 619.19 484.97 610.74 492.68 608.92"/>
        <polygon class="cls-32" points="495.69 612.56 495.69 621.01 492.68 617.37 492.68 608.92 495.69 612.56"/>
        <polygon class="cls-16" points="509.09 609.52 509.09 617.98 495.69 621.01 495.69 612.56 509.09 609.52"/>
        <polygon class="cls-32" points="513.11 614.08 513.11 622.53 509.09 617.98 509.09 609.52 513.11 614.08"/>
        <polygon class="cls-16" points="573.07 614.08 573.07 622.53 556.32 623.14 556.32 614.69 573.07 614.08"/>
        <polygon class="cls-3" points="524.5 614.69 524.5 623.14 513.11 622.53 513.11 614.08 524.5 614.69"/>
        <polygon class="cls-7" points="551.96 619.24 551.96 627.69 545.94 624.96 545.94 616.51 551.96 619.24"/>
        <polygon class="cls-34" points="556.32 614.69 556.32 623.14 551.96 627.69 551.96 619.24 556.32 614.69"/>
        <polygon class="cls-16" points="587.47 621.67 587.47 630.12 580.1 631.72 580.1 623.27 587.47 621.67"/>
        <polygon class="cls-32" points="580.1 623.27 580.1 631.72 573.07 622.53 573.07 614.08 580.1 623.27"/>
        <polygon class="cls-11" points="545.94 616.51 545.94 624.96 539.23 634.06 539.23 625.61 545.94 616.51"/>
        <polygon class="cls-11" points="539.23 625.61 539.23 634.06 524.5 623.14 524.5 614.69 539.23 625.61"/>
        <polygon class="cls-16" points="613.26 624.7 613.26 633.16 601.88 636.19 601.88 627.74 613.26 624.7"/>
        <polygon class="cls-7" points="601.88 627.74 601.88 636.19 587.47 630.12 587.47 621.67 601.88 627.74"/>
        <polygon class="cls-3" points="643.4 631.99 643.4 640.44 631.68 644.99 631.68 636.54 643.4 631.99"/>
        <polygon class="cls-11" points="631.68 636.54 631.68 644.99 613.26 633.16 613.26 624.7 631.68 636.54"/>
        <polygon class="cls-11" points="655.79 641.1 655.79 649.55 643.4 640.44 643.4 631.99 655.79 641.1"/>
        <polygon class="cls-3" points="666.51 637.75 666.51 646.21 655.79 649.55 655.79 641.1 666.51 637.75"/>
        <polygon class="cls-8" points="681.92 467.16 681.92 647.47 675.89 647.47 666.51 637.75 655.79 641.1 643.4 631.99 631.68 636.54 613.26 624.7 601.88 627.74 587.47 621.67 580.1 623.27 573.07 614.08 556.32 614.69 551.96 619.24 545.94 616.51 539.23 625.61 524.5 614.69 513.11 614.08 509.09 609.52 495.69 612.56 492.68 608.92 484.97 610.74 436.86 584.03 436.86 467.16 681.92 467.16"/>
        <rect class="cls-3" x="675.89" y="647.47" width="6.03" height="8.45"/>
        <polygon class="cls-53" points="675.89 647.47 675.89 655.92 666.51 646.21 666.51 637.75 675.89 647.47"/>
      </g>
      <g class="cls-17">
        <g class="cls-21">
          <polyline class="cls-49" points="1328.55 328.25 1262.9 342.4 1248.66 335.3 1158.11 379.85 1108.17 431.03 1074.19 407.73 1042.89 423.12 1001.65 388.58 978.03 397.27 978.03 524.92 1106.79 524.97 1106.79 459.33 1177.5 459.33 1177.5 394.82 1328.55 394.82 1328.55 328.25"/>
        </g>
      </g>
      <g class="cls-17">
        <rect class="cls-15" x="907.69" y="624.69" width="13.09" height="6.76"/>
        <polygon class="cls-15" points="1124.39 659.51 1124.39 666.27 1071.45 661.62 1071.45 654.86 1124.39 659.51"/>
        <polygon class="cls-30" points="1158.11 677.69 1158.11 684.45 1141.04 689.09 1141.04 682.33 1158.11 677.69"/>
        <polygon class="cls-39" points="1071.45 654.86 1071.45 661.62 1035.59 701.87 1035.59 695.1 1071.45 654.86"/>
        <polygon class="cls-30" points="1141.04 692 1141.04 698.77 1124.39 705.73 1124.39 698.97 1141.04 692"/>
        <polygon class="cls-15" points="1035.59 695.1 1035.59 701.87 967.72 708.82 967.72 702.06 1035.59 695.1"/>
        <polygon class="cls-47" points="1094.93 719.48 1094.93 726.24 1093.65 712.7 1093.65 705.94 1094.93 719.48"/>
        <polygon class="cls-45" points="1124.39 698.97 1124.39 705.73 1110.3 735.14 1110.3 728.38 1124.39 698.97"/>
        <polygon class="cls-9" points="1110.3 728.38 1110.3 735.14 1094.93 726.24 1094.93 719.48 1110.3 728.38"/>
        <polygon class="cls-48" points="967.72 702.06 967.72 708.82 929.73 760.67 929.73 753.91 967.72 702.06"/>
        <rect class="cls-15" x="920.77" y="753.91" width="8.96" height="6.76"/>
        <polygon class="cls-51" points="1149.15 537.78 1149.15 636.18 1158.11 636.18 1158.11 677.69 1141.04 682.33 1141.04 692 1124.39 698.97 1110.3 728.38 1094.93 719.48 1093.65 705.94 1124.39 659.51 1071.45 654.86 1035.59 695.1 967.72 702.06 929.73 753.91 920.77 753.91 920.77 624.69 907.69 624.69 907.69 597.99 944.87 597.99 944.87 537.78 1149.15 537.78"/>
      </g>
      <g class="cls-17">
        <g class="cls-27">
          <path class="cls-12" d="M1328.55,407.53h-137.93v63.71h-71.23v52.97h41.64v98.73h9.48l.44,46.53,20.83-20.8,8.15-28.9s15.83-14.14,16.52-14.14,56.33-6.33,56.33-6.33l41.2,16.45v-14.34l14.56-3.8v-190.09"/>
        </g>
      </g>
      <g class="cls-17">
        <g class="cls-24">
          <polyline class="cls-12" points="1502.25 307.43 1437.31 335.04 1341.5 327.99 1341.5 486.92 1503.82 486.92 1502.25 307.43"/>
        </g>
      </g>
      <g class="cls-17">
        <g class="cls-23">
          <polyline class="cls-12" points="173.99 329.66 168.41 329.66 131.25 364.45 22.36 403.43 26.07 411.17 49.48 409.16 49.86 417.57 59.15 419.6 63.61 423.97 77.35 425.32 89.25 447.88 103 478.2 104.49 489.65 398.08 562.74 424.47 574.05 424.47 494.37 317.07 494.37 317.07 428.35 210.03 428.35 210.03 394.33 173.99 394.33 173.99 329.66"/>
        </g>
      </g>
      <g class="cls-17">
        <g class="cls-26">
          <polyline class="cls-12" points="778.28 43.63 658.06 51.72 594.13 87.04 577.57 109.43 636.16 109.43 636.16 143.6 653.98 143.6 739.57 84.49 790.51 70.88 799.17 63.26 778.28 43.63"/>
        </g>
      </g>
      <g class="cls-17">
        <g class="cls-25">
          <path class="cls-10" d="M898.11,612.03h-67.02v33.28h-22.63v71.67l-30.74-.09s6.83,6.96,7.69,8.12c.85,1.16-13.66,8.12-13.66,8.12l10.67,15.47-.43,17.41h-13.66l6.41,7.73s2.99,19.35,3.37,20.85h0c-.93,0-17.46,19-17.46,19l.85,14.71-5.54,9.28,6.4,8.9,5.12-3.1,20.49,3.87,20.49-15.48,14.08,12.38-18.78,30.18v6.58l-3.41,7.73-1.29,9.29-3.41,11.22,38.42,26.01,2.13-20.2,72.58-96.73,16.22-39.61h-14.94v-128.83h-11.95v-37.78"/>
        </g>
      </g>
      <g class="cls-17">
        <g class="cls-18">
          <g>
            <path class="cls-36" d="M780.17,523c-2.99,0-5.93.29-8.74.86-2.71.56-5.31,1.33-7.72,2.27-2.54.99-4.87,2.19-6.95,3.58-2.07,1.39-3.88,2.92-5.38,4.54l-2.57,2.75v.42l3.34,18.93c.54,3.65,3.28,6.48,6.97,7.45-1.39.92-2.7,1.78-3.92,2.58h3.35l.86,4.78c2.19-1.41,4.67-3.04,7.45-4.89,2.88-1.93,5.57-3.91,8.06-5.95,2.49-2.04,4.6-4.04,6.33-6,1.72-1.96,2.58-3.71,2.58-5.28s-.53-2.75-1.59-3.56c-1.06-.81-2.56-1.22-4.47-1.22-2.33,0-4.65.8-6.98,2.39-2.32,1.59-4.45,3.47-6.36,5.64-.6.66-1.16,1-1.69,1-.67,0-1.03-.3-1.1-.91l-2.79-15.78c1.06-1.14,2.36-2.23,3.89-3.25,1.52-1.02,3.25-1.91,5.17-2.66,1.93-.76,3.98-1.35,6.17-1.81,2.2-.45,4.45-.68,6.77-.68,4.18,0,7.67.5,10.46,1.49,2.78,1,5.02,2.32,6.71,3.97,1.69,1.65,2.91,3.56,3.64,5.73.73,2.16,1.09,4.42,1.09,6.76s-.73,4.8-2.19,7.17c-1.46,2.38-3.28,4.67-5.47,6.86-2.19,2.19-4.58,4.24-7.16,6.13-2.59,1.89-5.01,3.56-7.27,5.01h12.84l2.29-6.68h10.45c.67,0,1.13.23,1.39.68.27.45.4,1.25.4,2.39v16.6c0,.48-.26.84-.79,1.09-.53.24-1.49.36-2.89.36h-40.2c-1.03,0-1.76-.24-2.21-.71l.32,1.79v.6c0,3.15-1.76,5.95-4.73,7.47-.15.08-.29.15-.44.21,1.8.99,3.98,1.54,6.37,1.54h40.21c2.89,0,4.99-.37,6.9-1.22,3.5-1.61,5.67-4.77,5.67-8.28v-16.59c0-2.54-.45-4.49-1.43-6.17-1.45-2.46-3.94-4.14-6.89-4.72,2.03-3.45,3.05-7.03,3.05-10.67,0-3.12-.49-6.18-1.48-9.11-1.13-3.34-3.02-6.31-5.62-8.86-2.61-2.54-5.97-4.56-9.98-5.98-3.86-1.38-8.34-2.05-13.7-2.05"/>
            <path class="cls-36" d="M712.75,544.14c-1.33,0-2.23-.12-2.69-.36-.47-.24-.7-.64-.7-1.17l2.49-13.8h25.28c1.32,0,2.27.12,2.84.36.57.24.85.64.85,1.17v39.6h10.95l2.48,13.8c0,.54-.23.93-.69,1.17-.47.24-1.37.37-2.69.37h-39.11c-1.33,0-2.22-.12-2.69-.37-.46-.24-.69-.63-.69-1.17l2.48-13.8h10.95v-25.8h-9.05M737.13,525.24h-32.08l-3.68,20.47v.59c0,3.16,1.76,5.95,4.72,7.47,2.25,1.17,4.74,1.31,6.66,1.31h1.06v11.31h-9.75l-3.69,20.45v.6c0,3.15,1.77,5.95,4.71,7.46,2.26,1.18,4.75,1.33,6.67,1.33h39.12c1.78,0,4.08-.13,6.2-1.1.15-.07.29-.14.44-.21,2.97-1.53,4.73-4.32,4.73-7.47v-.6l-.32-1.79c-.25-.26-.41-.6-.48-1l-2.29-12.72c.09-.05.17-.11.26-.17l-.86-4.78h-9.74v-32.35c0-3.34-2.09-6.3-5.46-7.74-1.67-.72-3.65-1.05-6.23-1.05"/>
            <path class="cls-4" d="M737.13,528.8h-25.28l-2.49,13.8c0,.54.23.93.7,1.17.46.24,1.36.36,2.69.36h9.05v25.8h-10.95l-2.48,13.8c0,.54.23.93.69,1.17.47.24,1.36.37,2.69.37h39.11c1.32,0,2.22-.12,2.69-.37.46-.24.69-.63.69-1.17l-2.48-13.8h-10.95v-39.6c0-.54-.28-.93-.85-1.17-.57-.24-1.51-.36-2.84-.36"/>
            <path class="cls-4" d="M780.85,528.2c-2.32,0-4.57.23-6.77.68-2.19.46-4.24,1.05-6.17,1.81-1.93.75-3.65,1.64-5.17,2.66-1.53,1.02-2.83,2.1-3.89,3.25l2.79,15.78c.06.6.43.91,1.1.91.53,0,1.09-.33,1.69-1,1.92-2.16,4.04-4.05,6.36-5.64,2.32-1.59,4.64-2.39,6.98-2.39,1.92,0,3.41.41,4.47,1.22,1.06.82,1.59,2,1.59,3.56s-.86,3.32-2.58,5.28c-1.73,1.96-3.83,3.96-6.33,6-2.48,2.05-5.18,4.03-8.06,5.95-2.78,1.85-5.27,3.48-7.45,4.89-.09.06-.17.11-.26.17l2.29,12.72c.07.41.23.74.48,1,.45.47,1.19.71,2.21.71h40.2c1.39,0,2.36-.12,2.89-.36.53-.24.79-.6.79-1.09v-16.6c0-1.14-.13-1.94-.4-2.39-.26-.45-.73-.68-1.39-.68h-10.45l-2.29,6.68h-12.84c2.26-1.44,4.68-3.12,7.27-5.01,2.58-1.89,4.98-3.94,7.16-6.13,2.19-2.19,4.01-4.48,5.47-6.86,1.46-2.37,2.19-4.76,2.19-7.17s-.36-4.6-1.09-6.76c-.73-2.17-1.94-4.08-3.64-5.73-1.69-1.66-3.93-2.98-6.71-3.97-2.79-1-6.27-1.49-10.46-1.49"/>
            <path class="cls-36" d="M1082.13,559.17h-39.74c-2.92,0-5.04.38-6.88,1.28-2.62,1.26-4.4,3.4-5.03,5.95.24.76.37,1.57.37,2.4v20.42c.21.61.47,1.17.78,1.71,1.76,2.99,5.1,4.79,8.95,4.79h4.55l.54,2.5-.06-.02c-1.6-.73-3.22-1.09-4.82-1.09-3.43,0-6.42,1.58-8.09,4.05h7.89l.52,2.91.22-1.23c.06-.42.36-.63.89-.63.26,0,.59.09,1,.27,2.52,1.44,5.22,2.71,8.11,3.79,2.89,1.08,5.89,1.62,9.01,1.62,1.06,0,2.14-.11,3.23-.32,1.1-.21,2.08-.52,2.93-.95.86-.42,1.57-.95,2.1-1.58.53-.63.79-1.36.79-2.21,0-1.8-.95-3.05-2.83-3.74-1.89-.69-4.27-1.04-7.12-1.04h-3.19l-1.59-7.49,11.74-11.81h-11.64l-2.3,6.67h-10.45c-.67,0-1.12-.23-1.4-.68-.26-.45-.4-1.25-.4-2.39v-16.33c0-.54.25-.93.75-1.17.49-.24,1.44-.37,2.83-.37h39.51c1.79,0,2.69.55,2.69,1.62v9.29l-11.84,12.63c4.84,1.14,8.36,3.14,10.55,6,2.2,2.85,3.28,5.94,3.28,9.25,0,2.52-.46,4.93-1.39,7.21-.93,2.29-2.39,4.29-4.37,6-1.99,1.71-4.56,3.08-7.71,4.1-3.16,1.02-6.96,1.53-11.4,1.53-1.66,0-3.55-.09-5.67-.27-2.12-.18-4.28-.47-6.47-.86-2.19-.39-4.35-.95-6.47-1.67-.23-.08-.46-.16-.69-.24l.45,2.52v.59c0,2.95-1.54,5.58-4.17,7.16,2.55.86,5.19,1.54,7.83,2.01,2.48.44,4.95.77,7.35.98,2.39.2,4.58.3,6.51.3,5.44,0,10.26-.67,14.35-2,4.28-1.39,7.9-3.34,10.76-5.81,2.94-2.54,5.15-5.56,6.53-8.97,1.29-3.14,1.94-6.48,1.94-9.93,0-4.92-1.63-9.54-4.83-13.72-1.16-1.51-2.53-2.87-4.12-4.05l4.92-5.24c1.31-1.4,2.03-3.18,2.03-5.01v-9.35c0-4.67-3.86-9.38-11.25-9.38"/>
            <path class="cls-36" d="M994.79,578.9c-1.33,0-2.23-.12-2.69-.37-.47-.24-.7-.63-.7-1.17l2.49-13.79h25.28c1.32,0,2.27.11,2.84.36.57.24.85.63.85,1.17v39.59h10.95l2.48,13.8c0,.55-.23.94-.69,1.17-.47.24-1.37.36-2.69.36h-39.11c-1.33,0-2.22-.11-2.69-.36-.46-.24-.69-.63-.69-1.17l2.48-13.8h10.95v-25.79h-9.05M1019.17,560h-32.08l-3.68,20.47v.59c0,3.16,1.76,5.95,4.72,7.47,2.25,1.17,4.74,1.31,6.66,1.31h1.06v11.3h-9.75l-3.69,20.46v.59c0,3.16,1.77,5.95,4.71,7.46,2.26,1.17,4.75,1.33,6.67,1.33h39.12c1.91,0,4.4-.15,6.64-1.31.19-.1.38-.2.56-.32,2.63-1.58,4.17-4.21,4.17-7.16v-.59l-.45-2.52c-1.85-.68-3.51-1.5-4.98-2.47l2.27-12.57-.52-2.91h-9.74v-32.34c0-.83-.13-1.63-.37-2.4-.74-2.32-2.55-4.26-5.09-5.34-1.67-.72-3.65-1.05-6.23-1.05"/>
            <path class="cls-4" d="M1019.17,563.57h-25.28l-2.49,13.79c0,.55.23.94.7,1.17.46.24,1.36.37,2.69.37h9.05v25.79h-10.95l-2.48,13.8c0,.55.23.94.69,1.17.47.24,1.36.36,2.69.36h39.11c1.32,0,2.22-.11,2.69-.36.46-.24.69-.63.69-1.17l-2.48-13.8h-10.95v-39.59c0-.55-.28-.94-.85-1.17-.57-.24-1.51-.36-2.84-.36"/>
            <path class="cls-4" d="M1083.34,564.47h-39.51c-1.4,0-2.34.12-2.83.37-.49.24-.75.63-.75,1.17v16.33c0,1.14.14,1.94.4,2.39.27.45.73.68,1.4.68h10.45l2.3-6.67h11.64l-11.74,11.81,1.59,7.49h3.19c2.85,0,5.23.35,7.12,1.04,1.89.69,2.83,1.94,2.83,3.74,0,.85-.26,1.58-.79,2.21-.53.64-1.23,1.16-2.1,1.58-.85.42-1.84.73-2.93.95-1.09.21-2.17.32-3.23.32-3.12,0-6.12-.55-9.01-1.62-2.89-1.08-5.59-2.35-8.11-3.79-.41-.18-.74-.27-1-.27-.53,0-.83.21-.89.63l-.22,1.23-2.27,12.57c1.47.97,3.14,1.79,4.98,2.47.23.08.46.16.69.24,2.12.73,4.28,1.28,6.47,1.67,2.2.39,4.35.68,6.47.86,2.12.18,4.01.27,5.67.27,4.45,0,8.24-.51,11.4-1.53,3.15-1.02,5.72-2.39,7.71-4.1,1.99-1.71,3.45-3.71,4.37-6,.94-2.28,1.39-4.69,1.39-7.21,0-3.31-1.09-6.39-3.28-9.25-2.19-2.86-5.71-4.85-10.55-6l11.84-12.63v-9.29c0-1.08-.9-1.62-2.69-1.62"/>
            <path class="cls-36" d="M308.63,348.42c-.66,0-1.03-.29-1.09-.9l-2.79-15.79c1.06-1.14,2.36-2.22,3.88-3.25,1.53-1.02,3.26-1.91,5.17-2.66,1.93-.75,3.99-1.35,6.17-1.8s4.45-.68,6.77-.68c4.18,0,7.67.5,10.45,1.49,2.79.99,5.03,2.31,6.72,3.96,1.69,1.66,2.9,3.56,3.63,5.73.73,2.17,1.1,4.42,1.1,6.77s-.73,4.8-2.19,7.17c-1.46,2.37-3.29,4.66-5.48,6.85-2.19,2.2-4.57,4.24-7.16,6.13-2.58,1.9-5,3.56-7.26,5.01h12.84l2.29-6.67h10.45c.67,0,1.12.22,1.39.68.26.45.4,1.25.4,2.39v16.6c0,.48-.26.84-.79,1.08-.53.24-1.49.37-2.89.37h-40.21c-1.59,0-2.48-.57-2.68-1.72l-2.3-12.72c2.26-1.44,4.83-3.12,7.71-5.05,2.89-1.93,5.58-3.91,8.06-5.95,2.49-2.05,4.6-4.05,6.32-6,1.73-1.95,2.59-3.71,2.59-5.27s-.53-2.76-1.59-3.56c-1.06-.82-2.56-1.22-4.48-1.22-2.32,0-4.64.8-6.97,2.39-2.32,1.6-4.45,3.47-6.37,5.64-.59.66-1.16.99-1.69.99M326.07,319.04c-2.99,0-5.93.29-8.74.87-2.71.56-5.31,1.32-7.72,2.27-2.54.99-4.87,2.19-6.95,3.58-2.07,1.39-3.88,2.92-5.38,4.53l-2.63,2.82,3.39,19.28c.54,3.65,3.29,6.48,6.98,7.46-2.12,1.4-4.05,2.66-5.78,3.78l-4.55,2.9,3.19,17.66c.88,5.08,5.5,8.5,11.46,8.5h40.21c2.89,0,4.99-.36,6.89-1.22,3.5-1.6,5.67-4.76,5.67-8.27v-16.6c0-2.54-.45-4.49-1.43-6.17-1.45-2.46-3.93-4.14-6.89-4.72,2.02-3.45,3.05-7.03,3.05-10.67,0-3.12-.5-6.19-1.48-9.12-1.12-3.33-3.02-6.31-5.62-8.85-2.61-2.54-5.97-4.56-9.98-5.98-3.86-1.38-8.35-2.06-13.7-2.06"/>
            <path class="cls-4" d="M326.74,323.34c-2.32,0-4.58.23-6.77.68s-4.25,1.05-6.17,1.8c-1.92.75-3.64,1.64-5.17,2.66-1.52,1.03-2.82,2.1-3.88,3.25l2.79,15.79c.06.6.43.9,1.09.9.53,0,1.1-.33,1.69-.99,1.93-2.17,4.05-4.05,6.37-5.64,2.32-1.59,4.64-2.39,6.97-2.39,1.93,0,3.42.41,4.48,1.22,1.06.81,1.59,2,1.59,3.56s-.86,3.32-2.59,5.27c-1.72,1.96-3.83,3.96-6.32,6-2.48,2.05-5.18,4.03-8.06,5.95-2.88,1.93-5.45,3.61-7.71,5.05l2.3,12.72c.2,1.15,1.09,1.72,2.68,1.72h40.21c1.39,0,2.36-.12,2.89-.37.53-.24.79-.6.79-1.08v-16.6c0-1.14-.14-1.94-.4-2.39-.27-.46-.73-.68-1.39-.68h-10.45l-2.29,6.67h-12.84c2.26-1.44,4.68-3.11,7.26-5.01,2.59-1.89,4.98-3.93,7.16-6.13,2.2-2.19,4.02-4.48,5.48-6.85,1.46-2.37,2.19-4.76,2.19-7.17s-.37-4.6-1.1-6.77c-.73-2.16-1.93-4.07-3.63-5.73-1.69-1.66-3.93-2.98-6.72-3.96-2.78-1-6.26-1.49-10.45-1.49"/>
            <path class="cls-36" d="M540.41,203.5c-2.26,0-4.05.68-5.37,2.02-1.33,1.35-1.99,2.94-1.99,4.74s.63,3.23,1.89,4.46c1.26,1.23,3.11,1.85,5.57,1.85,1.53,0,3.1-.34,4.73-1.04,1.62-.69,2.9-2.03,3.82-4.01-.4-2.35-1.22-4.27-2.48-5.78-1.26-1.5-3.32-2.25-6.17-2.25M537.23,228.67c-3.25,0-6.2-.41-8.86-1.22-2.66-.82-4.92-1.99-6.81-3.52-1.9-1.53-3.36-3.41-4.38-5.64-1.03-2.22-1.54-4.75-1.54-7.58,0-3.12.61-5.95,1.84-8.47,1.22-2.53,2.92-4.65,5.08-6.36,2.16-1.71,4.72-3.03,7.71-3.97,2.99-.93,6.27-1.39,9.86-1.39,8.62,0,15.16,2.32,19.61,6.95,4.44,4.62,6.67,11.24,6.67,19.85,0,4.09-.49,8.04-1.45,11.86s-2.57,7.22-4.82,10.19c-2.26,2.98-5.25,5.37-8.95,7.18-3.72,1.8-8.33,2.7-13.84,2.7-1.32,0-2.82-.06-4.47-.18-1.67-.12-3.36-.31-5.08-.59-1.73-.27-3.42-.63-5.08-1.08-1.66-.46-3.16-1.04-4.48-1.76l2.19-12c.07-.48.37-.72.9-.72.33,0,.95.16,1.84.5.9.33,1.98.69,3.24,1.08s2.67.76,4.23,1.08c1.56.33,3.13.5,4.73.5,3.52,0,6.37-.84,8.56-2.53,2.2-1.68,3.72-4.42,4.58-8.21-1.73,1.2-3.54,2.06-5.43,2.57-1.89.51-3.83.77-5.82.77M539.67,185.62c-4.55,0-8.84.62-12.74,1.84-4.09,1.26-7.68,3.13-10.67,5.52-3.13,2.48-5.61,5.57-7.35,9.16-1.73,3.55-2.6,7.5-2.6,11.74,0,3.89.75,7.49,2.23,10.69,1.16,2.52,2.73,4.78,4.67,6.75-1.04,1.19-1.76,2.63-2.03,4.26l-3.16,17.31,5.18,2.82c1.95,1.05,4.13,1.92,6.48,2.56,1.98.54,4.04.98,6.13,1.31,1.99.31,3.97.54,5.89.68,1.93.14,3.65.21,5.18.21,6.96,0,13.02-1.23,18.04-3.66,4.97-2.41,9.04-5.69,12.09-9.71,2.88-3.8,4.96-8.17,6.16-12.96,1.11-4.4,1.66-8.99,1.66-13.65,0-10.55-2.98-19.01-8.86-25.13-6.18-6.44-15.04-9.71-26.31-9.71"/>
            <path class="cls-4" d="M540.51,216.58c-2.46,0-4.31-.62-5.57-1.85-1.26-1.23-1.89-2.72-1.89-4.46s.66-3.38,1.99-4.74c1.32-1.35,3.11-2.02,5.37-2.02,2.85,0,4.91.75,6.17,2.25,1.26,1.5,2.09,3.43,2.48,5.78-.93,1.98-2.2,3.32-3.82,4.01-1.63.69-3.2,1.04-4.73,1.04M540.12,190.51c-3.58,0-6.87.47-9.86,1.39-2.99.94-5.55,2.26-7.71,3.97-2.16,1.71-3.85,3.83-5.08,6.36-1.22,2.52-1.84,5.35-1.84,8.47,0,2.83.51,5.36,1.54,7.58,1.03,2.23,2.48,4.1,4.38,5.64,1.89,1.53,4.16,2.71,6.81,3.52,2.65.81,5.61,1.22,8.86,1.22,1.99,0,3.93-.25,5.82-.77,1.89-.51,3.7-1.37,5.43-2.57-.86,3.78-2.39,6.53-4.58,8.21-2.19,1.69-5.04,2.53-8.56,2.53-1.59,0-3.17-.16-4.73-.5-1.56-.33-2.97-.69-4.23-1.08s-2.34-.75-3.24-1.08c-.89-.33-1.5-.5-1.84-.5-.53,0-.83.24-.9.72l-2.19,12c1.32.73,2.82,1.31,4.48,1.76,1.66.45,3.35.81,5.08,1.08,1.72.28,3.41.47,5.08.59,1.66.12,3.15.18,4.47.18,5.51,0,10.12-.9,13.84-2.7,3.71-1.81,6.7-4.2,8.95-7.18,2.25-2.97,3.86-6.37,4.82-10.19s1.45-7.77,1.45-11.86c0-8.61-2.23-15.22-6.67-19.85-4.45-4.63-10.99-6.95-19.61-6.95"/>
            <path class="cls-36" d="M1636.97,493.24c-.86,0-1.48-.15-1.85-.45-.36-.3-.61-.69-.75-1.17l-2.09-10.55,17.51-34.37c.33-.48.68-.82,1.05-1.04.36-.21,1.21-.32,2.54-.32h12.93c1.4,0,2.36.12,2.89.36.53.24.79.64.79,1.17l-18.11,34.19h9.95v-14.26c0-.54.24-.93.74-1.17.5-.24,1.48-.36,2.94-.36h10.15c1.32,0,2.27.12,2.84.36.56.24.85.64.85,1.17v14.26h3.09c1.32,0,2.22.11,2.68.36.47.24.7.63.7,1.17l-1.99,10.64h-4.48v7.13c0,.48-.29.84-.85,1.08-.57.24-1.51.36-2.84.36h-10.15c-1.47,0-2.44-.12-2.94-.36-.49-.24-.74-.6-.74-1.08v-7.13h-24.89M1666.46,440.51h-13.6c-2.36,0-5.11.19-7.74,1.68-1.53.91-2.86,2.15-3.93,3.7l-20.2,39.49,2.72,13.71.14.54c.58,2.16,1.84,4.06,3.54,5.44,1.48,1.23,4.12,2.69,8.23,2.69h16.86c.35,3.26,2.43,6.08,5.64,7.61,2.53,1.24,5.35,1.39,7.52,1.39h10.67c2.84,0,5.07-.38,6.95-1.17,3.52-1.5,5.83-4.45,6.19-7.83h3.32l3.41-18.23.13-1.41c0-3.59-2.01-6.79-5.45-8.6-.43-.22-.87-.42-1.34-.59v-7.41c0-3.83-2.39-7.23-6.28-8.91-1.89-.8-4.09-1.17-6.92-1.17h-1.37l4.74-8.94v-1.93c0-3.74-2.29-7.1-6.02-8.81-1.93-.88-4.15-1.26-7.19-1.26"/>
            <path class="cls-4" d="M1666.33,445.34h-12.93c-1.33,0-2.18.11-2.54.32-.37.21-.72.55-1.05,1.04l-17.51,34.37,2.09,10.55c.14.49.39.87.75,1.17.37.3.98.45,1.85.45h24.89v7.13c0,.48.24.84.74,1.08.5.24,1.48.36,2.94.36h10.15c1.32,0,2.27-.12,2.84-.36.56-.24.85-.6.85-1.08v-7.13h4.48l1.99-10.64c0-.54-.23-.93-.7-1.17-.46-.24-1.36-.36-2.68-.36h-3.09v-14.26c0-.54-.29-.93-.85-1.17-.57-.24-1.51-.36-2.84-.36h-10.15c-1.47,0-2.44.12-2.94.36-.49.24-.74.64-.74,1.17v14.26h-9.95l18.11-34.19c0-.54-.26-.93-.79-1.17-.53-.24-1.49-.36-2.89-.36"/>
            <path class="cls-36" d="M1024.54,468.29c-.67,0-1.04-.3-1.1-.91l-2.79-15.78c1.06-1.14,2.36-2.23,3.89-3.25,1.52-1.03,3.25-1.91,5.17-2.67,1.92-.75,3.98-1.35,6.17-1.8,2.2-.45,4.45-.68,6.77-.68,4.18,0,7.67.5,10.45,1.49,2.79.99,5.03,2.32,6.72,3.96,1.69,1.66,2.9,3.56,3.64,5.73.73,2.16,1.09,4.41,1.09,6.76s-.73,4.8-2.19,7.17-3.29,4.67-5.47,6.86c-2.2,2.19-4.58,4.23-7.17,6.13-2.58,1.89-5,3.56-7.26,5h12.84l2.29-6.67h10.45c.67,0,1.13.23,1.4.68.26.45.4,1.25.4,2.39v16.6c0,.48-.26.84-.79,1.08-.53.24-1.49.36-2.89.36h-40.21c-1.59,0-2.48-.57-2.68-1.71l-2.29-12.72c2.26-1.44,4.83-3.12,7.72-5.05,2.88-1.92,5.57-3.91,8.06-5.95,2.49-2.04,4.6-4.05,6.33-5.99,1.72-1.96,2.58-3.71,2.58-5.28s-.53-2.75-1.59-3.56-2.56-1.22-4.48-1.22c-2.32,0-4.64.8-6.97,2.39-2.32,1.59-4.45,3.48-6.36,5.64-.6.66-1.17,1-1.69,1M1041.97,438c-2.99,0-5.93.29-8.74.86-2.71.56-5.31,1.32-7.72,2.27-2.54.99-4.87,2.19-6.95,3.58-2.07,1.39-3.88,2.92-5.38,4.53l-2.63,2.82,3.4,19.28c.54,3.65,3.28,6.48,6.98,7.46-2.11,1.4-4.05,2.67-5.78,3.78l-4.55,2.9,3.19,17.66c.89,5.09,5.5,8.51,11.46,8.51h40.21c2.89,0,4.99-.37,6.9-1.22,3.49-1.61,5.67-4.77,5.67-8.28v-16.59c0-2.54-.45-4.49-1.43-6.17-1.45-2.46-3.94-4.14-6.89-4.72,2.03-3.45,3.05-7.03,3.05-10.67,0-3.12-.5-6.19-1.48-9.11-1.13-3.34-3.02-6.31-5.62-8.86-2.61-2.54-5.97-4.56-9.98-5.98-3.86-1.38-8.35-2.05-13.7-2.05"/>
            <path class="cls-4" d="M1042.65,443.21c-2.32,0-4.57.23-6.77.68-2.19.45-4.25,1.05-6.17,1.8-1.93.76-3.65,1.64-5.17,2.67-1.53,1.02-2.83,2.1-3.89,3.25l2.79,15.78c.06.6.43.91,1.1.91.52,0,1.09-.33,1.69-1,1.92-2.16,4.04-4.05,6.36-5.64,2.32-1.59,4.64-2.39,6.97-2.39,1.93,0,3.42.4,4.48,1.22s1.59,2,1.59,3.56-.86,3.32-2.58,5.28c-1.73,1.95-3.83,3.96-6.33,5.99-2.48,2.05-5.18,4.03-8.06,5.95-2.89,1.93-5.46,3.61-7.72,5.05l2.29,12.72c.2,1.14,1.09,1.71,2.68,1.71h40.21c1.39,0,2.36-.12,2.89-.36.53-.24.79-.6.79-1.08v-16.6c0-1.14-.14-1.94-.4-2.39-.26-.45-.73-.68-1.4-.68h-10.45l-2.29,6.67h-12.84c2.26-1.44,4.68-3.11,7.26-5,2.59-1.9,4.98-3.94,7.17-6.13,2.19-2.19,4.01-4.49,5.47-6.86s2.19-4.76,2.19-7.17-.36-4.6-1.09-6.76c-.74-2.17-1.94-4.08-3.64-5.73-1.69-1.65-3.93-2.98-6.72-3.96-2.78-.99-6.26-1.49-10.45-1.49"/>
            <path class="cls-36" d="M827.58,748.69c-1.52,0-2.55-.13-3.09-.4-.55-.26-.82-.65-.82-1.17v-25.17c0-.52.27-.91.82-1.17.54-.26,1.57-.4,3.09-.4h49.57c2.02,0,3.04.6,3.04,1.77v12.68l-26.58,45.52c-.29.52-.64.91-1.03,1.17-.4.27-1.35.39-2.87.39h-15.62c-1.52,0-2.57-.12-3.14-.39-.59-.26-.87-.65-.87-1.17l27.13-42.96h-14.65l-3.25,11.31h-11.72M877.15,714.39h-49.56c-3.46,0-5.99.47-8.23,1.56-4.12,1.99-6.59,5.69-6.59,9.89v25.16c0,4.15,2.54,7.95,6.57,9.89,2.86,1.38,5.9,1.56,8.24,1.56h3.68l-10.65,16.87c-.95,1.5-1.44,3.19-1.44,4.91,0,4.27,2.65,8.11,6.87,10.01,2.19,1,4.68,1.44,8.05,1.44h15.61c2.72,0,6.23-.26,9.28-2.28,1.78-1.17,3.23-2.73,4.3-4.63l26.54-45.43c.83-1.43,1.26-3.02,1.26-4.62v-12.68c0-5.79-4.8-11.65-13.94-11.65"/>
            <path class="cls-4" d="M877.15,720.37h-49.57c-1.52,0-2.55.14-3.09.4-.55.26-.82.65-.82,1.17v25.17c0,.52.27.91.82,1.17.54.27,1.57.4,3.09.4h11.72l3.25-11.31h14.65l-27.13,42.96c0,.52.29.91.87,1.17.58.27,1.62.39,3.14.39h15.62c1.52,0,2.48-.12,2.87-.39.4-.26.75-.65,1.03-1.17l26.58-45.52v-12.68c0-1.17-1.02-1.77-3.04-1.77"/>
            <path class="cls-36" d="M1627.5,588.36c-1.4,0-2.57.18-3.54.55-.96.36-1.76.82-2.39,1.39-.63.57-1.1,1.22-1.4,1.94-.3.72-.45,1.47-.45,2.25,0,1.57.6,2.99,1.79,4.29,1.2,1.29,3.19,1.93,5.98,1.93s4.78-.64,5.97-1.93c1.2-1.3,1.8-2.72,1.8-4.29,0-.78-.15-1.53-.45-2.25-.3-.73-.77-1.37-1.4-1.94-.63-.57-1.43-1.04-2.39-1.39-.96-.37-2.14-.55-3.54-.55M1627.5,566.26c-1.66,0-3.15.36-4.48,1.09-1.32.72-1.99,2.04-1.99,3.96s.67,3.25,1.99,3.97c1.33.72,2.83,1.08,4.48,1.08s3.15-.36,4.48-1.08c1.32-.73,1.99-2.05,1.99-3.97s-.67-3.25-1.99-3.96c-1.33-.73-2.83-1.09-4.48-1.09M1627.5,612.71c-3.78,0-7.25-.34-10.4-1.04-3.15-.69-5.87-1.77-8.16-3.25-2.29-1.48-4.06-3.35-5.32-5.64s-1.89-5.02-1.89-8.21c0-1.26.2-2.52.59-3.78s.96-2.46,1.69-3.61c.73-1.14,1.59-2.19,2.59-3.16.99-.95,2.09-1.74,3.28-2.34-1.66-1.32-3.04-2.87-4.13-4.65-1.1-1.77-1.65-3.68-1.65-5.73,0-5.35,1.97-9.56,5.92-12.63,3.95-3.07,9.77-4.6,17.47-4.6s13.52,1.53,17.47,4.6c3.94,3.07,5.92,7.28,5.92,12.63,0,2.05-.55,3.96-1.65,5.73-1.09,1.78-2.47,3.33-4.13,4.65,1.2.6,2.29,1.39,3.28,2.34,1,.96,1.86,2.01,2.59,3.16.73,1.15,1.3,2.35,1.69,3.61s.59,2.52.59,3.78c0,3.19-.63,5.93-1.89,8.21s-3.03,4.16-5.33,5.64c-2.29,1.48-5,2.55-8.15,3.25-3.16.69-6.62,1.04-10.4,1.04M1627.36,549.24c-9.85,0-17.67,2.2-23.24,6.53-5.91,4.58-9.04,11.06-9.04,18.75,0,3.39.93,6.62,2.74,9.58-.59.73-1.13,1.48-1.64,2.26-1.09,1.7-1.94,3.53-2.55,5.44-.62,1.98-.94,4-.94,6,0,4.43.95,8.4,2.83,11.81,1.91,3.47,4.64,6.36,8.14,8.6,3.2,2.07,6.97,3.58,11.21,4.51,3.83.84,8.03,1.26,12.49,1.26s8.66-.42,12.49-1.26c4.24-.93,8.01-2.44,11.21-4.51,3.48-2.23,6.21-5.13,8.14-8.6,1.86-3.41,2.83-7.38,2.83-11.81,0-1.99-.31-4.01-.94-6.01-.6-1.89-1.46-3.72-2.56-5.43-.49-.78-1.04-1.53-1.63-2.25,1.81-2.96,2.74-6.18,2.74-9.58,0-7.68-3.12-14.17-9.04-18.74-5.58-4.34-13.41-6.54-23.25-6.54"/>
            <path class="cls-4" d="M1627.5,600.71c-2.79,0-4.78-.64-5.98-1.93-1.19-1.3-1.79-2.72-1.79-4.29,0-.78.15-1.53.45-2.25.3-.73.77-1.37,1.4-1.94.63-.57,1.42-1.04,2.39-1.39.96-.37,2.14-.55,3.54-.55s2.57.18,3.54.55c.95.36,1.76.82,2.39,1.39.63.57,1.1,1.22,1.4,1.94.3.72.45,1.47.45,2.25,0,1.57-.6,2.99-1.8,4.29-1.19,1.29-3.18,1.93-5.97,1.93M1627.5,576.36c-1.66,0-3.15-.36-4.48-1.08-1.32-.73-1.99-2.05-1.99-3.97s.67-3.25,1.99-3.96c1.33-.73,2.83-1.09,4.48-1.09s3.15.36,4.48,1.09c1.32.72,1.99,2.04,1.99,3.96s-.67,3.25-1.99,3.97c-1.33.72-2.83,1.08-4.48,1.08M1627.5,554.08c-7.69,0-13.52,1.53-17.47,4.6-3.95,3.07-5.92,7.28-5.92,12.63,0,2.05.55,3.96,1.65,5.73,1.09,1.78,2.47,3.33,4.13,4.65-1.2.6-2.29,1.39-3.28,2.34-1,.96-1.86,2.01-2.59,3.16-.73,1.15-1.3,2.35-1.69,3.61s-.59,2.52-.59,3.78c0,3.19.63,5.93,1.89,8.21s3.03,4.16,5.32,5.64c2.3,1.48,5.01,2.55,8.16,3.25,3.15.69,6.62,1.04,10.4,1.04s7.24-.34,10.4-1.04c3.15-.69,5.87-1.77,8.15-3.25,2.3-1.48,4.07-3.35,5.33-5.64s1.89-5.02,1.89-8.21c0-1.26-.2-2.52-.59-3.78s-.96-2.46-1.69-3.61c-.73-1.14-1.59-2.19-2.59-3.16-.99-.95-2.09-1.74-3.28-2.34,1.66-1.32,3.04-2.87,4.13-4.65,1.1-1.77,1.65-3.68,1.65-5.73,0-5.35-1.98-9.56-5.92-12.63-3.95-3.07-9.77-4.6-17.47-4.6"/>
            <path class="cls-36" d="M740.42,403.13c-.78,0-1.32-.26-1.63-.79-.32-.53-.47-1.46-.47-2.79v-19.09c0-.64.29-1.09.87-1.37.59-.28,1.68-.42,3.31-.42h46.19c2.1,0,3.14.64,3.14,1.9v10.86l-13.84,14.76c5.66,1.34,9.77,3.67,12.33,7.01,2.56,3.34,3.84,6.95,3.84,10.81,0,2.95-.55,5.77-1.63,8.43-1.09,2.68-2.8,5.02-5.12,7.02-2.33,2.01-5.34,3.61-9.02,4.8-3.68,1.2-8.13,1.79-13.32,1.79-1.93,0-4.15-.11-6.63-.32s-5-.55-7.56-1c-2.56-.45-5.08-1.1-7.56-1.95-2.48-.84-4.7-1.89-6.63-3.16l2.91-16.13c.08-.49.42-.74,1.05-.74.31,0,.69.11,1.16.32,2.94,1.69,6.1,3.16,9.48,4.43,3.38,1.26,6.89,1.9,10.53,1.9,1.24,0,2.5-.12,3.78-.38,1.28-.24,2.42-.61,3.44-1.1,1-.5,1.82-1.11,2.44-1.85.62-.73.93-1.59.93-2.58,0-2.11-1.1-3.56-3.31-4.38-2.21-.81-4.99-1.21-8.32-1.21h-3.73l-1.86-8.75,13.73-13.81h-13.62l-2.67,7.8h-12.21M790.04,372.47h-48.51c-3.57,0-6.15.47-8.4,1.56-4.02,1.95-6.43,5.6-6.43,9.78v20.04c0,3.04.54,5.39,1.7,7.37,2.15,3.66,6.24,5.85,10.93,5.85h5.56l.65,3.04-.07-.02c-1.95-.89-3.92-1.34-5.9-1.34-5.75,0-10.53,3.68-11.4,8.76l-3.04,16.89c-.64,3.53.98,7.1,4.2,9.2,2.77,1.81,5.92,3.32,9.39,4.5,3.13,1.06,6.36,1.89,9.6,2.47,3.01.53,6.04.93,8.97,1.19,2.92.24,5.58.37,7.94.37,6.63,0,12.53-.82,17.51-2.44,5.24-1.69,9.66-4.07,13.14-7.09,2.9-2.49,5.2-5.36,6.88-8.56-.32-.43-.63-.87-.94-1.31-2.93-4.32-4.99-9.1-6.11-14.21-1.02-4.62-1.54-9.09-1.54-13.28s.52-8.68,1.54-13.3c1.13-5.12,3.2-9.91,6.11-14.21.61-.9,1.26-1.76,1.95-2.6v-1.23c0-5.7-4.72-11.45-13.73-11.45"/>
            <path class="cls-4" d="M788.7,378.67h-46.19c-1.63,0-2.73.15-3.31.42-.58.28-.87.73-.87,1.37v19.09c0,1.33.15,2.26.47,2.79.31.53.85.79,1.63.79h12.21l2.67-7.8h13.62l-13.73,13.81,1.86,8.75h3.73c3.33,0,6.1.4,8.32,1.21,2.21.82,3.31,2.27,3.31,4.38,0,.99-.31,1.84-.93,2.58-.62.74-1.44,1.35-2.44,1.85-1.02.49-2.16.86-3.44,1.1-1.28.25-2.54.38-3.78.38-3.65,0-7.16-.64-10.53-1.9-3.38-1.26-6.53-2.74-9.48-4.43-.47-.21-.85-.32-1.16-.32-.63,0-.97.25-1.05.74l-2.91,16.13c1.93,1.26,4.15,2.32,6.63,3.16,2.48.85,5,1.5,7.56,1.95,2.56.46,5.08.79,7.56,1s4.7.32,6.63.32c5.19,0,9.64-.6,13.32-1.79,3.68-1.19,6.69-2.79,9.02-4.8,2.32-2,4.03-4.34,5.12-7.02,1.08-2.67,1.63-5.48,1.63-8.43,0-3.86-1.29-7.46-3.84-10.81-2.56-3.34-6.67-5.67-12.33-7.01l13.84-14.76v-10.86c0-1.26-1.04-1.9-3.14-1.9"/>
            <path class="cls-36" d="M835.39,394.31c-1.56,0-2.95.46-4.19,1.37-1.24.91-2.29,2.16-3.14,3.74-.85,1.58-1.51,3.41-1.98,5.49-.46,2.07-.69,4.27-.69,6.58s.23,4.52.69,6.59c.47,2.07,1.12,3.9,1.98,5.48.86,1.58,1.9,2.83,3.14,3.74,1.24.91,2.64,1.37,4.19,1.37s2.94-.46,4.18-1.37c1.24-.91,2.29-2.16,3.14-3.74s1.51-3.41,1.98-5.48c.46-2.07.69-4.27.69-6.59s-.23-4.51-.69-6.58c-.47-2.08-1.12-3.91-1.98-5.49-.85-1.58-1.9-2.83-3.14-3.74s-2.64-1.37-4.18-1.37M835.39,445.76c-6.21,0-11.3-1.1-15.3-3.32-4-2.21-7.14-5.01-9.42-8.38-2.29-3.38-3.88-7.08-4.77-11.13s-1.34-7.85-1.34-11.44.45-7.4,1.34-11.44c.89-4.05,2.47-7.75,4.77-11.13,2.29-3.38,5.43-6.17,9.42-8.39,4-2.21,9.09-3.32,15.3-3.32s11.29,1.11,15.29,3.32c4,2.22,7.14,5.01,9.42,8.39s3.88,7.08,4.77,11.13c.89,4.04,1.34,7.85,1.34,11.44s-.45,7.4-1.34,11.44-2.48,7.75-4.77,11.13c-2.29,3.37-5.43,6.17-9.42,8.38-4,2.22-9.09,3.32-15.29,3.32M835.39,371.57c-8.11,0-15.08,1.57-20.72,4.7-4.35,2.41-8,5.4-10.9,8.89-.7.84-1.35,1.7-1.95,2.6-2.92,4.3-4.98,9.09-6.11,14.21-1.02,4.62-1.54,9.09-1.54,13.3s.52,8.65,1.54,13.28c1.12,5.11,3.18,9.89,6.11,14.21.3.44.61.88.94,1.31,3.05,4.06,7.05,7.47,11.92,10.18,5.63,3.12,12.6,4.7,20.72,4.7s15.08-1.57,20.72-4.7c5.38-2.99,9.69-6.84,12.85-11.49,2.92-4.31,4.98-9.09,6.1-14.21,1.03-4.63,1.54-9.1,1.54-13.27s-.51-8.65-1.54-13.29c-1.13-5.13-3.18-9.9-6.1-14.21-3.14-4.63-7.47-8.5-12.85-11.5-5.63-3.12-12.62-4.69-20.72-4.69"/>
            <path class="cls-4" d="M835.39,428.68c-1.56,0-2.95-.46-4.19-1.37-1.24-.91-2.29-2.16-3.14-3.74-.85-1.58-1.51-3.41-1.98-5.48-.46-2.07-.69-4.27-.69-6.59s.23-4.51.69-6.58c.47-2.08,1.12-3.91,1.98-5.49.86-1.58,1.9-2.83,3.14-3.74,1.24-.91,2.64-1.37,4.19-1.37s2.94.46,4.18,1.37,2.29,2.16,3.14,3.74c.85,1.58,1.51,3.41,1.98,5.49.46,2.07.69,4.27.69,6.58s-.23,4.52-.69,6.59c-.47,2.07-1.12,3.9-1.98,5.48s-1.9,2.83-3.14,3.74c-1.24.91-2.64,1.37-4.18,1.37M835.39,377.23c-6.21,0-11.3,1.11-15.3,3.32-4,2.22-7.14,5.01-9.42,8.39-2.29,3.38-3.88,7.08-4.77,11.13-.89,4.04-1.34,7.85-1.34,11.44s.45,7.4,1.34,11.44,2.47,7.75,4.77,11.13c2.29,3.37,5.43,6.17,9.42,8.38,4,2.22,9.09,3.32,15.3,3.32s11.29-1.1,15.29-3.32c4-2.21,7.14-5.01,9.42-8.38,2.29-3.38,3.88-7.08,4.77-11.13s1.34-7.85,1.34-11.44-.45-7.4-1.34-11.44c-.89-4.05-2.48-7.75-4.77-11.13s-5.43-6.17-9.42-8.39c-4-2.21-9.09-3.32-15.29-3.32"/>
            <path class="cls-36" d="M608.24,501.83h-39.74c-2.92,0-5.04.38-6.88,1.27-2.62,1.27-4.4,3.41-5.03,5.95.24.76.37,1.57.37,2.4v20.43c.2.61.46,1.17.77,1.7,1.76,3,5.11,4.8,8.96,4.8h4.55l.54,2.49-.06-.02c-1.6-.73-3.22-1.09-4.83-1.09-3.42,0-6.42,1.58-8.08,4.05h7.89l.52,2.88.22-1.21c.07-.42.37-.64.9-.64.26,0,.59.09,1,.28,2.52,1.44,5.22,2.7,8.11,3.78,2.89,1.08,5.89,1.62,9.01,1.62,1.06,0,2.13-.11,3.23-.32,1.1-.2,2.07-.52,2.93-.95.86-.42,1.57-.95,2.1-1.57.53-.64.79-1.37.79-2.21,0-1.8-.95-3.05-2.83-3.74-1.89-.69-4.27-1.04-7.12-1.04h-3.19l-1.59-7.49,11.74-11.82h-11.65l-2.29,6.67h-10.45c-.67,0-1.13-.22-1.4-.67-.27-.46-.4-1.25-.4-2.4v-16.32c0-.55.24-.93.75-1.17.49-.24,1.44-.36,2.83-.36h39.51c1.79,0,2.69.54,2.69,1.62v9.29l-11.84,12.63c4.84,1.14,8.36,3.14,10.55,6,2.19,2.85,3.28,5.94,3.28,9.24,0,2.53-.47,4.93-1.39,7.22s-2.39,4.28-4.37,6c-2,1.71-4.56,3.08-7.71,4.1-3.16,1.03-6.96,1.53-11.4,1.53-1.66,0-3.55-.09-5.67-.27-2.12-.18-4.28-.46-6.47-.86-2.19-.39-4.35-.95-6.47-1.66-.23-.08-.46-.16-.69-.24l.45,2.51v.6c0,2.94-1.55,5.58-4.17,7.16,2.56.87,5.19,1.54,7.84,2.02,2.48.43,4.95.76,7.35.97,2.39.2,4.58.3,6.51.3,5.44,0,10.26-.67,14.35-2,4.28-1.39,7.9-3.34,10.76-5.81,2.94-2.53,5.15-5.55,6.53-8.96,1.29-3.15,1.93-6.49,1.93-9.93,0-4.93-1.63-9.54-4.83-13.72-1.16-1.52-2.53-2.87-4.12-4.06l4.91-5.24c1.31-1.4,2.03-3.18,2.03-5.02v-9.34c0-4.67-3.86-9.38-11.25-9.38"/>
            <path class="cls-36" d="M520.88,521.55c-1.32,0-2.22-.12-2.68-.36-.47-.24-.7-.64-.7-1.17l2.49-13.8h25.28c1.32,0,2.27.12,2.84.36.57.24.85.64.85,1.17v39.6h10.94l2.49,13.8c0,.54-.23.93-.7,1.17-.46.24-1.36.37-2.68.37h-39.11c-1.33,0-2.22-.12-2.69-.37-.46-.24-.69-.63-.69-1.17l2.48-13.8h10.95v-25.8h-9.06M545.27,502.65h-32.08l-3.68,20.47v.59c0,3.16,1.76,5.95,4.72,7.47,2.25,1.17,4.74,1.31,6.66,1.31h1.06v11.31h-9.75l-3.69,20.45v.6c0,3.15,1.77,5.95,4.71,7.46,2.26,1.18,4.75,1.33,6.67,1.33h39.12c1.91,0,4.4-.15,6.63-1.31.19-.1.38-.21.57-.32,2.63-1.58,4.17-4.21,4.17-7.16v-.6l-.45-2.51c-1.85-.68-3.51-1.5-4.98-2.46l2.27-12.59-.52-2.88h-9.74v-32.35c0-.83-.13-1.63-.37-2.4-.74-2.32-2.55-4.26-5.09-5.34-1.67-.72-3.65-1.05-6.23-1.05"/>
            <path class="cls-4" d="M545.27,506.22h-25.28l-2.49,13.8c0,.54.23.93.7,1.17.46.24,1.36.36,2.68.36h9.06v25.8h-10.95l-2.48,13.8c0,.54.23.93.69,1.17.47.24,1.36.37,2.69.37h39.11c1.32,0,2.22-.12,2.68-.37.47-.24.7-.63.7-1.17l-2.49-13.8h-10.94v-39.6c0-.54-.28-.93-.85-1.17-.57-.24-1.51-.36-2.84-.36"/>
            <path class="cls-4" d="M609.44,507.13h-39.51c-1.39,0-2.34.12-2.83.36-.5.24-.75.63-.75,1.17v16.32c0,1.15.13,1.94.4,2.4.26.45.73.67,1.4.67h10.45l2.29-6.67h11.65l-11.74,11.82,1.59,7.49h3.19c2.85,0,5.23.34,7.12,1.04,1.89.69,2.83,1.94,2.83,3.74,0,.84-.26,1.57-.79,2.21-.53.63-1.23,1.16-2.1,1.57-.86.42-1.84.74-2.93.95-1.1.21-2.17.32-3.23.32-3.12,0-6.12-.54-9.01-1.62-2.89-1.09-5.59-2.35-8.11-3.78-.4-.19-.74-.28-1-.28-.53,0-.83.21-.9.64l-.22,1.21-2.27,12.59c1.48.97,3.14,1.78,4.98,2.46.23.08.46.17.69.24,2.12.72,4.28,1.27,6.47,1.66,2.19.39,4.35.68,6.47.86,2.12.18,4.01.27,5.67.27,4.45,0,8.24-.51,11.4-1.53,3.15-1.02,5.72-2.39,7.71-4.1,1.99-1.71,3.45-3.71,4.37-6s1.39-4.69,1.39-7.22c0-3.3-1.1-6.39-3.28-9.24-2.19-2.86-5.71-4.86-10.55-6l11.84-12.63v-9.29c0-1.09-.9-1.62-2.69-1.62"/>
          </g>
        </g>
      </g>
    </g>
  </g>
</svg>