<?xml version="1.0" encoding="UTF-8"?>
<svg id="Layer_2" data-name="Layer 2" xmlns="http://www.w3.org/2000/svg" xmlns:xlink="http://www.w3.org/1999/xlink" viewBox="0 0 540 298.12">
  <defs>
    <style>
      .cls-1 {
        clip-path: url(#clippath-11);
      }

      .cls-2 {
        fill: #93642d;
      }

      .cls-3 {
        fill: #fab265;
      }

      .cls-4 {
        fill: #956b3a;
      }

      .cls-5 {
        fill: #97672c;
      }

      .cls-6 {
        fill: #976d3b;
      }

      .cls-7 {
        fill: #94652d;
      }

      .cls-8 {
        fill: #fbb365;
      }

      .cls-9 {
        fill: #f9a84f;
      }

      .cls-10 {
        clip-path: url(#clippath-2);
      }

      .cls-11 {
        isolation: isolate;
      }

      .cls-12 {
        fill: #faa94f;
      }

      .cls-13 {
        fill: #97682f;
      }

      .cls-14 {
        clip-path: url(#clippath-6);
      }

      .cls-15 {
        clip-path: url(#clippath-7);
      }

      .cls-16 {
        fill: #98682f;
      }

      .cls-17 {
        clip-path: url(#clippath-1);
      }

      .cls-18 {
        clip-path: url(#clippath-4);
      }

      .cls-19 {
        fill: #96662b;
      }

      .cls-20 {
        fill: #976c3b;
      }

      .cls-21 {
        fill: #4b6496;
      }

      .cls-22 {
        fill: #987041;
      }

      .cls-23 {
        fill: #fbb76d;
      }

      .cls-24 {
        fill: #996930;
      }

      .cls-25 {
        fill: #fcb76e;
      }

      .cls-26 {
        fill: #98672c;
      }

      .cls-27 {
        fill: #4b6596;
      }

      .cls-28 {
        fill: #94642a;
      }

      .cls-29 {
        clip-path: url(#clippath-9);
      }

      .cls-30 {
        fill: #9b6f3d;
      }

      .cls-31 {
        clip-path: url(#clippath);
      }

      .cls-32 {
        fill: #f69320;
      }

      .cls-33 {
        fill: #92632a;
      }

      .cls-34 {
        fill: none;
      }

      .cls-35 {
        fill: #966b3b;
      }

      .cls-36 {
        fill: #91632c;
      }

      .cls-37 {
        clip-path: url(#clippath-3);
      }

      .cls-38 {
        fill: #926839;
      }

      .cls-39 {
        clip-path: url(#clippath-8);
      }

      .cls-40 {
        fill: #ffe6b2;
      }

      .cls-41 {
        fill: #986d3c;
      }

      .cls-42 {
        fill: #ffe7b3;
      }

      .cls-43 {
        fill: #956a3a;
      }

      .cls-44 {
        fill: #95652b;
      }

      .cls-45 {
        clip-path: url(#clippath-5);
      }

      .cls-46 {
        fill: #93642a;
      }

      .cls-47 {
        fill: #fcb31a;
      }

      .cls-48 {
        fill: #955906;
      }

      .cls-49 {
        fill: #94652b;
      }

      .cls-50 {
        clip-path: url(#clippath-10);
      }

      .cls-51 {
        fill: #8f5503;
      }

      .cls-52 {
        fill: #faab53;
      }

      .cls-53 {
        fill: #95662e;
      }

      .cls-54 {
        fill: #9c703e;
      }

      .cls-55 {
        fill: #93632a;
      }
    </style>
    <clipPath id="clippath">
      <rect class="cls-34" x="0" y="13.97" width="540" height="270.18"/>
    </clipPath>
    <clipPath id="clippath-1">
      <path class="cls-34" d="M168.87,60.2v7.61c-.15,.01-3.1,.26-3.19,.61-.1,.35-.28,5.6-.29,5.88v-7.61c0-.28,.19-5.53,.29-5.88,.1-.35,3.04-.6,3.19-.61Z"/>
    </clipPath>
    <clipPath id="clippath-2">
      <path class="cls-34" d="M521.44,151.52v3.38c-.11,.15-2.23,2.99-2.23,3.28v-3.38c0-.29,2.12-3.13,2.23-3.28Z"/>
    </clipPath>
    <clipPath id="clippath-3">
      <path class="cls-34" d="M212.5,189.2v8.45c-.39-.05-7.89-.94-8.08-1.28-.19-.33-1.8-3.18-1.89-3.33v-8.45c.09,.15,1.7,2.99,1.89,3.33,.19,.34,7.69,1.23,8.08,1.28Z"/>
    </clipPath>
    <clipPath id="clippath-4">
      <rect class="cls-34" x="275.07" y="92.32" width="98.59" height="55.33"/>
    </clipPath>
    <clipPath id="clippath-5">
      <rect class="cls-34" x="314.83" y="114.62" width="58.82" height="73.67"/>
    </clipPath>
    <clipPath id="clippath-6">
      <rect class="cls-34" x="377.3" y="86.47" width="45.65" height="50.48"/>
    </clipPath>
    <clipPath id="clippath-7">
      <rect class="cls-34" x="6.29" y="92.72" width="113.09" height="68.74"/>
    </clipPath>
    <clipPath id="clippath-8">
      <rect class="cls-34" x="162.44" y="12.27" width="62.32" height="28.11"/>
    </clipPath>
    <clipPath id="clippath-9">
      <rect class="cls-34" x="212.62" y="172.14" width="47.54" height="90.88"/>
    </clipPath>
    <clipPath id="clippath-10">
      <rect class="cls-34" x="82.71" y="44.42" width="394.47" height="179.61"/>
    </clipPath>
    <clipPath id="clippath-11">
      <rect class="cls-34" x="85.63" y="45.23" width="389.33" height="175.57"/>
    </clipPath>
  </defs>
  <g id="Layer_2-2" data-name="Layer 2">
    <g>
      <g class="cls-11">
        <g class="cls-31">
          <path class="cls-21" d="M219.59,13.97c-.18,0-.36,0-.54,.02l-33.8,2.34c-1.13,.08-2.22,.41-3.19,.95l-18,10.28c-.85,.48-1.58,1.14-2.14,1.91l-4.36,6.09-2.05,2.1-28.28,17.76c-1.04,.64-1.85,1.54-2.38,2.57l-4.03,7.98-.83,.66h-8.33c-3.95,0-5.67,1.96-11.38,9.05l-12.06,7.26-30.96,2.68c-1.49,.12-2.91,.69-4.03,1.61l-6.59,5.39-3.29,2.74c-.13,.11-.25,.23-.38,.34l-9.4,9.09-29.2,10.79c-1.72,.64-3.1,1.88-3.83,3.45-.71,1.57-.71,3.33,.02,4.89l1.04,2.24c1.1,2.37,3.65,3.9,6.44,3.9,.23,0,.48-.02,.7-.04l.92-.07c.88,.85,2.04,1.48,3.38,1.79l.56,.13c1.12,1.03,2.57,1.68,4.16,1.86l1.62,3.17,3.45,7.84,.31,2.5c.32,2.56,2.31,4.7,5.06,5.39l81.87,21.04,.08,.02,6.37,2.83,3.03,1.92c.1,.07,.18,.11,.28,.17l13.55,7.76c1.12,.65,2.42,1,3.73,1h.23c.86,.34,1.82,.51,2.78,.51,.58,0,1.15-.06,1.72-.19h.06c.82,.36,1.73,.59,2.67,.64l.91,.05,2.39,1.83c1.27,.96,2.86,1.48,4.5,1.48,.35,0,.7-.02,1.05-.07,1.56-.22,2.98-.91,4.04-1.92,.52-.11,1.04-.27,1.51-.48,1.3,1.15,3.07,1.79,4.88,1.79,.43,0,.85-.04,1.29-.11l1.83,.8c.95,.41,1.98,.61,3.01,.61,.64,0,1.27-.08,1.9-.23l2.35,1.56c1.22,.81,2.67,1.22,4.13,1.22,.71,0,1.41-.09,2.1-.28l.2,.14c1.28,.98,2.87,1.48,4.49,1.48,.22,0,.45,0,.68-.02,.49,.43,1.03,.8,1.61,1.09l-.56,.69c-2.26,2.77-1.66,6.64,1.31,8.76l4.62,3.29c1.23,.87,2.75,1.35,4.31,1.35,.45,0,.88-.04,1.33-.11l.94-.16c1.6,2.14,4.3,2.88,9.87,3.56l.32,.4c.34,.45,.76,.85,1.22,1.21l.42,.3c-.14,.29-.25,.59-.35,.88-.5,1.67-.22,3.46,.76,4.94l.81,1.23c-.84,.57-1.54,1.32-2.03,2.19-1.19,2.13-.96,4.69,.6,6.62l.76,.95c.09,.64,.17,1.18,.24,1.66-.8,.91-1.79,2.1-3.08,3.61-1,1.18-1.5,2.65-1.41,4.14l.13,2.56-.67,1.17c-1.16,2-1.06,4.4,.26,6.32l1.81,2.6c1.01,1.44,2.62,2.47,4.46,2.82,.49,.09,.96,.15,1.46,.15,.94,0,1.86-.18,2.73-.51l2.22,.43c-.19,.6-.31,1.22-.31,1.84v.72l-.49,1.16c-.2,.48-.34,.99-.4,1.49l-.3,2.26-.86,2.81c-.73,2.48,.25,5.11,2.49,6.69l10.82,7.56c1.24,.86,2.75,1.31,4.27,1.31,.95,0,1.91-.17,2.82-.53,2.34-.92,3.93-2.94,4.16-5.25l.43-4.27,19.45-26.77c.32-.42,.57-.88,.75-1.35l4.41-11.17,1.11-1.99,8.68-12.27,15.8-1.69c1.85-.19,3.54-1.05,4.69-2.38l7.72-8.93,.24,.02-3.18,4.96c-.72,1.12-1.04,2.4-.93,3.69l.33,3.94c.17,1.95,1.32,3.71,3.11,4.79l4.34,2.6c1.14,.69,2.5,1.05,3.86,1.05,.68,0,1.36-.09,2.03-.28,1.99-.55,3.62-1.88,4.43-3.61l2.93-6.32,2.25-.96c1.78-.76,3.1-2.15,3.68-3.79l.2-.05c.28-.07,.55-.16,.81-.28l3.63-1.48c.91-.37,1.72-.91,2.38-1.6l5.87-6.05c.74-.76,1.26-1.67,1.54-2.66l1.82-6.7c.49-.46,.98-.9,1.41-1.28,2.02-.23,5.5-.63,11.65-1.37l9.78,4.04c.93,.38,1.92,.57,2.9,.57,1.33,0,2.65-.34,3.79-1,1.73-1.01,2.86-2.63,3.14-4.45l1.12-.07,13.28-.09c2.12-.02,4.13-.9,5.44-2.41l9.84-11.26,6.63-.06,22.87,7.7,14.8,12.75c.58,.51,1.27,.93,2.02,1.22l10.12,3.98c.88,.35,1.83,.53,2.78,.53,1.16,0,2.31-.27,3.35-.77,1.9-.94,3.2-2.61,3.56-4.55l2.34-12.94,5.44,3.93c1.26,.9,2.8,1.37,4.36,1.37,.56,0,1.11-.05,1.66-.18l10.24-2.26,6.54,.33,2.95,.2c.16,0,.33,0,.51,0h4.46c1.08,1.05,2.55,1.76,4.22,1.96l16.39,1.88c.3,.04,.59,.06,.88,.06,1.7,0,3.35-.56,4.63-1.59,1.51-1.19,2.38-2.93,2.38-4.76v-4.48c0-2.59-1.74-4.92-4.38-5.89l-5.45-1.99c-.68-.87-1.37-1.76-1.98-2.54,1.79-2.76,1.04-6.31-1.8-8.26l-6.49-4.49c-.9-.62-1.93-1.03-3.02-1.21,.7-1.44,.78-3.13,.14-4.71l-10.43-25.69c-1.02-2.51-3.65-4.14-6.56-4.14-.22,0-.41,0-.62,.02l-7.44,.58c-1.15,.11-2.27,.46-3.25,1.03l-7.01,4.22-1.3-2.11c-1.27-2.05-3.64-3.25-6.11-3.25-.8,0-1.61,.13-2.41,.4l-10.67,3.55-7.16-3.72c-1.07-.55-2.27-.83-3.47-.83-.31,0-.6,0-.9,.05,.04-.28,.04-.56,.04-.82l-.4-14.79,3.63-5.84c1.29-2.06,1.21-4.59-.23-6.57-1.29-1.82-3.51-2.88-5.87-2.88-.22,0-.43,0-.66,.02l-19.88,1.69c-.27,0-.52,.05-.77,.1l-3.75,.7c-.56,.11-1.11,.28-1.62,.51l-16.54,7.25-25.03-1.9c-.2,0-.39-.02-.58-.02h-3.65c-.56,0-1.12,.07-1.66,.19l-15.76,3.5-1.61-.82c-1.06-.54-2.25-.81-3.43-.81s-2.37,.27-3.43,.81l-25.46,12.93c-.71,.37-1.35,.85-1.89,1.41l-9.69,10.26-4.27-3.02c-1.26-.91-2.79-1.35-4.31-1.35-1.18,0-2.36,.26-3.43,.81l-4.28,2.19-7.86-6.8c-1.32-1.15-3.08-1.75-4.84-1.75-.91,0-1.82,.15-2.7,.48l-5.42,2.06-2,.02-15.53,.07-21.76-33.07c-.7-1.08-1.76-1.94-3.02-2.47l-18.63-8.02c-.94-.41-1.95-.62-2.99-.62h-11.94c-.16,0-.35,0-.51,.02l-3.87,.25c-.59-1.21-1.57-2.24-2.88-2.93-1.09-.59-2.32-.88-3.54-.88-1.58,0-3.17,.5-4.46,1.45l-10.39,7.76,.24-1.68c.03-.2,.04-.4,.05-.6,0-.47,.03-.97,.04-1.46,1.06-.57,1.94-1.39,2.56-2.39l12.23-20,1.71-1.98,22.38-15.96,13.07-3.62c1.11-.3,2.1-.85,2.92-1.58l2.43-2.21c2.66-2.42,2.73-6.31,.15-8.81l-5.89-5.7c-1.33-1.28-3.18-2-5.1-2"/>
        </g>
      </g>
      <g class="cls-11">
        <polygon class="cls-22" points="52.96 88.73 52.96 90.43 50.64 90.4 50.64 88.71 52.96 88.73"/>
        <rect class="cls-22" x="119.38" y="97.51" width="12.28" height="1.69"/>
        <rect class="cls-22" x="52.96" y="106.73" width="9.59" height="1.69"/>
        <rect class="cls-22" x="62.54" y="116.26" width="30.52" height="1.69"/>
        <rect class="cls-22" x="93.06" y="134.17" width="26.32" height="1.69"/>
        <path class="cls-23" d="M125.88,62.1v30.69h5.78v4.71h-12.28v36.66h-26.32v-17.91h-30.52v-9.53h-9.59v-17.99l-2.31-.02,6.59-5.24,32.71-2.72,14.56-8.48c.29-.36,5.9-7.13,6.47-7.13h10.98l3.93-3.03Z"/>
      </g>
      <g class="cls-11">
        <polygon class="cls-46" points="181.37 40.4 181.37 48.01 168.87 67.8 168.87 60.2 181.37 40.4"/>
        <g class="cls-11">
          <g class="cls-17">
            <g class="cls-11">
              <path class="cls-44" d="M168.87,60.2v7.61c-.15,.01-3.1,.26-3.19,.61-.1,.35-.28,5.6-.29,5.88v-7.61c0-.28,.19-5.53,.29-5.88,.1-.35,3.04-.6,3.19-.61"/>
            </g>
          </g>
        </g>
        <rect class="cls-26" x="156.47" y="66.69" width="8.91" height="7.61"/>
        <rect class="cls-26" x="146.4" y="74.41" width="10.07" height="7.61"/>
        <rect class="cls-26" x="128.94" y="82.22" width="5.96" height="7.61"/>
        <rect class="cls-26" x="122.87" y="121.2" width="23.54" height="7.61"/>
        <path class="cls-12" d="M175.65,30.83v9.57h5.71l-12.5,19.8c-.15,.01-3.1,.26-3.19,.61-.1,.35-.28,5.6-.29,5.88h-8.91v7.72h-10.07v46.79h-23.54v-25.23h12.03v-13.75h-5.96v-27.03l1.57-6.75,28.96-17.6h16.17Z"/>
      </g>
      <polygon class="cls-40" points="197.74 91.42 201.82 91.42 201.82 99.18 191.79 99.18 191.79 126.74 149.71 126.84 149.71 82.75 159.86 82.75 159.86 75.36 164.95 75.36 162.88 80.66 165.19 87.67 186.92 71.94 186.08 76.11 197.74 75.36 197.74 91.42"/>
      <g class="cls-11">
        <rect class="cls-48" x="200.93" y="73.85" width="4.18" height="18.6"/>
        <polygon class="cls-51" points="200.93 73.85 200.93 92.44 200.67 79.1 200.67 60.51 200.93 73.85"/>
        <rect class="cls-48" x="195.3" y="130.04" width="38.72" height="18.6"/>
        <polygon class="cls-48" points="271.7 139.08 271.7 157.67 262.58 157.75 262.58 139.16 271.7 139.08"/>
        <rect class="cls-48" x="234.02" y="155.75" width="28.57" height="18.6"/>
        <polygon class="cls-32" points="209.67 60.51 228.31 68.27 252.11 103.28 271.7 103.19 271.7 139.08 262.58 139.16 262.58 155.75 234.02 155.75 234.02 130.04 195.3 130.04 195.3 87.21 205.02 87.21 205.11 73.85 200.93 73.85 200.67 60.51 209.67 60.51"/>
      </g>
      <g class="cls-11">
        <polygon class="cls-20" points="446.15 83.86 446.15 87.24 441.58 94.37 441.58 90.99 446.15 83.86"/>
        <polygon class="cls-20" points="442 106.99 442 110.37 439.34 114.62 439.34 111.24 442 106.99"/>
        <rect class="cls-54" x="426.26" y="136.65" width="9.25" height="3.38"/>
        <polygon class="cls-30" points="509.74 138.7 509.74 142.08 502.3 146.52 502.3 143.14 509.74 138.7"/>
        <rect class="cls-54" x="435.51" y="146.02" width="60.73" height="3.38"/>
        <rect class="cls-54" x="496.24" y="154.69" width="10.1" height="3.38"/>
        <g class="cls-11">
          <g class="cls-10">
            <g class="cls-11">
              <path class="cls-4" d="M521.44,151.52v3.38c-.11,.15-2.23,2.99-2.23,3.28v-3.38c0-.29,2.12-3.13,2.23-3.28"/>
            </g>
          </g>
        </g>
        <rect class="cls-54" x="506.34" y="165.31" width="9.58" height="3.38"/>
        <polygon class="cls-30" points="532.29 169.07 532.29 172.45 515.92 170.61 515.92 167.23 532.29 169.07"/>
        <path class="cls-3" d="M446.15,83.86l-4.57,7.13,.42,16-2.65,4.24,3.4,3.95,7.12-1.44,10,5.01,13.73-4.43,4.99,7.81,13.29-7.71,7.44-.58,10.42,24.86-7.44,4.44,2.23,4.05h10.42l6.49,4.34c-.11,.15-2.23,2.99-2.23,3.28s5.45,6.97,5.74,7.32l7.34,2.6v4.34l-16.37-1.84v-1.92h-9.58v-10.61h-10.1v-8.68h-60.73v-9.36h-9.25v-51.15l19.89-1.64Z"/>
      </g>
      <g class="cls-11">
        <polygon class="cls-41" points="414.03 156.74 414.03 160.12 402.76 160.21 402.76 156.83 414.03 156.74"/>
        <polygon class="cls-41" points="475.18 163.1 475.18 166.48 468.91 166.68 468.91 163.29 475.18 163.1"/>
        <polygon class="cls-6" points="439.44 165.03 439.44 168.41 414.03 160.12 414.03 156.74 439.44 165.03"/>
        <polygon class="cls-41" points="503.33 167.52 503.33 170.9 495.7 170.53 495.7 167.14 503.33 167.52"/>
        <polygon class="cls-35" points="484.43 169.56 484.43 172.94 475.18 166.48 475.18 163.1 484.43 169.56"/>
        <polygon class="cls-41" points="495.7 167.14 495.7 170.53 484.43 172.94 484.43 169.56 495.7 167.14"/>
        <polygon class="cls-43" points="402.76 156.83 402.76 160.21 390.84 173.42 390.84 170.04 402.76 156.83"/>
        <polygon class="cls-41" points="390.84 170.04 390.84 173.42 377.3 173.5 377.3 170.12 390.84 170.04"/>
        <polygon class="cls-4" points="455.29 178.23 455.29 181.61 439.44 168.41 439.44 165.03 455.29 178.23"/>
        <polygon class="cls-38" points="468.91 163.29 468.91 166.68 465.4 185.47 465.4 182.09 468.91 163.29"/>
        <polygon class="cls-20" points="465.4 182.09 465.4 185.47 455.29 181.61 455.29 178.23 465.4 182.09"/>
        <polygon class="cls-8" points="432.29 142.28 432.29 151.34 493.02 151.34 493.02 160.02 503.33 160.02 503.33 167.52 495.7 167.14 484.43 169.56 475.18 163.1 468.91 163.29 465.4 182.09 455.29 178.23 439.44 165.03 414.03 156.74 402.76 156.83 390.84 170.04 377.3 170.12 377.3 142.28 432.29 142.28"/>
      </g>
      <g class="cls-11">
        <rect class="cls-26" x="224.51" y="171.88" width="6.2" height="8.45"/>
        <polygon class="cls-49" points="196.97 176.31 196.97 184.77 195.3 183.06 195.3 174.61 196.97 176.31"/>
        <polygon class="cls-5" points="202.53 184.59 202.53 193.04 196.41 194.07 196.41 185.62 202.53 184.59"/>
        <polygon class="cls-44" points="196.41 185.62 196.41 194.07 191.79 190.92 191.79 182.46 196.41 185.62"/>
        <g class="cls-11">
          <g class="cls-37">
            <g class="cls-11">
              <path class="cls-44" d="M212.5,189.2v8.45c-.39-.05-7.89-.94-8.08-1.28-.19-.33-1.8-3.18-1.89-3.33v-8.45c.09,.15,1.7,2.99,1.89,3.33,.19,.34,7.69,1.23,8.08,1.28"/>
            </g>
          </g>
        </g>
        <polygon class="cls-28" points="214.59 191.76 214.59 200.21 212.5 197.65 212.5 189.2 214.59 191.76"/>
        <rect class="cls-26" x="214.59" y="191.76" width="9.93" height="8.45"/>
        <path class="cls-12" d="M230.71,139.71v32.16h-6.2v19.89h-9.93l-2.09-2.56c-.39-.05-7.89-.94-8.08-1.28-.19-.33-1.8-3.18-1.89-3.33l-6.12,1.03-4.62-3.16,5.18-6.15-1.67-1.7v-34.89h35.42Z"/>
      </g>
      <g class="cls-11">
        <polygon class="cls-19" points="138.56 168.22 138.56 176.67 136.4 177.19 136.4 168.73 138.56 168.22"/>
        <polygon class="cls-49" points="136.4 168.73 136.4 177.19 122.87 169.67 122.87 161.22 136.4 168.73"/>
        <polygon class="cls-19" points="143.18 168.39 143.18 176.84 139.41 177.7 139.41 169.25 143.18 168.39"/>
        <polygon class="cls-33" points="139.41 169.25 139.41 177.7 138.56 176.67 138.56 168.22 139.41 169.25"/>
        <polygon class="cls-33" points="144.31 169.67 144.31 178.12 143.18 176.84 143.18 168.39 144.31 169.67"/>
        <polygon class="cls-19" points="147.52 169.84 147.52 178.3 144.31 178.12 144.31 169.67 147.52 169.84"/>
        <polygon class="cls-19" points="161.17 169.67 161.17 178.12 156.46 178.3 156.46 169.84 161.17 169.67"/>
        <polygon class="cls-44" points="155.24 171.12 155.24 179.58 153.55 178.81 153.55 170.36 155.24 171.12"/>
        <polygon class="cls-28" points="156.46 169.84 156.46 178.3 155.24 179.58 155.24 171.12 156.46 169.84"/>
        <polygon class="cls-33" points="163.15 172.26 163.15 180.71 161.17 178.12 161.17 169.67 163.15 172.26"/>
        <polygon class="cls-19" points="165.22 171.81 165.22 180.26 163.15 180.71 163.15 172.26 165.22 171.81"/>
        <polygon class="cls-46" points="151.66 172.92 151.66 181.37 147.52 178.3 147.52 169.84 151.66 172.92"/>
        <polygon class="cls-46" points="153.55 170.36 153.55 178.81 151.66 181.37 151.66 172.92 153.55 170.36"/>
        <polygon class="cls-44" points="169.27 173.51 169.27 181.97 165.22 180.26 165.22 171.81 169.27 173.51"/>
        <polygon class="cls-19" points="172.48 172.66 172.48 181.11 169.27 181.97 169.27 173.51 172.48 172.66"/>
        <polygon class="cls-19" points="180.95 174.71 180.95 183.16 177.66 184.45 177.66 175.99 180.95 174.71"/>
        <polygon class="cls-28" points="177.66 175.99 177.66 184.45 172.48 181.11 172.48 172.66 177.66 175.99"/>
        <polygon class="cls-19" points="187.46 176.33 187.46 184.78 184.45 185.73 184.45 177.27 187.46 176.33"/>
        <polygon class="cls-28" points="184.45 177.27 184.45 185.73 180.95 183.16 180.95 174.71 184.45 177.27"/>
        <rect class="cls-19" x="190.1" y="179.06" width="1.69" height="8.45"/>
        <polygon class="cls-9" points="191.79 128.35 191.79 179.06 190.1 179.06 187.46 176.33 184.45 177.27 180.95 174.71 177.66 175.99 172.48 172.66 169.27 173.51 165.22 171.81 163.15 172.26 161.17 169.67 156.46 169.84 155.24 171.12 153.55 170.36 151.66 172.92 147.52 169.84 144.31 169.67 143.18 168.39 139.41 169.25 138.56 168.22 136.4 168.73 122.87 161.22 122.87 128.35 191.79 128.35"/>
        <polygon class="cls-55" points="190.1 179.06 190.1 187.51 187.46 184.78 187.46 176.33 190.1 179.06"/>
      </g>
      <g class="cls-11">
        <g class="cls-18">
          <polyline class="cls-42" points="373.65 92.32 355.18 96.3 351.19 94.31 325.72 106.83 311.67 121.23 302.11 114.67 293.31 119 281.72 109.29 275.07 111.73 275.07 147.63 311.28 147.65 311.28 129.18 331.17 129.18 331.17 111.04 373.65 111.04 373.65 92.32"/>
        </g>
      </g>
      <g class="cls-11">
        <rect class="cls-24" x="255.29" y="173.26" width="3.68" height="6.76"/>
        <polygon class="cls-24" points="316.23 183.06 316.23 189.82 301.35 188.51 301.35 181.75 316.23 183.06"/>
        <polygon class="cls-24" points="325.72 188.17 325.72 194.93 320.91 196.24 320.91 189.48 325.72 188.17"/>
        <polygon class="cls-53" points="301.35 181.75 301.35 188.51 291.26 199.83 291.26 193.06 301.35 181.75"/>
        <polygon class="cls-16" points="320.91 192.2 320.91 198.96 316.23 200.92 316.23 194.16 320.91 192.2"/>
        <polygon class="cls-24" points="291.26 193.06 291.26 199.83 272.17 201.78 272.17 195.02 291.26 193.06"/>
        <polygon class="cls-36" points="307.95 199.92 307.95 206.69 307.59 202.88 307.59 196.12 307.95 199.92"/>
        <polygon class="cls-2" points="316.23 194.16 316.23 200.92 312.27 209.19 312.27 202.43 316.23 194.16"/>
        <polygon class="cls-13" points="312.27 202.43 312.27 209.19 307.95 206.69 307.95 199.92 312.27 202.43"/>
        <rect class="cls-24" x="258.97" y="209.61" width="2.52" height="6.76"/>
        <polygon class="cls-52" points="323.2 148.82 323.2 176.5 325.72 176.5 325.72 188.17 320.91 189.48 320.91 192.2 316.23 194.16 312.27 202.43 307.95 199.92 307.59 196.12 316.23 183.06 301.35 181.75 291.26 193.06 272.17 195.02 261.49 209.61 258.97 209.61 258.97 173.26 255.29 173.26 255.29 165.76 265.74 165.76 265.74 148.82 323.2 148.82"/>
        <polygon class="cls-7" points="272.17 195.02 272.17 201.78 261.49 216.37 261.49 209.61 272.17 195.02"/>
      </g>
      <g class="cls-11">
        <g class="cls-45">
          <path class="cls-42" d="M373.65,114.62h-38.79v17.92h-20.03v14.89h11.71v27.77h2.67l.12,13.09,5.86-5.85,2.3-8.13s4.45-3.97,4.64-3.97,15.85-1.78,15.85-1.78l11.58,4.62v-4.03l4.1-1.07v-53.47"/>
        </g>
      </g>
      <g class="cls-11">
        <g class="cls-14">
          <polyline class="cls-42" points="422.5 86.47 404.24 94.23 377.3 92.25 377.3 136.95 422.95 136.95 422.5 86.47"/>
        </g>
      </g>
      <g class="cls-11">
        <g class="cls-15">
          <polyline class="cls-42" points="48.93 92.72 47.37 92.72 36.91 102.5 6.29 113.46 7.33 115.64 13.91 115.08 14.02 117.44 16.63 118.01 17.89 119.25 21.75 119.62 25.1 125.97 28.97 134.49 29.38 137.71 111.96 158.28 119.38 161.46 119.38 139.04 89.17 139.04 89.17 120.48 59.08 120.48 59.08 110.91 48.93 110.91 48.93 92.72"/>
        </g>
      </g>
      <g class="cls-11">
        <g class="cls-39">
          <polyline class="cls-42" points="218.89 12.27 185.08 14.54 167.09 24.48 162.44 30.77 178.92 30.77 178.92 40.38 183.93 40.38 208.01 23.77 222.34 19.93 224.77 17.79 218.89 12.27"/>
        </g>
      </g>
      <g class="cls-11">
        <g class="cls-29">
          <path class="cls-25" d="M252.59,172.14h-18.86v9.36h-6.36v20.16l-8.64-.02s1.92,1.96,2.16,2.28c.24,.33-3.84,2.28-3.84,2.28l3.01,4.36-.13,4.89h-3.84l1.81,2.18s.84,5.44,.94,5.86c0,0,0,0,0,0-.26,0-4.91,5.35-4.91,5.35l.24,4.14-1.56,2.61,1.8,2.5,1.44-.87,5.76,1.09,5.76-4.36,3.97,3.48-5.28,8.49v1.84l-.96,2.18-.36,2.61-.96,3.16,10.81,7.32,.6-5.69,20.4-27.2,4.56-11.14h-4.2v-36.23h-3.36v-10.62"/>
        </g>
      </g>
      <g class="cls-11">
        <g class="cls-50">
          <g>
            <polyline class="cls-27" points="466.49 128.59 466.35 128.59 462.72 135.7 466.49 128.59"/>
            <path class="cls-27" d="M462.72,135.7l3.62-7.11h.14l-3.77,7.11m6.48-11.64h-3.64c-.63,0-1.37,.05-2.07,.45-.41,.24-.76,.57-1.05,.99l-5.41,10.57,.73,3.67,.03,.15c.16,.58,.49,1.09,.95,1.45,.4,.33,1.1,.72,2.2,.72h4.51c.09,.87,.65,1.62,1.51,2.04,.68,.33,1.43,.37,2.01,.37h2.86c.76,0,1.36-.1,1.86-.32,.94-.4,1.56-1.19,1.66-2.09h.89l.91-4.88,.03-.38c0-.96-.54-1.82-1.46-2.3-.12-.06-.23-.11-.36-.16v-1.98c0-1.02-.64-1.93-1.68-2.38-.51-.21-1.1-.31-1.86-.31h-.36l1.27-2.39v-.52c0-1-.61-1.9-1.61-2.36-.52-.23-1.11-.34-1.93-.34"/>
            <path class="cls-27" d="M232,114.84s-.06-.04-.1-.08c-.07-.07-.14-.16-.18-.26-.02-.05-.03-.11-.03-.16,0-.12,.06-.22,.08-.25,.08-.09,.16-.15,.24-.19,.07,.04,.15,.1,.23,.19,.03,.03,.08,.14,.08,.25,0,.05-.01,.11-.03,.16-.04,.1-.11,.19-.17,.26-.04,.03-.08,.06-.11,.08m-4.36,1.02c-.04-.06-.08-.13-.12-.2-.18-.32-.27-.76-.27-1.29,0-.14,.02-.29,.07-.44,.01-.03,.02-.06,.03-.08-.02,.17-.03,.33-.03,.5,0,.53,.11,1.04,.32,1.52m8.72,0c.22-.48,.33-.99,.33-1.52,0-.17-.01-.33-.04-.5,.01,.03,.02,.05,.03,.08,.05,.16,.07,.3,.07,.45,0,.53-.09,.97-.27,1.29-.04,.07-.08,.14-.12,.2m-4.38-7.21c-.47-.25-.65-.68-.66-.82,0-.15,.18-.58,.71-.83,.46,.25,.64,.67,.65,.82-.01,.16-.19,.58-.7,.83m.02-7.94c-2.77,0-4.97,.62-6.54,1.84-.65,.5-1.18,1.09-1.59,1.75,.18,.32,.32,.65,.44,1,.28,.82,.42,1.69,.42,2.57,0,1.02-.29,2.03-.86,3,.83,.16,1.53,.63,1.94,1.32,.28,.48,.41,1.03,.41,1.74v4.67c0,.62-.24,1.2-.66,1.66,.85,.51,1.83,.89,2.93,1.13,1.08,.24,2.26,.36,3.51,.36s2.44-.12,3.52-.36c1.19-.26,2.25-.69,3.15-1.27,.98-.63,1.75-1.44,2.29-2.42,.53-.96,.79-2.08,.79-3.32,0-.56-.09-1.13-.26-1.69-.17-.53-.41-1.05-.72-1.53-.14-.22-.29-.43-.46-.63,.51-.83,.77-1.74,.77-2.7,0-2.16-.88-3.98-2.54-5.27-1.57-1.22-3.77-1.84-6.54-1.84"/>
            <path class="cls-27" d="M216.08,105.08c-.11,0-.22,0-.32,0,.91,.08,1.69,.36,2.33,.85,.86,.66,1.34,1.63,1.34,2.73,0,.05,0,.09,0,.14l.02-.03c.2-.33,.3-.63,.3-.91,0-.44-.07-.84-.2-1.24-.09-.28-.25-.52-.47-.73-.22-.21-.54-.39-.97-.55-.34-.12-.96-.26-2.03-.26"/>
            <path class="cls-27" d="M213.09,118.15v-.02s0,.02,0,.02m6.33-9.34s0-.09,0-.14c0-1.1-.47-2.07-1.34-2.73-.64-.49-1.42-.77-2.33-.85,.11,0,.22,0,.32,0,1.07,0,1.69,.14,2.03,.26,.43,.15,.75,.33,.97,.55,.22,.21,.37,.45,.47,.73,.13,.4,.2,.81,.2,1.24,0,.29-.1,.58-.3,.91l-.02,.03m-3.34-8.26c-.83,0-1.66,.08-2.46,.25-.76,.15-1.49,.37-2.17,.64-.72,.28-1.37,.62-1.95,1.01-.59,.39-1.1,.82-1.52,1.28l-.73,.79,.96,5.42c.15,1.03,.92,1.82,1.96,2.09-.6,.39-1.14,.75-1.63,1.06l-1.28,.82,.89,4.96c.25,1.43,1.54,2.4,3.22,2.4h11.31c.82,0,1.41-.11,1.93-.34,.37-.17,.69-.4,.95-.68,.42-.46,.66-1.04,.66-1.66v-4.67c0-.71-.13-1.26-.41-1.74-.41-.69-1.11-1.16-1.94-1.32,.57-.97,.86-1.98,.86-3,0-.88-.14-1.74-.42-2.57-.12-.35-.26-.68-.44-1-.3-.54-.68-1.04-1.14-1.49-.73-.72-1.68-1.28-2.81-1.69-1.09-.39-2.35-.58-3.85-.58"/>
            <path class="cls-27" d="M91.55,93.46c-.11,0-.22,0-.33,0,.91,.08,1.69,.37,2.33,.85,.86,.66,1.34,1.63,1.34,2.73,0,.05,0,.09,0,.14l.02-.03c.2-.33,.3-.63,.3-.91,0-.43-.07-.85-.2-1.24-.09-.28-.25-.52-.46-.73-.22-.21-.54-.4-.97-.55-.34-.12-.96-.26-2.02-.26"/>
            <path class="cls-27" d="M88.56,106.53h0s0,0,0,0m6.33-9.34s0-.09,0-.14c0-1.1-.47-2.07-1.34-2.73-.64-.49-1.42-.77-2.33-.85,.11,0,.22,0,.33,0,1.07,0,1.69,.14,2.02,.26,.43,.15,.75,.34,.97,.55,.22,.21,.37,.45,.46,.73,.13,.39,.2,.81,.2,1.24,0,.29-.1,.58-.3,.91l-.02,.03m-3.34-8.26c-.84,0-1.67,.08-2.46,.25-.76,.16-1.49,.37-2.17,.64-.71,.28-1.37,.62-1.95,1.01-.58,.39-1.09,.82-1.51,1.27l-.74,.79,.96,5.43c.15,1.03,.92,1.82,1.96,2.1-.6,.39-1.14,.75-1.63,1.06l-1.28,.82,.89,4.97c.25,1.43,1.55,2.39,3.22,2.39h11.31c.81,0,1.4-.1,1.94-.34,.98-.45,1.6-1.34,1.6-2.33v-4.67c0-.71-.13-1.27-.4-1.74-.41-.7-1.11-1.17-1.94-1.33,.57-.97,.86-1.98,.86-3,0-.88-.14-1.74-.42-2.57-.32-.94-.85-1.77-1.58-2.49-.73-.71-1.68-1.28-2.8-1.68-1.09-.39-2.35-.58-3.86-.58"/>
            <path class="cls-27" d="M151.78,44.42c-1.28,0-2.49,.17-3.59,.52-1.15,.36-2.16,.88-3,1.55-.88,.7-1.58,1.57-2.07,2.58-.49,1-.73,2.11-.73,3.3,0,1.1,.21,2.11,.63,3.01,.33,.71,.77,1.34,1.31,1.9-.29,.33-.49,.74-.57,1.2l-.89,4.87,1.46,.79c.55,.3,1.16,.54,1.82,.72,.56,.15,1.14,.28,1.72,.37,.56,.09,1.12,.15,1.66,.19,.54,.04,1.03,.06,1.46,.06,1.96,0,3.66-.35,5.07-1.03,1.4-.68,2.54-1.6,3.4-2.73,.81-1.07,1.39-2.3,1.73-3.65,.31-1.23,.47-2.53,.47-3.84,0-2.97-.84-5.35-2.49-7.07-1.74-1.81-4.23-2.73-7.4-2.73"/>
            <polyline class="cls-27" points="151.5 144.25 147.06 144.25 146.97 144.72 150.35 144.72 150.35 156.46 146.76 156.46 146.68 156.94 155.18 156.94 155.09 156.46 151.5 156.46 151.5 144.25"/>
            <path class="cls-27" d="M146.97,144.72l.09-.47h4.44v12.22h3.59l.09,.48h-8.5l.09-.48h3.59v-11.74h-3.38m5.68-4.55h-9.42l-1.08,5.97v.17c0,.89,.5,1.68,1.34,2.12,.5,.26,1.09,.38,1.92,.38h.44v3.59h-2.92l-1.08,5.97v.17c0,.89,.5,1.69,1.34,2.12,.64,.33,1.36,.38,1.92,.38h11.62c.35,0,.66-.02,.94-.07-.32-.05-.66-.15-.98-.31-.84-.43-1.34-1.22-1.34-2.12v-.17l1.08-5.97h-.44v-4.87c-.22-.36-.34-.77-.34-1.21v-.17l.34-1.91v-1.57c0-.95-.59-1.79-1.54-2.19-.48-.2-1.05-.3-1.8-.3"/>
            <polyline class="cls-27" points="165 144.25 160.56 144.25 160.47 144.72 163.85 144.72 163.85 156.46 160.26 156.46 160.17 156.94 168.67 156.94 168.59 156.46 165 156.46 165 144.25"/>
            <path class="cls-27" d="M160.47,144.72l.09-.47h4.44v12.22h3.59l.09,.48h-8.5l.09-.48h3.59v-11.74h-3.38m5.68-4.55h-9.42l-.73,4.07-.34,1.91v.17c0,.44,.12,.85,.34,1.21,.23,.37,.57,.69,.99,.91,.5,.26,1.09,.38,1.92,.38h.44v3.59h-2.91l-1.08,5.97v.17c0,.89,.5,1.69,1.34,2.12,.32,.16,.65,.26,.98,.31,.34,.05,.66,.07,.94,.07h11.62c.82,0,1.41-.11,1.91-.37,.84-.43,1.34-1.23,1.34-2.12v-.17l-1.08-5.97h-2.91v-9.72c0-.95-.59-1.79-1.54-2.19-.48-.2-1.05-.3-1.8-.3"/>
            <path class="cls-27" d="M209.22,149.57h-7.89l-.93,5.14v.17c0,.86,.49,1.63,1.3,2.05,.56,.29,1.16,.35,1.65,.36v2.02h-2.25l-.93,5.14v.17c0,.86,.49,1.63,1.3,2.05,.61,.32,1.26,.36,1.76,.36h9.25c.39,0,.87-.02,1.35-.19-.13-.05-.27-.1-.4-.17-.81-.42-1.3-1.18-1.3-2.05v-.17l.93-5.14h-.71v-7.33c0-.92-.57-1.73-1.5-2.12-.45-.19-.96-.28-1.63-.28"/>
            <path class="cls-27" d="M221.18,149.57h-7.89l-.93,5.14v.17c0,.86,.49,1.63,1.3,2.05,.56,.29,1.16,.35,1.65,.36v2.02h-2.25l-.93,5.14v.17c0,.86,.49,1.63,1.3,2.05,.13,.07,.27,.13,.4,.17,.48,.16,.96,.19,1.35,.19h9.25c.5,0,1.15-.04,1.75-.35,.82-.42,1.3-1.19,1.3-2.05v-.17l-.93-5.14h-2.25v-7.33c0-.92-.57-1.73-1.5-2.12-.45-.19-.96-.28-1.63-.28"/>
            <path class="cls-27" d="M296.58,174.21h0s0,0,0,0m6.33-9.34s0-.09,0-.14c0-1.1-.47-2.07-1.34-2.73-.64-.49-1.42-.77-2.33-.85,.11,0,.22,0,.33,0,1.07,0,1.69,.14,2.02,.26,.43,.15,.75,.34,.97,.55,.22,.21,.37,.45,.46,.73,.13,.39,.2,.81,.2,1.24,0,.29-.1,.58-.3,.91l-.02,.03m-3.34-8.26c-.84,0-1.67,.08-2.46,.25-.76,.16-1.49,.37-2.17,.64-.71,.28-1.37,.62-1.95,1.01-.58,.39-1.09,.82-1.51,1.27l-.18,.19s0,0,0,0v3.77l.4,2.25c.15,1.03,.92,1.82,1.96,2.1-.54,.36-1.04,.69-1.5,.98h1.87l1.04,5.76v.17c0,.89-.5,1.67-1.33,2.1-.03,.02-.07,.03-.1,.05,.38,.12,.79,.19,1.23,.19h11.31c.81,0,1.4-.1,1.94-.34,.98-.45,1.6-1.34,1.6-2.33v-4.67c0-.71-.13-1.27-.4-1.74-.41-.7-1.11-1.17-1.94-1.33,.57-.97,.86-1.98,.86-3,0-.88-.14-1.74-.42-2.57-.32-.94-.85-1.77-1.58-2.49-.73-.71-1.68-1.28-2.81-1.68-1.09-.39-2.35-.58-3.85-.58"/>
            <polyline class="cls-27" points="286.79 161.57 282.81 161.57 282.77 161.81 285.95 161.81 285.95 173.14 282.53 173.14 282.49 173.37 290.25 173.37 290.21 173.14 286.79 173.14 286.79 161.57"/>
            <path class="cls-27" d="M282.77,161.81l.04-.23h3.98v11.57h3.41l.04,.23h-7.76l.04-.23h3.42v-11.33h-3.18m5.24-4.31h-9.02l-1.04,5.75v.17c0,.89,.5,1.67,1.33,2.1,.63,.33,1.33,.37,1.87,.37h.3v3.18h-2.74l-1.04,5.76v.17c0,.89,.5,1.67,1.32,2.1,.63,.33,1.34,.37,1.88,.37h11c.51,0,1.17-.04,1.77-.32,.03-.02,.07-.03,.1-.05,.83-.43,1.33-1.22,1.33-2.1v-.17l-1.04-5.76h-2.74v-9.1s0,0,0,0c0-.94-.59-1.77-1.53-2.17-.47-.2-1.03-.29-1.75-.29"/>
            <path class="cls-27" d="M242.93,214.86c.28,.47,.43,1,.43,1.58,0,.71-.25,1.38-.71,1.93-.36,.42-.82,.77-1.36,1.04-.11,.05-.22,.1-.32,.14,.23-.04,.44-.1,.64-.16,.57-.18,1.01-.42,1.33-.68,.29-.25,.5-.54,.64-.87,.16-.4,.24-.82,.24-1.28,0-.49-.16-.92-.5-1.36-.1-.12-.22-.24-.38-.34m-2.88-1.87l-.1,.1c.05,0,.1,.02,.15,.03-.02-.04-.04-.08-.05-.12m-4.46-5.16h-.44v.32c.13-.12,.28-.23,.44-.32m7.66,0h-1.86c.4,.22,.72,.56,.92,.96,.02,.03,.03,.07,.05,.1l.89-.95v-.11"/>
            <path class="cls-27" d="M235.44,216.75h0s0,0,0,0m5.53,2.81c.11-.05,.22-.09,.32-.14,.54-.27,1-.61,1.36-1.04,.47-.56,.71-1.23,.71-1.93,0-.58-.15-1.12-.43-1.58,.16,.1,.29,.22,.38,.34,.34,.44,.5,.88,.5,1.36,0,.46-.08,.88-.24,1.28-.13,.33-.34,.61-.64,.87-.32,.27-.76,.5-1.33,.68-.19,.06-.41,.12-.64,.16m-.86-6.45c-.05,0-.1-.02-.15-.03l.1-.1s.03,.08,.05,.12m-4.95-4.97v-.32h.44c-.16,.09-.3,.2-.44,.32m7.2,.74s-.03-.07-.05-.1c-.2-.41-.53-.74-.92-.96h1.86v.11l-.89,.95m2.53-5.39h-11.11c-.82,0-1.41,.11-1.92,.36-.92,.45-1.48,1.28-1.48,2.24v4.59c0,.7,.13,1.23,.39,1.69,.49,.84,1.43,1.34,2.5,1.34h1.27l.15,.7h-.02c-.45-.21-.9-.31-1.35-.31-1.32,0-2.41,.84-2.61,2.01l-.7,3.87c-.15,.81,.23,1.63,.96,2.11,.64,.42,1.36,.76,2.15,1.03,.72,.24,1.46,.43,2.2,.57,.69,.12,1.38,.21,2.06,.27,.67,.06,1.28,.09,1.82,.09,1.52,0,2.87-.19,4.01-.56,1.2-.39,2.21-.93,3.01-1.62,.82-.71,1.44-1.55,1.83-2.51,.36-.88,.54-1.81,.54-2.78,0-1.38-.46-2.67-1.35-3.84-.32-.42-.71-.8-1.15-1.14l1.37-1.46c.37-.39,.57-.89,.57-1.4v-2.61c0-1.3-1.08-2.62-3.15-2.62"/>
            <path class="cls-27" d="M459.48,165.3c.46,.64,.7,1.39,.7,2.19,0,.67-.17,1.3-.49,1.87,.11-.15,.21-.31,.29-.48,.21-.42,.31-.93,.31-1.52,0-.5-.08-.94-.25-1.29-.14-.31-.33-.56-.57-.77m-8.44-2.12c-.15,.76-.23,1.54-.23,2.33,0,.52,.03,.99,.1,1.44,.02-.23,.09-.47,.19-.68,.26-.53,.57-.95,.89-1.28-.63-.43-.98-1.1-.95-1.8"/>
            <path class="cls-27" d="M459.69,169.36c.32-.57,.49-1.2,.49-1.87,0-.8-.24-1.55-.7-2.19,.24,.21,.43,.46,.57,.77,.16,.36,.25,.79,.25,1.29,0,.59-.1,1.1-.31,1.52-.09,.17-.18,.33-.29,.48m-8.79-2.41c-.07-.45-.1-.92-.1-1.44,0-.79,.08-1.57,.23-2.33-.03,.7,.33,1.38,.95,1.8-.32,.33-.64,.75-.89,1.28-.11,.22-.17,.45-.19,.68m5.69-12.59c-1.94,0-3.63,.34-5.02,1.02-1.38,.67-2.51,1.58-3.36,2.7-.8,1.06-1.38,2.28-1.72,3.63-.31,1.23-.47,2.51-.47,3.8,0,2.95,.83,5.3,2.46,7,1.72,1.79,4.18,2.7,7.32,2.7,1.27,0,2.46-.17,3.55-.51,1.13-.35,2.13-.87,2.97-1.53,.86-.69,1.55-1.54,2.04-2.52,.48-.98,.72-2.08,.72-3.28,0-1.08-.21-2.08-.62-2.97-.34-.72-.79-1.37-1.36-1.93,.32-.33,.53-.75,.61-1.21l.61-3.35c.16-.88-.29-1.76-1.13-2.21-.54-.29-1.15-.53-1.8-.71-.56-.15-1.13-.27-1.7-.36-.55-.09-1.11-.15-1.65-.19-.53-.04-1.02-.06-1.45-.06"/>
          </g>
        </g>
      </g>
      <g class="cls-11">
        <g class="cls-1">
          <g>
            <path class="cls-47" d="M455.88,168.1c-.82,0-1.41-.21-1.76-.64-.35-.42-.58-.96-.67-1.62,.26-.54,.62-.91,1.08-1.12,.46-.2,.9-.3,1.33-.3,.68,0,1.21,.17,1.57,.52,.35,.34,.53,.77,.53,1.26s-.19,.95-.56,1.33c-.38,.38-.88,.57-1.51,.57m.86-12.86c-1.55,0-2.84,.25-3.89,.76-1.04,.51-1.88,1.18-2.52,2.02-.63,.83-1.09,1.79-1.36,2.88-.27,1.08-.4,2.19-.4,3.32,0,2.42,.63,4.28,1.88,5.58,1.24,1.31,3.09,1.96,5.51,1.96,1.01,0,1.93-.13,2.77-.39,.84-.27,1.57-.64,2.17-1.12,.61-.48,1.08-1.08,1.43-1.78,.34-.7,.51-1.5,.51-2.4,0-.79-.14-1.5-.43-2.13-.29-.63-.7-1.16-1.23-1.59-.53-.42-1.17-.76-1.92-.99-.75-.23-1.58-.34-2.49-.34-.56,0-1.11,.07-1.65,.22-.54,.14-1.05,.38-1.54,.72,.26-1.06,.69-1.84,1.31-2.31,.6-.47,1.41-.71,2.42-.71,.44,0,.88,.05,1.32,.14,.44,.1,.84,.2,1.19,.31,.36,.11,.66,.21,.91,.3,.25,.09,.43,.14,.52,.14,.15,0,.23-.07,.25-.2l.61-3.38c-.37-.2-.79-.37-1.26-.49-.46-.13-.94-.23-1.42-.31-.49-.07-.96-.13-1.43-.16-.47-.03-.88-.05-1.26-.05"/>
            <path class="cls-47" d="M469.47,124.87h-3.64c-.38,0-.61,.03-.72,.09-.1,.07-.2,.15-.29,.29l-4.92,9.67,.58,2.97c.04,.13,.11,.24,.21,.33,.1,.09,.28,.13,.52,.13h6.99v2.01c0,.13,.07,.24,.22,.3,.14,.07,.41,.1,.82,.1h2.86c.37,0,.63-.03,.79-.1,.16-.07,.24-.17,.24-.3v-2.01h1.26l.56-2.99c0-.15-.07-.26-.2-.33-.13-.07-.39-.1-.76-.1h-.86v-4c0-.15-.08-.27-.24-.33-.16-.07-.42-.1-.79-.1h-2.86c-.4,0-.68,.03-.82,.1-.14,.07-.22,.18-.22,.33v4h-2.8l5.09-9.62c0-.15-.07-.26-.23-.33-.14-.07-.41-.11-.81-.11"/>
            <path class="cls-47" d="M287.86,158.48h-7.11l-.7,3.88c0,.15,.06,.26,.2,.33,.13,.07,.38,.11,.76,.11h2.55v7.25h-3.08l-.7,3.88c0,.15,.06,.26,.2,.33,.13,.07,.38,.1,.76,.1h11c.38,0,.63-.03,.76-.1,.14-.07,.2-.18,.2-.33l-.7-3.88h-3.08v-11.13c0-.15-.08-.26-.23-.33-.16-.07-.43-.11-.8-.11"/>
            <path class="cls-47" d="M299.89,158.18c-.65,0-1.29,.07-1.9,.19-.62,.13-1.2,.29-1.74,.51-.54,.21-1.03,.46-1.46,.75-.42,.29-.79,.6-1.09,.91l.78,4.44c.02,.17,.12,.25,.31,.25,.15,0,.31-.09,.48-.28,.54-.6,1.14-1.13,1.79-1.58,.66-.45,1.3-.68,1.96-.68,.54,0,.96,.11,1.26,.34,.3,.23,.45,.56,.45,1s-.24,.94-.73,1.48c-.49,.55-1.08,1.12-1.78,1.69-.7,.58-1.45,1.13-2.27,1.67-.81,.55-1.53,1.02-2.17,1.42l.65,3.58c.05,.32,.31,.48,.76,.48h11.3c.4,0,.67-.03,.82-.1,.14-.07,.22-.17,.22-.31v-4.67c0-.32-.04-.55-.11-.67-.07-.13-.21-.2-.4-.2h-2.93l-.65,1.88h-3.61c.64-.4,1.31-.87,2.04-1.4,.73-.54,1.4-1.11,2.02-1.73,.62-.61,1.12-1.26,1.54-1.92,.41-.67,.62-1.34,.62-2.01s-.11-1.3-.32-1.91c-.21-.6-.54-1.14-1.02-1.61s-1.11-.84-1.89-1.12c-.78-.28-1.76-.42-2.94-.42"/>
            <path class="cls-47" d="M215.62,101.36c-.66,0-1.3,.07-1.91,.19-.61,.13-1.2,.3-1.74,.51-.54,.2-1.03,.46-1.46,.74-.42,.29-.79,.6-1.09,.91l.78,4.45c.02,.16,.13,.25,.31,.25,.15,0,.32-.1,.48-.29,.54-.6,1.14-1.13,1.79-1.58,.66-.45,1.31-.67,1.96-.67,.54,0,.96,.11,1.26,.34,.3,.23,.45,.56,.45,1s-.24,.94-.73,1.48c-.49,.55-1.08,1.12-1.78,1.69-.69,.58-1.45,1.13-2.26,1.68-.82,.54-1.54,1.01-2.17,1.42l.64,3.57c.05,.33,.31,.48,.76,.48h11.31c.39,0,.66-.03,.81-.1,.14-.07,.23-.17,.23-.3v-4.67c0-.32-.05-.55-.12-.67-.07-.13-.21-.19-.39-.19h-2.94l-.65,1.88h-3.61c.64-.41,1.31-.88,2.04-1.41,.73-.53,1.4-1.11,2.02-1.72,.62-.62,1.13-1.26,1.54-1.93,.41-.67,.62-1.34,.62-2.01s-.11-1.3-.31-1.9c-.21-.61-.55-1.15-1.03-1.62-.48-.46-1.11-.83-1.89-1.12-.78-.28-1.76-.42-2.93-.42"/>
            <path class="cls-47" d="M232.27,114.47c-.78,0-1.34-.18-1.68-.55-.33-.36-.5-.77-.5-1.21,0-.22,.05-.42,.13-.63,.09-.2,.22-.38,.4-.55,.18-.16,.4-.29,.67-.39,.27-.11,.59-.15,.99-.15s.72,.05,.99,.15c.28,.1,.49,.23,.67,.39,.18,.16,.31,.34,.4,.55,.08,.2,.13,.41,.13,.63,0,.44-.17,.85-.5,1.21-.34,.37-.9,.55-1.68,.55m0-6.85c-.47,0-.88-.1-1.26-.3-.37-.2-.56-.58-.56-1.12s.19-.91,.56-1.12c.38-.2,.79-.3,1.26-.3s.89,.1,1.26,.3c.37,.2,.56,.58,.56,1.12s-.19,.91-.56,1.12c-.37,.2-.79,.3-1.26,.3m0-6.26c-2.17,0-3.8,.43-4.91,1.3-1.11,.86-1.67,2.05-1.67,3.55,0,.58,.15,1.11,.46,1.62,.32,.5,.7,.93,1.17,1.31-.34,.17-.65,.38-.93,.66-.28,.27-.52,.56-.73,.88-.21,.33-.36,.66-.48,1.02-.11,.35-.17,.71-.17,1.06,0,.9,.18,1.67,.54,2.32,.35,.64,.85,1.17,1.49,1.58,.65,.42,1.41,.72,2.29,.91,.88,.2,1.86,.29,2.93,.29s2.04-.1,2.92-.29c.89-.2,1.66-.5,2.3-.91,.65-.42,1.14-.95,1.49-1.58,.36-.64,.54-1.42,.54-2.32,0-.35-.06-.71-.17-1.06-.12-.36-.27-.69-.48-1.02-.21-.32-.45-.61-.73-.88-.28-.28-.58-.49-.92-.66,.46-.38,.85-.81,1.16-1.31,.31-.51,.46-1.04,.46-1.62,0-1.5-.56-2.69-1.66-3.55-1.11-.86-2.75-1.3-4.91-1.3"/>
            <path class="cls-47" d="M209.52,150.51h-5.8l-.58,3.16c0,.12,.05,.21,.16,.27,.11,.06,.32,.08,.61,.08h2.08v5.91h-2.51l-.57,3.16c0,.13,.05,.22,.16,.27,.1,.06,.31,.08,.61,.08h8.96c.31,0,.51-.02,.62-.08,.11-.05,.16-.14,.16-.27l-.58-3.16h-2.51v-9.08c0-.12-.06-.21-.19-.27-.14-.05-.35-.08-.65-.08"/>
            <path class="cls-47" d="M220.95,150.51h-5.8l-.58,3.16c0,.12,.05,.21,.16,.27,.11,.06,.32,.08,.61,.08h2.08v5.91h-2.51l-.57,3.16c0,.13,.05,.22,.16,.27,.11,.06,.31,.08,.61,.08h8.97c.3,0,.5-.02,.61-.08,.11-.05,.16-.14,.16-.27l-.58-3.16h-2.5v-9.08c0-.12-.07-.21-.2-.27-.13-.05-.35-.08-.65-.08"/>
            <path class="cls-47" d="M152.24,141.31h-7.11l-.7,3.87c0,.15,.06,.27,.2,.33,.13,.07,.38,.1,.76,.1h2.55v7.26h-3.08l-.7,3.88c0,.15,.06,.26,.2,.33,.13,.07,.38,.11,.76,.11h11c.38,0,.63-.03,.76-.11,.13-.07,.2-.18,.2-.33l-.7-3.88h-3.08v-11.14c0-.15-.08-.26-.24-.33-.15-.07-.42-.1-.79-.1"/>
            <path class="cls-47" d="M166.26,141.31h-7.11l-.7,3.87c0,.15,.07,.27,.2,.33,.14,.07,.39,.1,.76,.1h2.55v7.26h-3.08l-.7,3.88c0,.15,.06,.26,.2,.33,.13,.07,.38,.11,.76,.11h11c.38,0,.63-.03,.76-.11,.13-.07,.2-.18,.2-.33l-.7-3.88h-3.08v-11.14c0-.15-.08-.26-.23-.33-.16-.07-.42-.1-.8-.1"/>
            <path class="cls-47" d="M91.82,89.73c-.66,0-1.29,.07-1.91,.19-.61,.13-1.19,.29-1.73,.51-.55,.21-1.04,.46-1.46,.75-.43,.29-.79,.6-1.1,.91l.79,4.44c.02,.17,.12,.25,.31,.25,.14,0,.31-.09,.48-.28,.54-.6,1.13-1.13,1.79-1.58,.65-.45,1.31-.68,1.95-.68,.55,0,.96,.11,1.26,.34,.3,.23,.45,.56,.45,1s-.24,.94-.73,1.48c-.49,.55-1.07,1.12-1.77,1.69-.7,.58-1.46,1.13-2.27,1.67-.81,.55-1.54,1.02-2.17,1.42l.64,3.58c.06,.32,.32,.48,.76,.48h11.31c.39,0,.66-.03,.81-.1,.15-.07,.23-.17,.23-.31v-4.67c0-.32-.04-.55-.12-.67-.07-.13-.2-.2-.39-.2h-2.94l-.64,1.88h-3.61c.63-.4,1.31-.87,2.04-1.4,.73-.53,1.4-1.11,2.02-1.73,.61-.61,1.12-1.26,1.54-1.93,.4-.67,.61-1.34,.61-2.01s-.1-1.3-.31-1.91c-.21-.6-.55-1.14-1.03-1.61s-1.11-.84-1.89-1.12c-.78-.28-1.76-.42-2.93-.42"/>
            <path class="cls-47" d="M244.98,204.59h-11.11c-.39,0-.66,.03-.79,.1-.14,.07-.22,.18-.22,.33v4.59c0,.32,.04,.55,.12,.67,.07,.13,.2,.2,.39,.2h2.94l.64-1.88h3.28l-3.3,3.33,.45,2.1h.9c.8,0,1.47,.1,2,.29,.53,.2,.8,.55,.8,1.05,0,.24-.08,.44-.23,.62-.15,.18-.35,.33-.59,.44-.24,.12-.51,.21-.82,.27-.32,.06-.61,.09-.91,.09-.88,0-1.73-.15-2.54-.46-.81-.3-1.57-.66-2.28-1.07-.12-.05-.21-.07-.29-.07-.14,0-.22,.06-.25,.18l-.69,3.88c.47,.3,1,.55,1.59,.76,.59,.2,1.21,.36,1.82,.46,.62,.11,1.22,.2,1.82,.24,.6,.05,1.13,.07,1.6,.07,1.24,0,2.31-.14,3.2-.43,.88-.29,1.61-.67,2.17-1.15,.56-.48,.97-1.04,1.23-1.69,.26-.64,.39-1.32,.39-2.03,0-.93-.31-1.79-.92-2.59-.62-.81-1.61-1.37-2.97-1.69l3.33-3.56v-2.61c0-.3-.25-.46-.76-.46"/>
            <path class="cls-47" d="M152.16,52.56c-.69,0-1.21-.17-1.57-.52-.36-.34-.53-.76-.53-1.25,0-.51,.18-.95,.56-1.34,.37-.38,.87-.57,1.51-.57,.8,0,1.38,.21,1.74,.64,.35,.42,.58,.96,.69,1.62-.26,.55-.62,.94-1.07,1.13-.46,.2-.9,.29-1.33,.29m-.12-7.33c-1.01,0-1.93,.13-2.76,.4-.85,.26-1.57,.63-2.17,1.11-.61,.49-1.09,1.08-1.43,1.79-.35,.71-.52,1.5-.52,2.38,0,.8,.14,1.51,.44,2.13,.29,.63,.69,1.16,1.22,1.59,.54,.43,1.17,.76,1.92,.99,.75,.23,1.58,.34,2.49,.34,.56,0,1.11-.07,1.64-.21,.53-.15,1.04-.39,1.53-.73-.24,1.07-.68,1.84-1.29,2.31-.62,.47-1.42,.71-2.41,.71-.45,0-.89-.05-1.33-.14-.43-.09-.83-.2-1.19-.3-.35-.11-.66-.21-.91-.31-.25-.09-.42-.14-.51-.14-.15,0-.23,.07-.25,.2l-.62,3.38c.38,.2,.79,.37,1.26,.49,.47,.13,.95,.23,1.43,.31,.49,.07,.96,.13,1.42,.16,.47,.03,.89,.05,1.26,.05,1.55,0,2.85-.25,3.9-.76,1.04-.51,1.88-1.18,2.52-2.01,.63-.84,1.08-1.79,1.35-2.87,.27-1.08,.41-2.19,.41-3.34,0-2.41-.63-4.27-1.88-5.58-1.25-1.31-3.09-1.96-5.52-1.96"/>
          </g>
        </g>
      </g>
    </g>
  </g>
</svg>