<?xml version="1.0" encoding="UTF-8"?>
<svg id="Layer_2" data-name="Layer 2" xmlns="http://www.w3.org/2000/svg" xmlns:xlink="http://www.w3.org/1999/xlink" viewBox="0 0 540 298.12">
  <defs>
    <style>
      .cls-1 {
        fill: none;
      }

      .cls-2 {
        fill: #955906;
      }

      .cls-3 {
        fill: #94662f;
      }

      .cls-4 {
        fill: #92632a;
      }

      .cls-5 {
        fill: #966730;
      }

      .cls-6 {
        fill: #98682f;
      }

      .cls-7 {
        fill: #976831;
      }

      .cls-8 {
        fill: #996930;
      }

      .cls-9 {
        fill: #9b6f3d;
      }

      .cls-10 {
        fill: #97682f;
      }

      .cls-11 {
        fill: #9c703e;
      }

      .cls-12 {
        fill: #956730;
      }

      .cls-13 {
        fill: #ffe7b3;
      }

      .cls-14 {
        fill: #93632a;
      }

      .cls-15 {
        fill: #987041;
      }

      .cls-16 {
        isolation: isolate;
      }

      .cls-17 {
        fill: #f9a84f;
      }

      .cls-18 {
        fill: #fcbd78;
      }

      .cls-19 {
        fill: #97672c;
      }

      .cls-20 {
        clip-path: url(#clippath-10);
      }

      .cls-21 {
        fill: #faab53;
      }

      .cls-22 {
        clip-path: url(#clippath-1);
      }

      .cls-23 {
        clip-path: url(#clippath-3);
      }

      .cls-24 {
        clip-path: url(#clippath-4);
      }

      .cls-25 {
        clip-path: url(#clippath-2);
      }

      .cls-26 {
        clip-path: url(#clippath-7);
      }

      .cls-27 {
        clip-path: url(#clippath-6);
      }

      .cls-28 {
        clip-path: url(#clippath-9);
      }

      .cls-29 {
        clip-path: url(#clippath-8);
      }

      .cls-30 {
        clip-path: url(#clippath-5);
      }

      .cls-31 {
        fill: #8f5503;
      }

      .cls-32 {
        fill: #fbb76d;
      }

      .cls-33 {
        fill: #91632c;
      }

      .cls-34 {
        fill: #fab265;
      }

      .cls-35 {
        fill: #faab56;
      }

      .cls-36 {
        fill: #94652d;
      }

      .cls-37 {
        fill: #95662e;
      }

      .cls-38 {
        fill: #93642d;
      }

      .cls-39 {
        fill: #f69320;
      }

      .cls-40 {
        fill: #94642a;
      }

      .cls-41 {
        fill: #ffe6b2;
      }

      .cls-42 {
        fill: #94652b;
      }

      .cls-43 {
        fill: #976c3b;
      }

      .cls-44 {
        fill: #96662b;
      }

      .cls-45 {
        fill: #faa94f;
      }

      .cls-46 {
        fill: #98672c;
      }

      .cls-47 {
        fill: #4b6496;
      }

      .cls-48 {
        fill: #93642a;
      }

      .cls-49 {
        fill: #fcb76e;
      }

      .cls-50 {
        fill: #91642e;
      }

      .cls-51 {
        fill: #fcb31a;
      }

      .cls-52 {
        fill: #95652b;
      }

      .cls-53 {
        fill: #986831;
      }

      .cls-54 {
        clip-path: url(#clippath);
      }

      .cls-55 {
        fill: #956b3a;
      }
    </style>
    <clipPath id="clippath">
      <rect class="cls-1" x="0" y="13.96" width="540" height="270.19"/>
    </clipPath>
    <clipPath id="clippath-1">
      <path class="cls-1" d="M168.87,60.19v7.61c-.15.01-3.1.27-3.19.62-.1.35-.28,5.6-.29,5.88v-7.61c0-.28.19-5.53.29-5.88.1-.35,3.04-.61,3.19-.62Z"/>
    </clipPath>
    <clipPath id="clippath-2">
      <path class="cls-1" d="M521.44,151.52v3.38c-.11.15-2.23,2.99-2.23,3.27v-3.38c0-.29,2.12-3.12,2.23-3.27Z"/>
    </clipPath>
    <clipPath id="clippath-3">
      <path class="cls-1" d="M212.5,189.2v8.45c-.39-.05-7.89-.94-8.08-1.28s-1.8-3.18-1.89-3.33v-8.45c.09.15,1.7,2.99,1.89,3.33s7.69,1.23,8.08,1.28Z"/>
    </clipPath>
    <clipPath id="clippath-4">
      <rect class="cls-1" x="275.07" y="92.32" width="98.59" height="55.33"/>
    </clipPath>
    <clipPath id="clippath-5">
      <rect class="cls-1" x="314.83" y="114.62" width="58.82" height="73.67"/>
    </clipPath>
    <clipPath id="clippath-6">
      <rect class="cls-1" x="377.3" y="86.47" width="45.65" height="50.47"/>
    </clipPath>
    <clipPath id="clippath-7">
      <rect class="cls-1" x="6.29" y="92.71" width="113.09" height="68.74"/>
    </clipPath>
    <clipPath id="clippath-8">
      <rect class="cls-1" x="162.44" y="12.27" width="62.32" height="28.12"/>
    </clipPath>
    <clipPath id="clippath-9">
      <rect class="cls-1" x="212.62" y="172.13" width="47.54" height="90.89"/>
    </clipPath>
    <clipPath id="clippath-10">
      <rect class="cls-1" x="82.87" y="44.48" width="394.21" height="177.06"/>
    </clipPath>
  </defs>
  <g id="Layer_2-2" data-name="Layer 2">
    <g>
      <g class="cls-16">
        <g class="cls-54">
          <path class="cls-47" d="M219.59,13.96c-.18,0-.36.02-.54.02l-33.8,2.35c-1.13.07-2.22.41-3.19.95l-18,10.27c-.85.48-1.58,1.14-2.14,1.92l-4.36,6.08-2.05,2.1-28.28,17.76c-1.04.64-1.85,1.55-2.38,2.58l-4.03,7.98-.83.66h-8.33c-3.95,0-5.67,1.95-11.38,9.05l-12.06,7.25-30.96,2.68c-1.49.13-2.91.7-4.03,1.62l-6.59,5.39-3.29,2.74c-.13.11-.25.23-.38.34l-9.4,9.09-29.2,10.79c-1.72.64-3.1,1.88-3.83,3.45-.71,1.56-.71,3.32.02,4.89l1.04,2.24c1.1,2.37,3.65,3.89,6.44,3.89.23,0,.48,0,.7-.03l.92-.08c.88.85,2.04,1.48,3.38,1.79l.56.12c1.12,1.03,2.57,1.69,4.16,1.87l1.62,3.16,3.45,7.85.31,2.5c.32,2.56,2.31,4.69,5.06,5.39l81.87,21.04.08.02,6.37,2.83,3.03,1.92c.1.07.18.11.28.16l13.55,7.77c1.12.64,2.42.99,3.73.99h.23c.86.34,1.82.52,2.78.52.58,0,1.15-.07,1.72-.19l.06-.02c.82.37,1.73.6,2.67.64l.91.06,2.39,1.83c1.27.96,2.86,1.48,4.5,1.48.35,0,.7-.02,1.05-.07,1.56-.21,2.98-.9,4.04-1.92.52-.11,1.04-.26,1.51-.48,1.3,1.16,3.07,1.79,4.88,1.79.43,0,.85-.03,1.29-.11l1.83.8c.95.41,1.98.61,3.01.61.64,0,1.27-.07,1.9-.23l2.35,1.56c1.22.82,2.67,1.22,4.13,1.22.71,0,1.41-.09,2.1-.29l.2.15c1.28.97,2.87,1.48,4.49,1.48.22,0,.45,0,.68-.03.49.43,1.03.8,1.61,1.09l-.56.69c-2.26,2.77-1.66,6.65,1.31,8.77l4.62,3.28c1.23.88,2.75,1.35,4.31,1.35.45,0,.88-.03,1.33-.11l.94-.16c1.6,2.15,4.3,2.88,9.87,3.56l.32.41c.34.44.76.85,1.22,1.21l.42.3c-.14.29-.25.58-.35.87-.5,1.67-.22,3.47.76,4.95l.81,1.22c-.84.57-1.54,1.32-2.03,2.2-1.19,2.13-.96,4.69.6,6.62l.76.95c.09.64.17,1.18.24,1.66-.8.91-1.79,2.09-3.08,3.61-1,1.17-1.5,2.65-1.41,4.14l.13,2.56-.67,1.17c-1.16,1.99-1.06,4.4.26,6.31l1.81,2.6c1.01,1.44,2.62,2.47,4.46,2.83.49.09.96.14,1.46.14.94,0,1.86-.18,2.73-.51l2.22.43c-.19.6-.31,1.22-.31,1.84v.73l-.49,1.15c-.2.48-.34,1-.4,1.5l-.3,2.26-.86,2.81c-.73,2.47.25,5.11,2.49,6.68l10.82,7.56c1.24.86,2.75,1.32,4.27,1.32.95,0,1.91-.18,2.82-.53,2.34-.93,3.93-2.94,4.16-5.25l.43-4.27,19.45-26.78c.32-.42.57-.87.75-1.35l4.41-11.16,1.11-1.99,8.68-12.27,15.8-1.69c1.85-.19,3.54-1.05,4.69-2.38l7.72-8.93h.24s-3.18,4.97-3.18,4.97c-.72,1.12-1.04,2.4-.93,3.7l.33,3.93c.17,1.96,1.32,3.72,3.11,4.8l4.34,2.6c1.14.69,2.5,1.05,3.86,1.05.68,0,1.36-.09,2.03-.28,1.99-.55,3.62-1.88,4.43-3.62l2.93-6.31,2.25-.96c1.78-.77,3.1-2.15,3.68-3.79l.2-.05c.28-.08.55-.17.81-.29l3.63-1.48c.91-.37,1.72-.91,2.38-1.6l5.87-6.04c.74-.77,1.26-1.68,1.54-2.67l1.82-6.7c.49-.46.98-.9,1.41-1.28,2.02-.23,5.5-.64,11.65-1.37l9.78,4.04c.93.38,1.92.56,2.9.56,1.33,0,2.65-.34,3.79-1,1.73-1.02,2.86-2.64,3.14-4.45l1.12-.08,13.28-.08c2.12-.02,4.13-.91,5.44-2.41l9.84-11.26,6.63-.05,22.87,7.7,14.8,12.75c.58.51,1.27.92,2.02,1.22l10.12,3.98c.88.36,1.83.54,2.78.54,1.16,0,2.31-.27,3.35-.77,1.9-.94,3.2-2.62,3.56-4.55l2.34-12.94,5.44,3.93c1.26.91,2.8,1.37,4.36,1.37.56,0,1.11-.05,1.66-.17l10.24-2.26,6.54.33,2.95.2c.16.02.33.02.51.02h4.46c1.08,1.05,2.55,1.76,4.22,1.95l16.39,1.89c.3.04.59.05.88.05,1.7,0,3.35-.55,4.63-1.58,1.51-1.19,2.38-2.94,2.38-4.76v-4.48c0-2.59-1.74-4.93-4.38-5.89l-5.45-1.99c-.68-.87-1.37-1.76-1.98-2.55,1.79-2.75,1.04-6.31-1.8-8.25l-6.49-4.49c-.9-.62-1.93-1.03-3.02-1.2.7-1.45.78-3.13.14-4.71l-10.43-25.69c-1.02-2.51-3.65-4.15-6.56-4.15-.22,0-.41,0-.62.02l-7.44.59c-1.15.1-2.27.46-3.25,1.03l-7.01,4.21-1.3-2.1c-1.27-2.06-3.64-3.25-6.11-3.25-.8,0-1.61.12-2.41.39l-10.67,3.56-7.16-3.72c-1.07-.56-2.27-.84-3.47-.84-.31,0-.6.02-.9.05.04-.28.04-.55.04-.82l-.4-14.79,3.63-5.83c1.29-2.06,1.21-4.59-.23-6.57-1.29-1.81-3.51-2.88-5.87-2.88-.22,0-.43,0-.66.02l-19.88,1.69c-.27.02-.52.05-.77.11l-3.75.69c-.56.11-1.11.28-1.62.51l-16.54,7.26-25.03-1.9c-.2-.02-.39-.02-.58-.02h-3.65c-.56,0-1.12.06-1.66.19l-15.76,3.5-1.61-.82c-1.06-.55-2.25-.82-3.43-.82s-2.37.27-3.43.82l-25.46,12.93c-.71.37-1.35.85-1.89,1.4l-9.69,10.26-4.27-3.02c-1.26-.9-2.79-1.35-4.31-1.35-1.18,0-2.36.27-3.43.82l-4.28,2.18-7.86-6.79c-1.32-1.16-3.08-1.75-4.84-1.75-.91,0-1.82.15-2.7.48l-5.42,2.06-2,.02-15.53.08-21.76-33.07c-.7-1.08-1.76-1.94-3.02-2.48l-18.63-8.02c-.94-.4-1.95-.62-2.99-.62h-11.94c-.16,0-.35.02-.51.02l-3.87.26c-.59-1.21-1.57-2.25-2.88-2.94-1.09-.58-2.32-.87-3.54-.87-1.58,0-3.17.5-4.46,1.44l-10.39,7.77.24-1.69c.03-.19.04-.39.05-.6,0-.46.03-.96.04-1.46,1.06-.57,1.94-1.38,2.56-2.38l12.23-20.01,1.71-1.97,22.38-15.97,13.07-3.61c1.11-.3,2.1-.85,2.92-1.59l2.43-2.2c2.66-2.42,2.73-6.32.15-8.82l-5.89-5.69c-1.33-1.28-3.18-2.01-5.1-2.01"/>
        </g>
      </g>
      <g class="cls-16">
        <polygon class="cls-15" points="52.96 88.74 52.96 90.43 50.64 90.4 50.64 88.71 52.96 88.74"/>
        <rect class="cls-15" x="119.38" y="97.51" width="12.28" height="1.69"/>
        <rect class="cls-15" x="52.96" y="106.72" width="9.59" height="1.69"/>
        <rect class="cls-15" x="62.54" y="116.26" width="30.52" height="1.69"/>
        <path class="cls-32" d="M125.88,62.11v30.69h5.78v4.71h-12.28v36.66h-26.32v-17.91h-30.52v-9.54h-9.59v-17.99l-2.31-.03,6.59-5.24,32.71-2.72,14.56-8.48c.29-.36,5.9-7.12,6.47-7.12h10.98l3.93-3.03Z"/>
        <rect class="cls-15" x="93.06" y="134.17" width="26.32" height="1.69"/>
      </g>
      <g class="cls-16">
        <polygon class="cls-48" points="181.37 40.39 181.37 48 168.87 67.8 168.87 60.19 181.37 40.39"/>
        <g class="cls-16">
          <g class="cls-22">
            <g class="cls-16">
              <path class="cls-52" d="M168.87,60.19v7.61c-.15.01-3.1.27-3.19.62-.1.35-.28,5.6-.29,5.88v-7.61c0-.28.19-5.53.29-5.88.1-.35,3.04-.61,3.19-.62"/>
            </g>
          </g>
        </g>
        <rect class="cls-46" x="156.47" y="66.69" width="8.91" height="7.61"/>
        <rect class="cls-46" x="146.4" y="74.42" width="10.07" height="7.61"/>
        <rect class="cls-46" x="128.94" y="82.22" width="5.96" height="7.61"/>
        <path class="cls-45" d="M175.65,30.83v9.57h5.71l-12.5,19.8c-.15.01-3.1.27-3.19.62-.1.35-.28,5.6-.29,5.88h-8.91v7.72h-10.07v46.78h-23.54v-25.22h12.03v-13.75h-5.96v-27.03l1.57-6.76,28.96-17.6h16.17Z"/>
        <rect class="cls-46" x="122.87" y="121.2" width="23.54" height="7.61"/>
      </g>
      <polygon class="cls-41" points="197.74 91.42 201.82 91.42 201.82 99.18 191.79 99.18 191.79 126.74 149.71 126.83 149.71 82.75 159.86 82.75 159.86 75.36 164.95 75.36 162.88 80.66 165.19 87.67 186.92 71.95 186.08 76.11 197.74 75.36 197.74 91.42"/>
      <g class="cls-16">
        <rect class="cls-2" x="200.93" y="73.85" width="4.18" height="18.6"/>
        <polygon class="cls-31" points="200.93 73.85 200.93 92.44 200.67 79.1 200.67 60.5 200.93 73.85"/>
        <rect class="cls-2" x="195.3" y="130.03" width="38.72" height="18.6"/>
        <polygon class="cls-2" points="271.7 139.07 271.7 157.67 262.58 157.76 262.58 139.16 271.7 139.07"/>
        <polygon class="cls-39" points="209.67 60.5 228.31 68.28 252.11 103.29 271.7 103.2 271.7 139.07 262.58 139.16 262.58 155.74 234.02 155.74 234.02 130.03 195.3 130.03 195.3 87.21 205.02 87.21 205.11 73.85 200.93 73.85 200.67 60.5 209.67 60.5"/>
        <rect class="cls-2" x="234.02" y="155.74" width="28.57" height="18.6"/>
      </g>
      <g class="cls-16">
        <polygon class="cls-43" points="446.15 83.86 446.15 87.24 441.58 94.37 441.58 90.99 446.15 83.86"/>
        <polygon class="cls-43" points="442 106.99 442 110.37 439.34 114.61 439.34 111.23 442 106.99"/>
        <rect class="cls-11" x="426.26" y="136.65" width="9.25" height="3.38"/>
        <polygon class="cls-9" points="509.74 138.7 509.74 142.08 502.3 146.52 502.3 143.14 509.74 138.7"/>
        <rect class="cls-11" x="435.51" y="146.02" width="60.73" height="3.38"/>
        <rect class="cls-11" x="496.24" y="154.69" width="10.1" height="3.38"/>
        <g class="cls-16">
          <g class="cls-25">
            <g class="cls-16">
              <path class="cls-55" d="M521.44,151.52v3.38c-.11.15-2.23,2.99-2.23,3.27v-3.38c0-.29,2.12-3.12,2.23-3.27"/>
            </g>
          </g>
        </g>
        <rect class="cls-11" x="506.34" y="165.3" width="9.58" height="3.38"/>
        <polygon class="cls-9" points="532.29 169.06 532.29 172.44 515.92 170.62 515.92 167.23 532.29 169.06"/>
        <path class="cls-34" d="M446.15,83.86l-4.57,7.14.42,16-2.65,4.24,3.4,3.96,7.12-1.45,10,5.02,13.73-4.44,4.99,7.81,13.29-7.72,7.44-.58,10.42,24.87-7.44,4.44,2.23,4.05h10.42l6.49,4.34c-.11.15-2.23,2.99-2.23,3.27s5.45,6.97,5.74,7.32l7.34,2.61v4.33l-16.37-1.83v-1.93h-9.58v-10.61h-10.1v-8.67h-60.73v-9.36h-9.25v-51.16l19.89-1.64Z"/>
      </g>
      <g class="cls-16">
        <polygon class="cls-53" points="414.03 155.05 414.03 161.81 402.76 161.91 402.76 155.15 414.03 155.05"/>
        <polygon class="cls-53" points="475.18 161.41 475.18 168.17 468.91 168.36 468.91 161.6 475.18 161.41"/>
        <polygon class="cls-7" points="439.44 163.34 439.44 170.1 414.03 161.81 414.03 155.05 439.44 163.34"/>
        <polygon class="cls-53" points="503.33 165.83 503.33 172.59 495.7 172.22 495.7 165.46 503.33 165.83"/>
        <polygon class="cls-5" points="484.43 167.86 484.43 174.63 475.18 168.17 475.18 161.41 484.43 167.86"/>
        <polygon class="cls-7" points="495.7 165.46 495.7 172.22 484.43 174.63 484.43 167.86 495.7 165.46"/>
        <polygon class="cls-3" points="402.76 155.15 402.76 161.91 390.84 175.12 390.84 168.35 402.76 155.15"/>
        <polygon class="cls-53" points="390.84 168.35 390.84 175.12 377.3 175.19 377.3 168.43 390.84 168.35"/>
        <polygon class="cls-12" points="455.29 176.54 455.29 183.3 439.44 170.1 439.44 163.34 455.29 176.54"/>
        <polygon class="cls-7" points="465.4 180.4 465.4 187.16 455.29 183.3 455.29 176.54 465.4 180.4"/>
        <polygon class="cls-50" points="468.91 161.6 468.91 168.36 465.4 187.16 465.4 180.4 468.91 161.6"/>
        <polygon class="cls-35" points="432.29 140.59 432.29 149.65 493.02 149.65 493.02 158.33 503.33 158.33 503.33 165.83 495.7 165.46 484.43 167.86 475.18 161.41 468.91 161.6 465.4 180.4 455.29 176.54 439.44 163.34 414.03 155.05 402.76 155.15 390.84 168.35 377.3 168.43 377.3 140.59 432.29 140.59"/>
      </g>
      <g class="cls-16">
        <rect class="cls-46" x="224.51" y="171.88" width="6.2" height="8.45"/>
        <polygon class="cls-42" points="196.97 176.32 196.97 184.77 195.3 183.06 195.3 174.6 196.97 176.32"/>
        <polygon class="cls-19" points="202.53 184.6 202.53 193.05 196.41 194.07 196.41 185.62 202.53 184.6"/>
        <polygon class="cls-52" points="196.41 185.62 196.41 194.07 191.79 190.91 191.79 182.46 196.41 185.62"/>
        <g class="cls-16">
          <g class="cls-23">
            <g class="cls-16">
              <path class="cls-52" d="M212.5,189.2v8.45c-.39-.05-7.89-.94-8.08-1.28s-1.8-3.18-1.89-3.33v-8.45c.09.15,1.7,2.99,1.89,3.33s7.69,1.23,8.08,1.28"/>
            </g>
          </g>
        </g>
        <path class="cls-45" d="M230.71,139.72v32.16h-6.2v19.89h-9.93l-2.09-2.56c-.39-.05-7.89-.94-8.08-1.28s-1.8-3.18-1.89-3.33l-6.12,1.02-4.62-3.16,5.18-6.14-1.67-1.71v-34.89h35.42Z"/>
        <polygon class="cls-40" points="214.59 191.77 214.59 200.22 212.5 197.66 212.5 189.2 214.59 191.77"/>
        <rect class="cls-46" x="214.59" y="191.77" width="9.93" height="8.45"/>
      </g>
      <g class="cls-16">
        <polygon class="cls-42" points="136.4 168.73 136.4 177.18 122.87 169.67 122.87 161.22 136.4 168.73"/>
        <polygon class="cls-44" points="138.56 168.22 138.56 176.68 136.4 177.18 136.4 168.73 138.56 168.22"/>
        <polygon class="cls-4" points="139.41 169.24 139.41 177.7 138.56 176.68 138.56 168.22 139.41 169.24"/>
        <polygon class="cls-44" points="143.18 168.4 143.18 176.85 139.41 177.7 139.41 169.24 143.18 168.4"/>
        <polygon class="cls-4" points="144.31 169.68 144.31 178.13 143.18 176.85 143.18 168.4 144.31 169.68"/>
        <polygon class="cls-44" points="161.17 169.68 161.17 178.13 156.46 178.29 156.46 169.84 161.17 169.68"/>
        <polygon class="cls-44" points="147.52 169.84 147.52 178.29 144.31 178.13 144.31 169.68 147.52 169.84"/>
        <polygon class="cls-52" points="155.24 171.13 155.24 179.58 153.55 178.81 153.55 170.35 155.24 171.13"/>
        <polygon class="cls-40" points="156.46 169.84 156.46 178.29 155.24 179.58 155.24 171.13 156.46 169.84"/>
        <polygon class="cls-44" points="165.22 171.8 165.22 180.26 163.15 180.71 163.15 172.26 165.22 171.8"/>
        <polygon class="cls-4" points="163.15 172.26 163.15 180.71 161.17 178.13 161.17 169.68 163.15 172.26"/>
        <polygon class="cls-48" points="153.55 170.35 153.55 178.81 151.66 181.37 151.66 172.91 153.55 170.35"/>
        <polygon class="cls-48" points="151.66 172.91 151.66 181.37 147.52 178.29 147.52 169.84 151.66 172.91"/>
        <polygon class="cls-44" points="172.48 172.66 172.48 181.11 169.27 181.97 169.27 173.52 172.48 172.66"/>
        <polygon class="cls-52" points="169.27 173.52 169.27 181.97 165.22 180.26 165.22 171.8 169.27 173.52"/>
        <polygon class="cls-44" points="180.95 174.71 180.95 183.16 177.66 184.44 177.66 175.99 180.95 174.71"/>
        <polygon class="cls-40" points="177.66 175.99 177.66 184.44 172.48 181.11 172.48 172.66 177.66 175.99"/>
        <polygon class="cls-40" points="184.45 177.27 184.45 185.72 180.95 183.16 180.95 174.71 184.45 177.27"/>
        <polygon class="cls-44" points="187.46 176.33 187.46 184.78 184.45 185.72 184.45 177.27 187.46 176.33"/>
        <polygon class="cls-17" points="191.79 128.35 191.79 179.06 190.1 179.06 187.46 176.33 184.45 177.27 180.95 174.71 177.66 175.99 172.48 172.66 169.27 173.52 165.22 171.8 163.15 172.26 161.17 169.68 156.46 169.84 155.24 171.13 153.55 170.35 151.66 172.91 147.52 169.84 144.31 169.68 143.18 168.4 139.41 169.24 138.56 168.22 136.4 168.73 122.87 161.22 122.87 128.35 191.79 128.35"/>
        <rect class="cls-44" x="190.1" y="179.06" width="1.69" height="8.45"/>
        <polygon class="cls-14" points="190.1 179.06 190.1 187.52 187.46 184.78 187.46 176.33 190.1 179.06"/>
      </g>
      <g class="cls-16">
        <g class="cls-24">
          <polyline class="cls-18" points="373.65 92.32 355.18 96.3 351.19 94.31 325.72 106.83 311.67 121.23 302.11 114.68 293.31 119.01 281.72 109.29 275.07 111.73 275.07 147.64 311.28 147.65 311.28 129.19 331.17 129.19 331.17 111.05 373.65 111.05 373.65 92.32"/>
        </g>
      </g>
      <g class="cls-16">
        <rect class="cls-8" x="255.29" y="173.26" width="3.68" height="6.76"/>
        <polygon class="cls-8" points="316.23 183.05 316.23 189.81 301.35 188.51 301.35 181.75 316.23 183.05"/>
        <polygon class="cls-8" points="325.72 188.17 325.72 194.93 320.91 196.24 320.91 189.48 325.72 188.17"/>
        <polygon class="cls-37" points="301.35 181.75 301.35 188.51 291.26 199.83 291.26 193.07 301.35 181.75"/>
        <polygon class="cls-6" points="320.91 192.2 320.91 198.96 316.23 200.92 316.23 194.15 320.91 192.2"/>
        <polygon class="cls-8" points="291.26 193.07 291.26 199.83 272.17 201.79 272.17 195.03 291.26 193.07"/>
        <polygon class="cls-33" points="307.95 199.92 307.95 206.68 307.59 202.87 307.59 196.11 307.95 199.92"/>
        <polygon class="cls-38" points="316.23 194.15 316.23 200.92 312.27 209.19 312.27 202.42 316.23 194.15"/>
        <polygon class="cls-10" points="312.27 202.42 312.27 209.19 307.95 206.68 307.95 199.92 312.27 202.42"/>
        <polygon class="cls-36" points="272.17 195.03 272.17 201.79 261.49 216.37 261.49 209.61 272.17 195.03"/>
        <rect class="cls-8" x="258.97" y="209.61" width="2.52" height="6.76"/>
        <polygon class="cls-21" points="323.2 148.82 323.2 176.49 325.72 176.49 325.72 188.17 320.91 189.48 320.91 192.2 316.23 194.15 312.27 202.42 307.95 199.92 307.59 196.11 316.23 183.05 301.35 181.75 291.26 193.07 272.17 195.03 261.49 209.61 258.97 209.61 258.97 173.26 255.29 173.26 255.29 165.75 265.74 165.75 265.74 148.82 323.2 148.82"/>
      </g>
      <g class="cls-16">
        <g class="cls-30">
          <path class="cls-13" d="M373.65,114.62h-38.79v17.91h-20.03v14.9h11.71v27.77h2.67l.12,13.09,5.86-5.86,2.3-8.12s4.45-3.97,4.64-3.97,15.85-1.79,15.85-1.79l11.58,4.63v-4.04l4.1-1.07v-53.46"/>
        </g>
      </g>
      <g class="cls-16">
        <g class="cls-27">
          <polyline class="cls-13" points="422.5 86.47 404.24 94.23 377.3 92.24 377.3 136.94 422.95 136.94 422.5 86.47"/>
        </g>
      </g>
      <g class="cls-16">
        <g class="cls-26">
          <polyline class="cls-13" points="48.93 92.71 47.37 92.71 36.91 102.5 6.29 113.47 7.33 115.64 13.91 115.07 14.02 117.45 16.63 118.01 17.89 119.24 21.75 119.62 25.1 125.97 28.97 134.49 29.38 137.72 111.96 158.27 119.38 161.45 119.38 139.04 89.17 139.04 89.17 120.47 59.08 120.47 59.08 110.9 48.93 110.9 48.93 92.71"/>
        </g>
      </g>
      <g class="cls-16">
        <g class="cls-29">
          <polyline class="cls-13" points="218.89 12.27 185.08 14.55 167.09 24.48 162.44 30.78 178.92 30.78 178.92 40.39 183.93 40.39 208.01 23.76 222.34 19.94 224.77 17.79 218.89 12.27"/>
        </g>
      </g>
      <g class="cls-16">
        <g class="cls-28">
          <path class="cls-49" d="M252.59,172.13h-18.86v9.36h-6.36v20.16l-8.64-.03s1.92,1.97,2.16,2.29c.24.33-3.84,2.28-3.84,2.28l3.01,4.35-.13,4.9h-3.84l1.81,2.18s.84,5.44.94,5.86c0,0,0,0,0,0-.26,0-4.91,5.35-4.91,5.35l.24,4.14-1.56,2.61,1.8,2.5,1.44-.87,5.76,1.08,5.76-4.35,3.97,3.48-5.28,8.48v1.85l-.96,2.18-.36,2.61-.96,3.16,10.81,7.32.6-5.69,20.4-27.2,4.56-11.14h-4.2v-36.23h-3.36v-10.63"/>
        </g>
      </g>
      <g class="cls-16">
        <g class="cls-20">
          <g>
            <path class="cls-47" d="M219.42,146.62c-.84,0-1.67.08-2.46.24-.76.16-1.49.38-2.17.64-.71.28-1.37.62-1.95,1.01-.58.39-1.09.82-1.51,1.27l-.72.77v.12l.94,5.32c.15,1.03.92,1.83,1.96,2.1-.39.26-.76.5-1.1.73h.94l.24,1.35c.61-.4,1.31-.86,2.1-1.38.81-.54,1.57-1.09,2.27-1.67.69-.57,1.29-1.13,1.77-1.69.49-.55.73-1.04.73-1.48s-.15-.77-.45-1c-.3-.23-.72-.34-1.26-.34-.65,0-1.31.23-1.95.68-.66.45-1.25.98-1.8,1.58-.16.19-.32.29-.47.29-.19,0-.3-.09-.31-.26l-.78-4.44c.3-.32.67-.63,1.1-.91.42-.29.91-.54,1.45-.75.54-.21,1.12-.38,1.74-.51.62-.12,1.25-.19,1.91-.19,1.17,0,2.15.14,2.93.42.78.28,1.41.65,1.89,1.12.48.46.82,1,1.03,1.62.2.6.31,1.24.31,1.9s-.21,1.35-.62,2.01c-.4.67-.92,1.31-1.54,1.92-.61.62-1.29,1.2-2.02,1.73-.72.53-1.4,1-2.04,1.41h3.62l.64-1.88h2.94c.18,0,.31.07.39.2.08.12.12.35.12.67v4.67c0,.14-.08.24-.23.31-.15.07-.42.1-.81.1h-11.31c-.29,0-.49-.06-.62-.2l.09.5v.17c0,.89-.49,1.67-1.33,2.1-.04.02-.08.04-.12.06.51.28,1.12.43,1.79.43h11.3c.82,0,1.4-.11,1.94-.34.98-.46,1.59-1.35,1.59-2.33v-4.67c0-.71-.13-1.26-.4-1.74-.4-.69-1.11-1.16-1.93-1.32.57-.97.86-1.98.86-3,0-.88-.14-1.75-.41-2.57-.32-.94-.85-1.77-1.58-2.49-.73-.71-1.67-1.28-2.8-1.68-1.09-.39-2.35-.58-3.86-.58"/>
            <path class="cls-47" d="M200.46,152.57c-.37,0-.62-.03-.76-.1-.13-.07-.2-.18-.2-.33l.7-3.87h7.11c.38,0,.64.03.8.1.15.07.23.18.23.33v11.14h3.08l.7,3.88c0,.15-.06.26-.2.33-.13.07-.38.11-.76.11h-11c-.37,0-.62-.04-.76-.11-.13-.07-.2-.18-.2-.33l.7-3.88h3.08v-7.26h-2.55M207.31,147.26h-9.02l-1.04,5.75v.17c0,.88.49,1.67,1.32,2.1.64.33,1.33.37,1.87.37h.31v3.18h-2.74l-1.04,5.75v.17c0,.89.5,1.67,1.32,2.1.63.33,1.33.38,1.87.38h11.01c.5,0,1.15-.04,1.74-.31.04-.02.08-.04.12-.06.84-.43,1.33-1.22,1.33-2.1v-.17l-.09-.5c-.07-.07-.12-.17-.14-.29l-.64-3.57s.05-.03.07-.05l-.24-1.35h-2.74v-9.09c0-.94-.59-1.77-1.54-2.18-.48-.2-1.03-.29-1.76-.29"/>
            <path class="cls-51" d="M207.31,148.26h-7.11l-.7,3.87c0,.15.07.27.2.33.14.07.39.1.76.1h2.55v7.26h-3.08l-.7,3.88c0,.15.07.26.2.33.13.07.39.11.76.11h11c.38,0,.63-.04.76-.11.13-.07.2-.18.2-.33l-.7-3.88h-3.08v-11.14c0-.15-.08-.26-.23-.33-.16-.07-.42-.1-.8-.1"/>
            <path class="cls-51" d="M219.62,148.09c-.66,0-1.29.07-1.91.19-.61.13-1.2.29-1.74.51-.54.21-1.03.46-1.45.75-.43.29-.8.6-1.1.91l.78,4.44c.02.17.13.26.31.26.14,0,.31-.1.47-.29.55-.6,1.14-1.13,1.8-1.58.65-.45,1.3-.68,1.95-.68.54,0,.96.11,1.26.34.3.23.45.56.45,1s-.24.94-.73,1.48c-.49.55-1.08,1.12-1.77,1.69-.7.58-1.46,1.13-2.27,1.67-.79.53-1.48.98-2.1,1.38-.02.02-.05.03-.07.05l.64,3.57c.02.12.06.21.14.29.13.13.33.2.62.2h11.31c.39,0,.66-.03.81-.1.14-.07.23-.17.23-.31v-4.67c0-.32-.04-.55-.12-.67-.07-.13-.21-.2-.39-.2h-2.94l-.64,1.88h-3.62c.64-.41,1.32-.88,2.04-1.41.73-.53,1.4-1.11,2.02-1.73.62-.61,1.13-1.26,1.54-1.92.41-.67.62-1.34.62-2.01s-.11-1.3-.31-1.9c-.21-.61-.55-1.15-1.03-1.62-.48-.46-1.11-.84-1.89-1.12-.78-.28-1.76-.42-2.93-.42"/>
            <path class="cls-47" d="M161.54,155.4c-.23,0-.39-.04-.49-.11-.1-.08-.16-.19-.2-.31l-.55-2.78,4.62-9.05c.08-.12.17-.22.27-.27.1-.06.32-.09.67-.09h3.41c.37,0,.62.03.76.1.14.07.21.16.21.31l-4.77,9.01h2.62v-3.75c0-.15.06-.24.2-.31.13-.07.39-.1.77-.1h2.67c.35,0,.59.03.75.1.14.07.22.16.22.31v3.75h.81c.35,0,.59.03.71.1.12.06.18.16.18.3l-.52,2.81h-1.18v1.88c0,.13-.08.22-.22.29-.15.07-.4.1-.75.1h-2.67c-.39,0-.65-.03-.77-.1-.14-.07-.2-.15-.2-.29v-1.88h-6.55M169.31,141.51h-3.58c-.62,0-1.35.05-2.04.45-.4.24-.75.56-1.04.97l-4.94,9.67h2.41l1.04,5.75v.16c0,.25-.04.49-.11.72.05,0,.09,0,.14,0h4.44c.09.86.64,1.6,1.49,2,.67.33,1.41.37,1.98.37h2.82c.75,0,1.33-.1,1.83-.31.93-.39,1.54-1.17,1.63-2.06h.87l.9-4.8.04-.38c0-.95-.53-1.79-1.44-2.26-.11-.06-.22-.11-.35-.15v-1.95c0-1.01-.63-1.91-1.66-2.35-.49-.21-1.08-.31-1.82-.31h-.36l1.24-2.35v-.51c0-.98-.59-1.87-1.58-2.32-.5-.24-1.09-.33-1.89-.33"/>
            <path class="cls-51" d="M169.27,142.78h-3.41c-.34,0-.57.03-.67.09-.1.05-.19.15-.27.27l-4.62,9.05.55,2.78c.04.12.1.23.2.31.1.07.26.11.49.11h6.55v1.88c0,.13.06.22.2.29.13.07.39.1.77.1h2.67c.35,0,.59-.03.75-.1.14-.07.22-.15.22-.29v-1.88h1.18l.52-2.81c0-.14-.06-.24-.18-.3-.13-.07-.36-.1-.71-.1h-.81v-3.75c0-.15-.08-.24-.22-.31-.15-.07-.4-.1-.75-.1h-2.67c-.39,0-.65.03-.77.1-.14.07-.2.16-.2.31v3.75h-2.62l4.77-9.01c0-.15-.07-.24-.21-.31-.14-.07-.4-.1-.76-.1"/>
            <path class="cls-47" d="M147.23,146.34c-.37,0-.62-.03-.76-.11-.13-.07-.19-.17-.19-.33l.69-3.88h7.11c.38,0,.64.03.8.11.16.07.23.17.23.33v11.13h3.09l.69,3.88c0,.15-.06.26-.19.33-.14.07-.39.1-.76.1h-11.01c-.37,0-.62-.03-.76-.1-.13-.07-.2-.18-.2-.33l.7-3.88h3.08v-7.25h-2.55M154.09,141.02h-9.02l-1.04,5.76v.16c0,.89.49,1.67,1.32,2.1.64.33,1.34.37,1.88.37h.3v3.18h-2.74l-1.04,5.75v.16c0,.89.5,1.68,1.32,2.1.63.33,1.33.37,1.87.37h11.01c.53,0,1.23-.04,1.86-.37.6-.31,1.03-.81,1.22-1.39.07-.23.11-.47.11-.72v-.16l-1.04-5.75h-2.74v-9.1c0-.94-.59-1.77-1.54-2.17-.47-.2-1.03-.3-1.76-.3"/>
            <path class="cls-51" d="M154.09,142.02h-7.11l-.69,3.88c0,.15.06.26.19.33.14.07.39.11.76.11h2.55v7.25h-3.08l-.7,3.88c0,.15.07.26.2.33.13.07.39.1.76.1h11.01c.37,0,.62-.03.76-.1.13-.07.19-.18.19-.33l-.69-3.88h-3.09v-11.13c0-.15-.07-.26-.23-.33-.16-.07-.42-.11-.8-.11"/>
            <path class="cls-47" d="M86.8,97.53c-.19,0-.29-.09-.31-.25l-.79-4.45c.31-.32.67-.62,1.1-.91.42-.29.91-.53,1.45-.74.55-.21,1.12-.38,1.74-.51.62-.12,1.25-.19,1.91-.19,1.17,0,2.15.14,2.93.42.78.29,1.41.65,1.89,1.12.48.46.82,1,1.03,1.62.21.6.31,1.24.31,1.9s-.21,1.35-.61,2.01c-.41.67-.93,1.31-1.54,1.93-.62.61-1.29,1.19-2.02,1.72-.73.54-1.41,1-2.04,1.41h3.61l.64-1.88h2.94c.19,0,.32.06.39.19.08.13.12.35.12.67v4.67c0,.13-.07.24-.22.3-.15.07-.42.11-.81.11h-11.31c-.44,0-.69-.16-.76-.49l-.64-3.57c.63-.41,1.36-.88,2.17-1.42.81-.55,1.57-1.1,2.27-1.68.69-.57,1.29-1.13,1.77-1.68.49-.55.73-1.04.73-1.48s-.14-.77-.45-1c-.3-.23-.71-.34-1.26-.34-.65,0-1.31.22-1.95.67-.66.45-1.25.98-1.79,1.59-.17.18-.33.28-.48.28M91.71,89.26c-.85,0-1.67.08-2.46.24-.76.15-1.49.37-2.18.64-.71.28-1.37.62-1.95,1-.58.39-1.09.82-1.51,1.28l-.74.79.95,5.42c.15,1.03.93,1.82,1.96,2.1-.59.39-1.13.75-1.62,1.06l-1.29.82.9,4.97c.25,1.44,1.55,2.39,3.22,2.39h11.3c.82,0,1.4-.1,1.94-.34.98-.45,1.59-1.34,1.59-2.32v-4.67c0-.72-.13-1.26-.4-1.74-.41-.69-1.12-1.17-1.94-1.33.57-.97.86-1.97.86-3,0-.87-.14-1.74-.42-2.56-.32-.94-.85-1.78-1.57-2.49-.74-.72-1.68-1.29-2.81-1.69-1.09-.38-2.35-.57-3.85-.57"/>
            <path class="cls-51" d="M91.9,90.47c-.66,0-1.29.07-1.91.19-.61.13-1.19.3-1.74.51-.54.21-1.03.46-1.45.74-.43.29-.79.6-1.1.91l.79,4.45c.02.16.12.25.31.25.14,0,.31-.1.48-.28.54-.61,1.13-1.14,1.79-1.59.65-.45,1.31-.67,1.95-.67.55,0,.96.11,1.26.34.31.23.45.56.45,1s-.24.93-.73,1.48c-.49.55-1.08,1.11-1.77,1.68-.7.58-1.46,1.13-2.27,1.68-.81.54-1.54,1.01-2.17,1.42l.64,3.57c.06.33.32.49.76.49h11.31c.39,0,.66-.04.81-.11.15-.07.22-.17.22-.3v-4.67c0-.32-.04-.54-.12-.67-.07-.13-.2-.19-.39-.19h-2.94l-.64,1.88h-3.61c.63-.41,1.31-.87,2.04-1.41.73-.53,1.39-1.11,2.02-1.72.61-.62,1.12-1.26,1.54-1.93.4-.67.61-1.34.61-2.01s-.1-1.3-.31-1.9c-.21-.61-.55-1.15-1.03-1.62-.48-.46-1.11-.83-1.89-1.12-.78-.28-1.76-.42-2.93-.42"/>
            <path class="cls-47" d="M460.39,138.25c-.24,0-.41-.04-.51-.12-.11-.08-.17-.2-.21-.33l-.59-2.96,4.93-9.67c.09-.14.19-.24.29-.29.11-.07.34-.09.72-.09h3.64c.39,0,.66.03.81.1.15.07.23.18.23.33l-5.09,9.62h2.8v-4.01c0-.15.07-.26.21-.33.14-.07.41-.11.83-.11h2.85c.38,0,.64.03.8.11.16.07.23.17.23.33v4.01h.87c.37,0,.62.03.76.1.13.07.2.18.2.33l-.57,2.99h-1.26v2.01c0,.14-.07.24-.23.3-.16.07-.42.11-.8.11h-2.85c-.41,0-.68-.03-.83-.11-.13-.07-.21-.16-.21-.3v-2.01h-7M468.69,123.42h-3.83c-.67,0-1.44.05-2.18.47-.43.25-.8.6-1.11,1.04l-5.68,11.11.76,3.86.05.15c.16.61.51,1.14.99,1.53.42.34,1.16.76,2.32.76h4.73c.1.91.68,1.7,1.59,2.14.71.35,1.5.39,2.11.39h3c.8,0,1.42-.11,1.95-.33.99-.42,1.64-1.26,1.75-2.2h.94l.95-5.13.04-.4c0-1-.57-1.91-1.53-2.41-.13-.07-.25-.11-.38-.16v-2.09c0-1.08-.67-2.03-1.76-2.5-.54-.22-1.15-.33-1.95-.33h-.38l1.33-2.51v-.55c0-1.05-.65-2-1.7-2.48-.54-.24-1.16-.35-2.02-.35"/>
            <path class="cls-51" d="M468.66,124.79h-3.64c-.38,0-.61.02-.72.09-.1.06-.2.15-.29.29l-4.93,9.67.59,2.96c.04.14.1.25.21.33.1.08.27.12.51.12h7v2.01c0,.14.07.24.21.3.14.07.41.11.83.11h2.85c.38,0,.64-.03.8-.11.16-.07.23-.16.23-.3v-2.01h1.26l.57-2.99c0-.15-.07-.26-.2-.33-.13-.07-.39-.1-.76-.1h-.87v-4.01c0-.15-.07-.26-.23-.33-.16-.07-.42-.11-.8-.11h-2.85c-.41,0-.68.03-.83.11-.13.07-.21.17-.21.33v4.01h-2.8l5.09-9.62c0-.15-.07-.26-.23-.33-.15-.07-.42-.1-.81-.1"/>
            <path class="cls-47" d="M157.98,48.99c-.32,0-.58.09-.84.27-.24.18-.45.43-.62.74-.17.32-.31.68-.4,1.09-.09.41-.14.85-.14,1.31s.04.9.14,1.31c.09.41.22.77.4,1.08.17.32.38.56.62.74.25.19.52.28.84.28s.59-.09.83-.28c.24-.18.46-.42.62-.74.17-.31.31-.68.4-1.08.09-.42.14-.85.14-1.31s-.05-.9-.14-1.31c-.09-.42-.22-.77-.4-1.09-.16-.31-.38-.56-.62-.74s-.52-.27-.83-.27M157.98,59.21c-1.23,0-2.25-.22-3.04-.66-.79-.44-1.42-1-1.87-1.66-.46-.67-.77-1.41-.94-2.21-.18-.81-.27-1.56-.27-2.28s.09-1.47.27-2.27c.17-.81.49-1.54.94-2.21.45-.68,1.08-1.23,1.87-1.67.79-.43,1.81-.65,3.04-.65s2.24.22,3.03.65c.79.44,1.42,1,1.87,1.67.46.67.77,1.4.95,2.21.17.8.26,1.56.26,2.27s-.09,1.47-.26,2.28c-.18.8-.5,1.54-.95,2.21-.45.67-1.08,1.22-1.87,1.66-.79.44-1.8.66-3.03.66M157.98,44.48c-1.61,0-3,.31-4.12.93-1.07.6-1.93,1.36-2.55,2.28-.59.86-.99,1.8-1.22,2.82-.21.91-.31,1.8-.31,2.64,0,.42.03.86.08,1.31h1.72l.86,4.76v.14c0,.17-.02.33-.06.49.44.4.93.75,1.48,1.05,1.12.62,2.5.94,4.12.94s3-.32,4.11-.94c1.07-.6,1.93-1.36,2.56-2.28.58-.86.99-1.8,1.21-2.82.21-.92.32-1.81.32-2.63s-.11-1.72-.32-2.64c-.22-1.02-.63-1.97-1.21-2.82-.63-.92-1.49-1.69-2.56-2.28-1.12-.62-2.5-.93-4.11-.93"/>
            <path class="cls-47" d="M140.95,49.3c-.32,0-.52-.02-.63-.08s-.16-.15-.16-.27l.58-3.21h5.87c.31,0,.53.02.66.08.13.06.2.15.2.27v9.2h2.54l.59,3.21c0,.12-.05.21-.16.27-.11.06-.32.08-.63.08h-9.08c-.31,0-.51-.02-.62-.08-.11-.06-.16-.15-.16-.27l.58-3.21h2.54v-6h-2.1M146.61,44.91h-7.45l-.85,4.76v.14c0,.73.41,1.38,1.1,1.73.52.28,1.1.31,1.55.31h.24v2.62h-2.26l-.86,4.76v.14c0,.73.41,1.38,1.1,1.73.52.27,1.11.31,1.55.31h9.09c.44,0,1.02-.04,1.54-.31.53-.27.89-.72,1.03-1.24.04-.16.06-.32.06-.49v-.14l-.86-4.76h-2.26v-7.5c0-.78-.49-1.47-1.27-1.8-.4-.16-.85-.24-1.45-.24"/>
            <path class="cls-51" d="M146.61,45.74h-5.87l-.58,3.21c0,.12.05.21.16.27s.31.08.63.08h2.1v6h-2.54l-.58,3.21c0,.12.05.21.16.27.11.06.32.08.62.08h9.08c.32,0,.52-.02.63-.08.11-.06.16-.15.16-.27l-.59-3.21h-2.54v-9.2c0-.12-.06-.21-.2-.27-.13-.06-.35-.08-.66-.08"/>
            <path class="cls-51" d="M157.98,55.82c-.32,0-.58-.09-.84-.28-.24-.18-.45-.42-.62-.74-.17-.31-.31-.68-.4-1.08-.09-.42-.14-.85-.14-1.31s.04-.9.14-1.31c.09-.42.22-.77.4-1.09.17-.31.38-.56.62-.74.25-.18.52-.27.84-.27s.59.09.83.27.46.43.62.74c.17.32.31.68.4,1.09.09.41.14.85.14,1.31s-.05.9-.14,1.31c-.09.41-.22.77-.4,1.08-.16.32-.38.56-.62.74-.24.19-.52.28-.83.28M157.98,45.6c-1.23,0-2.25.22-3.04.65-.79.44-1.42,1-1.87,1.67-.46.67-.77,1.4-.94,2.21-.18.8-.27,1.56-.27,2.27s.09,1.47.27,2.28c.17.8.49,1.54.94,2.21.45.67,1.08,1.22,1.87,1.66.79.44,1.81.66,3.04.66s2.24-.22,3.03-.66c.79-.44,1.42-1,1.87-1.66.46-.67.77-1.41.95-2.21.17-.81.26-1.56.26-2.28s-.09-1.47-.26-2.27c-.18-.81-.5-1.54-.95-2.21-.45-.68-1.08-1.23-1.87-1.67-.79-.43-1.8-.65-3.03-.65"/>
            <path class="cls-47" d="M223.6,97.96h-12.31c-.91,0-1.57.11-2.13.39-1.03.5-1.64,1.43-1.64,2.49v5.08c0,.77.14,1.37.43,1.88.55.93,1.58,1.48,2.78,1.48h1.4l.17.77h-.02c-.49-.24-1-.35-1.49-.35-1.47,0-2.68.94-2.9,2.23l-.77,4.28c-.16.91.25,1.8,1.06,2.34.71.46,1.51.84,2.39,1.14.8.27,1.62.48,2.44.63.76.13,1.53.24,2.28.3.75.07,1.42.09,2.02.09,1.68,0,3.18-.2,4.45-.62,1.32-.42,2.45-1.03,3.33-1.79.09-.08.18-.16.26-.24-.01-.05-.02-.1-.03-.15l-.93-5.16c-.05.14-.1.28-.15.42-.28.68-.71,1.27-1.3,1.78-.59.51-1.36.92-2.3,1.22-.93.3-2.06.46-3.37.46-.49,0-1.05-.03-1.68-.08-.63-.06-1.27-.14-1.93-.25-.65-.12-1.29-.29-1.92-.5-.63-.21-1.19-.48-1.68-.81l.74-4.09c.02-.12.11-.19.27-.19.07,0,.17.03.3.08.75.43,1.55.81,2.4,1.13.86.32,1.75.48,2.67.48.32,0,.63-.03.96-.09.32-.07.61-.15.86-.29.26-.12.47-.28.62-.46.16-.19.23-.41.23-.66,0-.53-.28-.91-.84-1.11-.56-.2-1.27-.31-2.12-.31h-.94l-.47-2.22,3.48-3.51h-3.46l-.67,1.98h-3.11c-.2,0-.33-.07-.41-.2-.08-.14-.12-.38-.12-.71v-4.85c0-.16.07-.28.22-.35.14-.07.42-.11.84-.11h11.73c.53,0,.79.16.79.48v2.76l-3.51,3.74c1.44.34,2.48.94,3.13,1.78.65.85.97,1.77.97,2.75,0,.45-.05.88-.14,1.29l1.23-.79c.51-.33,1.06-.69,1.67-1.09-.01-.04-.03-.09-.04-.13-1.06-.34-1.83-1.19-1.99-2.26l-.16-.91c-.09-.07-.18-.15-.27-.22l.2-.21-.82-4.64.82-.87c.46-.51,1.03-.97,1.66-1.4.02-.01.04-.02.05-.04-.45-1.01-1.55-1.82-3.25-1.82"/>
            <path class="cls-51" d="M223.25,99.53h-11.73c-.41,0-.69.03-.84.11-.15.07-.22.19-.22.35v4.85c0,.33.04.57.12.71.08.13.22.2.41.2h3.11l.67-1.98h3.46l-3.48,3.51.47,2.22h.94c.85,0,1.56.11,2.12.31.56.2.84.58.84,1.11,0,.25-.07.47-.23.66-.15.19-.36.34-.62.46-.25.13-.54.22-.86.29-.33.06-.65.09-.96.09-.93,0-1.82-.16-2.67-.48-.85-.32-1.66-.69-2.4-1.13-.13-.05-.22-.08-.3-.08-.16,0-.25.07-.27.19l-.74,4.09c.49.33,1.05.6,1.68.81.63.21,1.27.38,1.92.5.66.11,1.3.2,1.93.25.63.05,1.19.08,1.68.08,1.31,0,2.45-.15,3.37-.46.94-.3,1.7-.71,2.3-1.22.58-.51,1.02-1.1,1.3-1.78.06-.14.11-.28.15-.42l-.06-.31.17-.11c.1-.42.14-.85.14-1.29,0-.98-.32-1.9-.97-2.75-.65-.84-1.69-1.44-3.13-1.78l3.51-3.74v-2.76c0-.32-.26-.48-.79-.48"/>
            <path class="cls-47" d="M287.73,130.28c-.19,0-.3-.09-.32-.25l-.78-4.45c.3-.32.67-.62,1.1-.91.42-.29.91-.53,1.45-.74s1.12-.38,1.74-.51c.62-.12,1.25-.19,1.91-.19,1.17,0,2.15.14,2.93.42.78.29,1.41.65,1.89,1.12.48.46.82,1,1.03,1.62.2.6.31,1.24.31,1.9s-.21,1.35-.62,2.01c-.4.67-.92,1.31-1.54,1.93-.61.61-1.29,1.19-2.02,1.72-.72.53-1.4,1-2.04,1.41h3.62l.64-1.88h2.94c.18,0,.32.06.39.19.08.13.12.35.12.67v4.67c0,.13-.08.24-.23.3-.15.07-.42.1-.81.1h-11.31c-.45,0-.7-.15-.76-.48l-.64-3.57c.63-.41,1.35-.88,2.17-1.42.81-.55,1.57-1.1,2.27-1.68.69-.57,1.29-1.13,1.77-1.69.49-.55.73-1.04.73-1.48s-.15-.77-.45-1c-.3-.23-.72-.34-1.26-.34-.65,0-1.3.22-1.96.67-.65.45-1.24.98-1.79,1.59-.16.18-.32.28-.47.28M292.63,122.01c-.84,0-1.66.08-2.46.24-.76.15-1.49.37-2.17.64-.71.28-1.37.61-1.95,1-.59.39-1.09.82-1.51,1.27l-.74.8.95,5.42c.15,1.03.92,1.82,1.96,2.1-.59.39-1.14.75-1.63,1.06l-1.28.82.89,4.97c.25,1.44,1.55,2.39,3.23,2.39h11.3c.81,0,1.4-.1,1.94-.34.98-.45,1.59-1.34,1.59-2.32v-4.67c0-.72-.13-1.26-.4-1.74-.4-.69-1.11-1.17-1.93-1.33.57-.97.86-1.97.86-3,0-.88-.14-1.74-.41-2.56-.32-.94-.85-1.78-1.58-2.49-.73-.72-1.67-1.29-2.8-1.69-1.09-.38-2.35-.57-3.86-.57"/>
            <path class="cls-51" d="M292.82,123.22c-.66,0-1.29.07-1.91.19-.61.13-1.2.3-1.74.51s-1.03.46-1.45.74c-.43.29-.8.6-1.1.91l.78,4.45c.02.16.13.25.32.25.14,0,.31-.1.47-.28.55-.61,1.14-1.14,1.79-1.59.66-.45,1.31-.67,1.96-.67.54,0,.96.11,1.26.34.3.23.45.56.45,1s-.24.93-.73,1.48c-.49.55-1.08,1.12-1.77,1.69-.7.58-1.46,1.13-2.27,1.68-.82.54-1.54,1.01-2.17,1.42l.64,3.57c.05.33.31.48.76.48h11.31c.39,0,.66-.03.81-.1.14-.07.23-.17.23-.3v-4.67c0-.32-.04-.54-.12-.67-.07-.13-.21-.19-.39-.19h-2.94l-.64,1.88h-3.62c.64-.41,1.32-.88,2.04-1.41.73-.53,1.4-1.11,2.02-1.72.62-.62,1.13-1.26,1.54-1.93.41-.67.62-1.34.62-2.01s-.11-1.3-.31-1.9c-.21-.61-.55-1.15-1.03-1.62-.48-.46-1.11-.83-1.89-1.12-.78-.28-1.76-.42-2.93-.42"/>
            <path class="cls-47" d="M239.56,211.13c-.4,0-.75.06-1.03.15-.29.11-.51.24-.7.42-.18.16-.32.35-.4.56-.09.21-.13.43-.13.66,0,.46.17.87.52,1.25.34.38.93.56,1.74.56s1.4-.19,1.75-.56c.35-.38.52-.79.52-1.25,0-.23-.04-.45-.13-.66-.09-.21-.22-.4-.41-.56-.18-.17-.41-.31-.69-.42-.28-.1-.62-.15-1.04-.15M239.56,204.68c-.48,0-.92.11-1.3.32s-.58.6-.58,1.16.2.95.58,1.16.83.32,1.3.32.93-.11,1.31-.32c.39-.21.58-.6.58-1.16s-.19-.95-.58-1.16c-.39-.21-.83-.32-1.31-.32M239.56,218.25c-1.1,0-2.11-.11-3.03-.3-.92-.2-1.72-.52-2.39-.95-.67-.43-1.19-.98-1.56-1.65-.36-.67-.55-1.47-.55-2.4,0-.37.06-.73.17-1.11.12-.37.29-.72.49-1.05.22-.33.47-.64.76-.92.3-.28.61-.51.96-.69-.49-.38-.89-.84-1.21-1.35-.32-.52-.48-1.08-.48-1.67,0-1.57.58-2.79,1.73-3.69,1.15-.9,2.85-1.35,5.09-1.35s3.95.45,5.1,1.35c1.15.9,1.73,2.12,1.73,3.69,0,.6-.16,1.15-.48,1.67-.32.51-.72.97-1.21,1.35.35.18.67.41.95.69.3.29.55.59.76.92.22.33.38.69.49,1.05.12.38.18.74.18,1.11,0,.93-.19,1.73-.56,2.4-.37.67-.88,1.22-1.56,1.65-.67.42-1.46.74-2.38.95-.93.2-1.93.3-3.04.3M239.53,199.72c-2.88,0-5.16.64-6.79,1.91-1.73,1.34-2.64,3.23-2.64,5.47,0,.99.27,1.93.79,2.8-.17.21-.32.43-.47.65-.32.5-.58,1.04-.75,1.59-.18.58-.28,1.17-.28,1.75,0,1.29.28,2.46.83,3.45.56,1.01,1.36,1.85,2.38,2.5.94.6,2.03,1.04,3.28,1.32,1.12.24,2.34.37,3.65.37s2.53-.12,3.64-.37c1.24-.28,2.34-.72,3.28-1.32,1.02-.65,1.82-1.49,2.38-2.5.54-1,.83-2.16.83-3.45,0-.59-.1-1.17-.28-1.75-.17-.55-.42-1.09-.75-1.59-.14-.23-.3-.45-.47-.65.52-.86.79-1.81.79-2.8,0-2.24-.91-4.14-2.64-5.47-1.63-1.26-3.91-1.91-6.79-1.91"/>
            <path class="cls-51" d="M239.56,214.74c-.81,0-1.39-.19-1.74-.56-.35-.38-.52-.79-.52-1.25,0-.23.04-.45.13-.66.09-.21.23-.4.4-.56.19-.17.41-.31.7-.42.28-.1.62-.15,1.03-.15s.76.06,1.04.15c.28.11.51.24.69.42.19.16.32.35.41.56.08.21.13.43.13.66,0,.46-.17.87-.52,1.25-.35.38-.93.56-1.75.56M239.56,207.64c-.48,0-.92-.11-1.3-.32s-.58-.6-.58-1.16.2-.95.58-1.16.83-.32,1.3-.32.93.11,1.31.32c.39.21.58.6.58,1.16s-.19.95-.58,1.16c-.39.21-.83.32-1.31.32M239.56,201.13c-2.24,0-3.94.45-5.09,1.35-1.15.9-1.73,2.12-1.73,3.69,0,.6.15,1.15.48,1.67.32.51.72.97,1.21,1.35-.35.18-.67.41-.96.69-.29.29-.54.59-.76.92-.21.33-.38.69-.49,1.05-.11.38-.17.74-.17,1.11,0,.93.19,1.73.55,2.4.37.67.89,1.22,1.56,1.65.67.42,1.47.74,2.39.95.92.2,1.93.3,3.03.3s2.12-.11,3.04-.3c.92-.2,1.71-.52,2.38-.95.68-.43,1.19-.98,1.56-1.65.37-.67.56-1.47.56-2.4,0-.37-.06-.73-.18-1.11-.12-.37-.28-.72-.49-1.05-.21-.33-.46-.64-.76-.92-.29-.28-.6-.51-.95-.69.49-.38.88-.84,1.21-1.35.32-.52.48-1.08.48-1.67,0-1.57-.58-2.79-1.73-3.69-1.15-.9-2.85-1.35-5.1-1.35"/>
            <path class="cls-47" d="M228.64,106.83c-.21,0-.32-.1-.34-.29l-.86-4.89c.32-.36.73-.69,1.21-1.01.47-.32,1-.59,1.6-.82.59-.23,1.23-.42,1.91-.55.68-.15,1.38-.21,2.1-.21,1.3,0,2.38.15,3.24.46.86.31,1.56.72,2.09,1.23.52.51.9,1.11,1.12,1.78.23.67.33,1.37.33,2.1s-.23,1.48-.67,2.22c-.45.74-1.02,1.45-1.69,2.13-.68.68-1.42,1.31-2.22,1.9-.8.59-1.56,1.1-2.25,1.55h3.98l.7-2.06h3.24c.21,0,.35.07.43.2s.13.39.13.74v5.15c0,.15-.08.26-.24.33-.17.07-.47.11-.9.11h-12.46c-.49,0-.77-.18-.84-.53l-.71-3.95c.7-.45,1.49-.97,2.39-1.57.89-.6,1.73-1.21,2.49-1.84.77-.64,1.43-1.26,1.96-1.86.53-.6.8-1.15.8-1.63s-.16-.86-.49-1.11c-.32-.25-.79-.38-1.39-.38-.72,0-1.44.24-2.16.74-.72.49-1.38,1.08-1.97,1.75-.19.2-.36.31-.52.31M234.04,97.72c-.93,0-1.84.09-2.71.27-.84.18-1.65.42-2.39.71-.76.29-1.47.66-2.1,1.07-.02.01-.04.02-.05.04-.64.43-1.21.9-1.66,1.4l-.82.87.82,4.64.08.43.16.91c.16,1.07.94,1.92,1.99,2.26.05.02.11.03.17.05-.04.03-.08.05-.12.08-.61.4-1.16.77-1.67,1.09l-1.23.79-.17.11.06.31.93,5.16s.02.1.03.15c.34,1.49,1.74,2.49,3.53,2.49h12.46c.89,0,1.54-.11,2.13-.38,1.09-.5,1.76-1.48,1.76-2.57v-5.14c0-.79-.14-1.39-.44-1.92-.45-.77-1.21-1.28-2.13-1.46.63-1.07.95-2.19.95-3.31,0-.96-.15-1.92-.46-2.82-.35-1.04-.94-1.96-1.74-2.74-.81-.79-1.85-1.42-3.1-1.86-1.2-.42-2.59-.64-4.25-.64"/>
            <path class="cls-51" d="M234.25,99.06c-.72,0-1.41.07-2.1.21-.68.14-1.31.33-1.91.55-.6.24-1.13.51-1.6.82-.48.32-.88.65-1.21,1.01l.86,4.89c.02.19.14.29.34.29.16,0,.33-.11.52-.31.59-.67,1.25-1.26,1.97-1.75.72-.5,1.44-.74,2.16-.74.59,0,1.06.12,1.39.38.33.25.49.62.49,1.11s-.27,1.03-.8,1.63c-.53.6-1.19,1.22-1.96,1.86-.76.64-1.6,1.25-2.49,1.84-.9.6-1.69,1.12-2.39,1.57l.71,3.95c.06.35.34.53.84.53h12.46c.43,0,.73-.04.9-.11.16-.07.24-.19.24-.33v-5.15c0-.35-.05-.6-.13-.74s-.23-.2-.43-.2h-3.24l-.7,2.06h-3.98c.69-.45,1.45-.96,2.25-1.55.8-.59,1.54-1.22,2.22-1.9.67-.68,1.24-1.39,1.69-2.13.45-.73.67-1.48.67-2.22s-.11-1.43-.33-2.1c-.23-.67-.6-1.26-1.12-1.78-.53-.51-1.22-.92-2.09-1.23-.86-.3-1.94-.46-3.24-.46"/>
            <path class="cls-47" d="M457.24,155.83c-.58,0-1.03.17-1.37.51-.33.35-.5.75-.5,1.21s.16.82.49,1.13c.32.31.79.46,1.41.46.39,0,.78-.08,1.2-.26.41-.17.74-.51.97-1.02-.1-.6-.31-1.08-.63-1.47-.32-.38-.85-.57-1.57-.57M456.43,162.22c-.83,0-1.58-.1-2.25-.3-.67-.21-1.25-.51-1.73-.9-.48-.39-.85-.86-1.11-1.43-.26-.57-.4-1.21-.4-1.92,0-.79.15-1.51.47-2.15s.74-1.18,1.29-1.62c.55-.43,1.21-.77,1.96-1,.76-.24,1.59-.36,2.5-.36,2.19,0,3.84.59,4.98,1.76,1.12,1.17,1.69,2.85,1.69,5.04,0,1.04-.13,2.04-.37,3.01-.24.97-.66,1.83-1.22,2.59-.58.76-1.33,1.36-2.28,1.82s-2.11.69-3.51.69c-.33,0-.72-.02-1.13-.05-.42-.03-.85-.08-1.29-.15-.44-.07-.87-.16-1.3-.28-.41-.11-.8-.26-1.13-.45l.56-3.04c.02-.12.09-.19.23-.19.08,0,.24.05.47.13.22.08.5.17.82.28.32.1.68.19,1.08.27.39.09.79.13,1.2.13.89,0,1.62-.22,2.17-.64.56-.42.95-1.12,1.16-2.08-.43.3-.89.52-1.38.65-.48.13-.97.19-1.48.19M457.06,151.3c-1.15,0-2.24.15-3.24.46-1.04.33-1.94.8-2.71,1.4-.79.63-1.42,1.41-1.86,2.32-.44.9-.66,1.9-.66,2.98,0,.99.19,1.9.57,2.72.29.64.69,1.21,1.19,1.71-.27.3-.45.67-.52,1.08l-.8,4.4,1.31.72c.49.27,1.05.48,1.65.64.5.14,1.03.25,1.56.33.5.08,1.01.14,1.49.17.49.03.93.06,1.31.06,1.77,0,3.31-.32,4.58-.93,1.26-.62,2.29-1.44,3.07-2.47.73-.96,1.26-2.07,1.57-3.29.28-1.12.42-2.28.42-3.47,0-2.68-.76-4.83-2.25-6.38-1.57-1.64-3.82-2.46-6.68-2.46"/>
            <path class="cls-51" d="M457.27,159.15c-.62,0-1.1-.15-1.41-.46-.32-.32-.49-.69-.49-1.13s.17-.86.5-1.21c.34-.34.79-.51,1.37-.51.72,0,1.25.2,1.57.57.32.38.53.87.63,1.47-.23.51-.56.85-.97,1.02-.41.18-.81.26-1.2.26M457.17,152.54c-.91,0-1.75.12-2.5.36-.76.24-1.41.57-1.96,1-.55.43-.97.97-1.29,1.62s-.47,1.36-.47,2.15c0,.72.14,1.35.4,1.92.26.56.63,1.04,1.11,1.43.48.39,1.06.69,1.73.9.67.2,1.42.3,2.25.3.5,0,1-.06,1.48-.19.49-.13.95-.35,1.38-.65-.22.96-.6,1.66-1.16,2.08-.55.42-1.28.64-2.17.64-.4,0-.81-.04-1.2-.13-.4-.08-.76-.17-1.08-.27-.32-.11-.59-.2-.82-.28-.23-.08-.39-.13-.47-.13-.14,0-.21.07-.23.19l-.56,3.04c.33.19.72.33,1.13.45.42.11.85.2,1.3.28.43.07.86.11,1.29.15.41.03.8.05,1.13.05,1.4,0,2.57-.24,3.51-.69s1.7-1.06,2.28-1.82c.57-.76.98-1.62,1.22-2.59.24-.97.37-1.97.37-3.01,0-2.19-.57-3.87-1.69-5.04-1.13-1.17-2.79-1.76-4.98-1.76"/>
            <path class="cls-47" d="M294.71,169.74c-.25,0-.43-.05-.53-.13-.11-.09-.18-.2-.22-.34l-.61-3.08,5.09-9.99c.1-.15.2-.24.31-.3.11-.07.35-.1.74-.1h3.76c.4,0,.68.04.85.11.15.07.23.19.23.34l-5.26,9.94h2.9v-4.14c0-.15.07-.27.22-.34.14-.07.42-.11.86-.11h2.95c.39,0,.66.04.82.11.17.07.25.19.25.34v4.14h.9c.38,0,.64.04.77.11.14.07.21.19.21.34l-.58,3.1h-1.31v2.07c0,.14-.08.24-.25.32-.16.07-.43.1-.82.1h-2.95c-.43,0-.71-.03-.86-.1-.14-.07-.22-.18-.22-.32v-2.07h-7.24M303.29,154.4h-3.95c-.69,0-1.49.05-2.25.49-.45.26-.84.62-1.14,1.08l-5.47,10.67h2.67l1.14,6.35v.19c0,.27-.04.53-.12.78.05,0,.1,0,.15,0h4.9c.1.95.7,1.77,1.64,2.22.74.36,1.56.4,2.19.4h3.1c.83,0,1.48-.11,2.02-.33,1.03-.44,1.69-1.3,1.8-2.28h.97l.99-5.3.04-.41c0-1.04-.58-1.98-1.59-2.5-.13-.07-.25-.12-.39-.17v-2.15c0-1.12-.69-2.1-1.83-2.59-.55-.23-1.19-.33-2.02-.33h-.4l1.38-2.6v-.56c0-1.08-.66-2.06-1.75-2.57-.57-.25-1.21-.36-2.1-.36"/>
            <path class="cls-51" d="M303.26,155.8h-3.76c-.39,0-.63.03-.74.1-.11.06-.21.15-.31.3l-5.09,9.99.61,3.08c.04.14.11.25.22.34.1.08.28.13.53.13h7.24v2.07c0,.14.07.24.22.32.14.07.42.1.86.1h2.95c.39,0,.66-.03.82-.1.17-.07.25-.18.25-.32v-2.07h1.31l.58-3.1c0-.15-.07-.27-.21-.34-.14-.07-.4-.11-.77-.11h-.9v-4.14c0-.15-.08-.27-.25-.34-.16-.07-.43-.11-.82-.11h-2.95c-.43,0-.71.04-.86.11-.14.07-.22.19-.22.34v4.14h-2.9l5.26-9.94c0-.15-.07-.27-.23-.34-.16-.07-.44-.11-.85-.11"/>
            <path class="cls-47" d="M278.91,159.72c-.4,0-.68-.03-.83-.11-.14-.08-.22-.2-.22-.37l.77-4.29h7.85c.41,0,.71.04.88.11.18.07.26.2.26.37v12.3h3.4l.77,4.28c0,.17-.07.29-.22.37-.14.07-.42.11-.84.11h-12.15c-.41,0-.69-.04-.84-.11-.14-.07-.22-.2-.22-.37l.77-4.28h3.4v-8.02h-2.82M286.49,153.86h-9.96l-1.14,6.35v.18c0,.99.55,1.85,1.47,2.32.69.36,1.47.41,2.07.41h.32v3.51h-3.02l-1.15,6.35v.19c0,.98.56,1.85,1.47,2.32.7.37,1.48.42,2.07.42h12.16c.58,0,1.36-.05,2.06-.41.66-.35,1.13-.9,1.34-1.54.08-.25.12-.51.12-.78v-.19l-1.14-6.35h-3.02v-10.05c0-1.04-.65-1.96-1.7-2.4-.52-.23-1.13-.33-1.94-.33"/>
            <path class="cls-51" d="M286.49,154.96h-7.85l-.77,4.29c0,.16.07.29.22.37.14.07.42.11.83.11h2.82v8.02h-3.4l-.77,4.28c0,.17.07.29.22.37.14.07.42.11.84.11h12.15c.41,0,.69-.04.84-.11.14-.07.22-.2.22-.37l-.77-4.28h-3.4v-12.3c0-.17-.08-.29-.26-.37-.17-.07-.47-.11-.88-.11"/>
          </g>
        </g>
      </g>
    </g>
  </g>
</svg>